{
.appVersion = "1296";
copyright = "Copyright 2017 Google Inc. All Rights Reserved.";
customParameters = (
{
name = description;
value = "Designed by Monotype design team.";
},
{
name = license;
value = "This Font Software is licensed under the SIL Open Font License, Version 1.1. This Font Software is distributed on an \"AS IS\" BASIS, WITHOUT WARRANTIES OR CONDITIONS OF ANY KIND, either express or implied. See the SIL Open Font License for the specific language, permissions and limitations governing your use of this Font Software.";
},
{
name = licenseURL;
value = "http://scripts.sil.org/OFL";
},
{
name = vendorID;
value = GOOG;
},
{
name = unicodeRanges;
value = (
0,
1,
15,
17,
31,
33,
38,
45,
46
);
},
{
name = codePageRanges;
value = (
1252
);
},
{
name = glyphOrder;
value = (
.notdef,
NULL,
CR,
space,
uni00A0,
adakbindiguru,
bindiguru,
visargaguru,
aguru,
aaguru,
iguru,
iiguru,
uguru,
uuguru,
eeguru,
aiguru,
ooguru,
auguru,
kaguru,
khaguru,
gaguru,
ghaguru,
ngaguru,
caguru,
chaguru,
jaguru,
jhaguru,
nyaguru,
ttaguru,
tthaguru,
ddaguru,
ddhaguru,
nnaguru,
taguru,
thaguru,
daguru,
dhaguru,
naguru,
paguru,
phaguru,
baguru,
bhaguru,
maguru,
yaguru,
raguru,
laguru,
lanuktaguru,
vaguru,
sanuktaguru,
saguru,
haguru,
nuktaguru,
aamatraguru,
imatraguru,
iimatraguru,
umatraguru,
uumatraguru,
eematraguru,
aimatraguru,
oomatraguru,
aumatraguru,
halantguru,
udaatguru,
khanuktaguru,
ganuktaguru,
januktaguru,
rraguru,
phanuktaguru,
zeroguru,
oneguru,
twoguru,
threeguru,
fourguru,
fiveguru,
sixguru,
sevenguru,
eightguru,
nineguru,
tippiguru,
addakguru,
iriguru,
uraguru,
ekonkarguru,
yakashguru,
uni0A76,
U262C,
unuktaguru,
uunuktaguru,
kanuktaguru,
ghanuktaguru,
nganuktaguru,
canuktaguru,
chanuktaguru,
jhanuktaguru,
nyanuktaguru,
ttanuktaguru,
tthanuktaguru,
ddhanuktaguru,
nnanuktaguru,
tanuktaguru,
thanuktaguru,
danuktaguru,
dhanuktaguru,
nanuktaguru,
panuktaguru,
banuktaguru,
bhanuktaguru,
manuktaguru,
yanuktaguru,
ranuktaguru,
vanuktaguru,
hanuktaguru,
rasubscriptguru,

glyphs = (
{
glyphname = .notdef;
lastChange = "2020-02-26 20:16:57 +0000";
layers = (
{
layerId = "1D4F67F9-897D-45AD-B7F0-CA61A6862C03";
paths = (
{
closed = 1;
nodes = (
"505 0 LINE",
"505 714 LINE",
"94 714 LINE",
"94 0 LINE"
);
},
{
closed = 1;
nodes = (
"145 663 LINE",
"454 663 LINE",
"454 51 LINE",
"145 51 LINE"
);
}
);
width = 600;
},
{
layerId = "E17BEC9D-CAAD-449F-91D9-03766E30097E";
paths = (
{
closed = 1;
nodes = (
"505 0 LINE",
"505 714 LINE",
"94 714 LINE",
"94 0 LINE"
);
},
{
closed = 1;
nodes = (
"145 663 LINE",
"454 663 LINE",
"454 51 LINE",
"145 51 LINE"
);
}
);
width = 600;
},
{
layerId = "7DD510ED-E696-4B04-90C7-292E6BE56412";
paths = (
{
closed = 1;
nodes = (
"505 0 LINE",
"505 714 LINE",
"94 714 LINE",
"94 0 LINE"
);
},
{
closed = 1;
nodes = (
"145 663 LINE",
"454 663 LINE",
"454 51 LINE",
"145 51 LINE"
);
}
);
width = 600;
}
);
},
{
glyphname = adakbindiguru;
lastChange = "2020-02-26 20:16:57 +0000";
layers = (
{
anchors = (
{
name = _top;
position = "{-116, 622}";
}
);
layerId = "1D4F67F9-897D-45AD-B7F0-CA61A6862C03";
paths = (
{
closed = 1;
nodes = (
"-151 814 OFFCURVE",
"-137 800 OFFCURVE",
"-119 800 CURVE SMOOTH",
"-99 800 OFFCURVE",
"-86 814 OFFCURVE",
"-86 831 CURVE SMOOTH",
"-86 849 OFFCURVE",
"-100 864 OFFCURVE",
"-119 864 CURVE SMOOTH",
"-137 864 OFFCURVE",
"-151 851 OFFCURVE",
"-151 833 CURVE SMOOTH"
);
},
{
closed = 1;
nodes = (
"-4 842 LINE",
"-5 757 OFFCURVE",
"-67 717 OFFCURVE",
"-117 717 CURVE SMOOTH",
"-165 717 OFFCURVE",
"-227 753 OFFCURVE",
"-231 839 CURVE",
"-236 839 LINE",
"-256 765 OFFCURVE",
"-204 689 OFFCURVE",
"-116 689 CURVE SMOOTH",
"-25 689 OFFCURVE",
"25 773 OFFCURVE",
"1 842 CURVE"
);
}
);
width = 0;
},
{
anchors = (
{
name = _top;
position = "{-155, 622}";
}
);
layerId = "E17BEC9D-CAAD-449F-91D9-03766E30097E";
paths = (
{
closed = 1;
nodes = (
"-243 825 OFFCURVE",
"-212 794 OFFCURVE",
"-165 794 CURVE SMOOTH",
"-119 794 OFFCURVE",
"-91 825 OFFCURVE",
"-91 869 CURVE SMOOTH",
"-91 917 OFFCURVE",
"-121 946 OFFCURVE",
"-167 946 CURVE SMOOTH",
"-214 946 OFFCURVE",
"-243 914 OFFCURVE",
"-243 873 CURVE SMOOTH"
);
},
{
closed = 1;
nodes = (
"-21 863 LINE",
"-47 811 OFFCURVE",
"-104 772 OFFCURVE",
"-166 772 CURVE SMOOTH",
"-226 772 OFFCURVE",
"-287 811 OFFCURVE",
"-306 860 CURVE",
"-326 860 LINE",
"-336 751 OFFCURVE",
"-275 650 OFFCURVE",
"-155 650 CURVE SMOOTH",
"-32 650 OFFCURVE",
"12 763 OFFCURVE",
"-1 863 CURVE"
);
}
);
width = 0;
},
{
anchors = (
{
name = _top;
position = "{-132, 622}";
}
);
layerId = "7DD510ED-E696-4B04-90C7-292E6BE56412";
paths = (
{
closed = 1;
nodes = (
"-188 818 OFFCURVE",
"-167 798 OFFCURVE",
"-137 798 CURVE SMOOTH",
"-107 798 OFFCURVE",
"-88 818 OFFCURVE",
"-88 846 CURVE SMOOTH",
"-88 876 OFFCURVE",
"-108 897 OFFCURVE",
"-138 897 CURVE SMOOTH",
"-168 897 OFFCURVE",
"-188 876 OFFCURVE",
"-188 849 CURVE SMOOTH"
);
},
{
closed = 1;
nodes = (
"-11 850 LINE",
"-22 778 OFFCURVE",
"-82 739 OFFCURVE",
"-136 739 CURVE SMOOTH",
"-189 739 OFFCURVE",
"-251 776 OFFCURVE",
"-261 847 CURVE",
"-272 847 LINE",
"-288 759 OFFCURVE",
"-232 673 OFFCURVE",
"-132 673 CURVE SMOOTH",
"-28 673 OFFCURVE",
"20 769 OFFCURVE",
"0 850 CURVE"
);
}
);
width = 0;
}
);
unicode = 0A01;
},
{
glyphname = bindiguru;
lastChange = "2020-02-26 20:16:57 +0000";
layers = (
{
anchors = (
{
name = _top;
position = "{-120, 622}";
}
);
layerId = "1D4F67F9-897D-45AD-B7F0-CA61A6862C03";
paths = (
{
closed = 1;
nodes = (
"-154 722 OFFCURVE",
"-139 707 OFFCURVE",
"-120 707 CURVE SMOOTH",
"-99 707 OFFCURVE",
"-85 722 OFFCURVE",
"-85 740 CURVE SMOOTH",
"-85 759 OFFCURVE",
"-100 775 OFFCURVE",
"-120 775 CURVE SMOOTH",
"-139 775 OFFCURVE",
"-154 761 OFFCURVE",
"-154 742 CURVE SMOOTH"
);
}
);
width = 0;
},
{
anchors = (
{
name = _top;
position = "{-158, 622}";
}
);
layerId = "E17BEC9D-CAAD-449F-91D9-03766E30097E";
paths = (
{
closed = 1;
nodes = (
"-249 719 OFFCURVE",
"-211 681 OFFCURVE",
"-158 681 CURVE SMOOTH",
"-106 681 OFFCURVE",
"-71 719 OFFCURVE",
"-71 769 CURVE SMOOTH",
"-71 823 OFFCURVE",
"-108 859 OFFCURVE",
"-160 859 CURVE SMOOTH",
"-213 859 OFFCURVE",
"-249 820 OFFCURVE",
"-249 773 CURVE SMOOTH"
);
}
);
width = 0;
},
{
anchors = (
{
name = _top;
position = "{-135, 622}";
}
);
layerId = "7DD510ED-E696-4B04-90C7-292E6BE56412";
paths = (
{
closed = 1;
nodes = (
"-192 721 OFFCURVE",
"-168 697 OFFCURVE",
"-135 697 CURVE SMOOTH",
"-102 697 OFFCURVE",
"-79 721 OFFCURVE",
"-79 752 CURVE SMOOTH",
"-79 784 OFFCURVE",
"-103 808 OFFCURVE",
"-136 808 CURVE SMOOTH",
"-168 808 OFFCURVE",
"-192 784 OFFCURVE",
"-192 754 CURVE SMOOTH"
);
}
);
width = 0;
}
);
unicode = 0A02;
},
{
glyphname = visargaguru;
lastChange = "2020-02-26 20:16:57 +0000";
layers = (
{
layerId = "1D4F67F9-897D-45AD-B7F0-CA61A6862C03";
paths = (
{
closed = 1;
nodes = (
"65 444 OFFCURVE",
"112 390 OFFCURVE",
"180 390 CURVE SMOOTH",
"243 390 OFFCURVE",
"284 435 OFFCURVE",
"284 486 CURVE SMOOTH",
"284 540 OFFCURVE",
"239 596 OFFCURVE",
"171 596 CURVE SMOOTH",
"110 596 OFFCURVE",
"65 551 OFFCURVE",
"65 498 CURVE SMOOTH"
);
},
{
closed = 1;
nodes = (
"125 413 OFFCURVE",
"89 448 OFFCURVE",
"89 495 CURVE SMOOTH",
"89 540 OFFCURVE",
"123 573 OFFCURVE",
"173 573 CURVE SMOOTH",
"226 573 OFFCURVE",
"260 536 OFFCURVE",
"260 490 CURVE SMOOTH",
"260 446 OFFCURVE",
"229 413 OFFCURVE",
"178 413 CURVE SMOOTH"
);
},
{
closed = 1;
nodes = (
"65 54 OFFCURVE",
"112 0 OFFCURVE",
"180 0 CURVE SMOOTH",
"243 0 OFFCURVE",
"284 45 OFFCURVE",
"284 96 CURVE SMOOTH",
"284 150 OFFCURVE",
"239 206 OFFCURVE",
"171 206 CURVE SMOOTH",
"110 206 OFFCURVE",
"65 161 OFFCURVE",
"65 108 CURVE SMOOTH"
);
},
{
closed = 1;
nodes = (
"125 23 OFFCURVE",
"89 58 OFFCURVE",
"89 105 CURVE SMOOTH",
"89 150 OFFCURVE",
"123 183 OFFCURVE",
"173 183 CURVE SMOOTH",
"226 183 OFFCURVE",
"260 146 OFFCURVE",
"260 100 CURVE SMOOTH",
"260 56 OFFCURVE",
"229 23 OFFCURVE",
"178 23 CURVE SMOOTH"
);
}
);
width = 339;
},
{
layerId = "E17BEC9D-CAAD-449F-91D9-03766E30097E";
paths = (
{
closed = 1;
nodes = (
"78 378 OFFCURVE",
"169 322 OFFCURVE",
"253 322 CURVE SMOOTH",
"332 322 OFFCURVE",
"378 371 OFFCURVE",
"378 439 CURVE SMOOTH",
"378 534 OFFCURVE",
"288 596 OFFCURVE",
"208 596 CURVE SMOOTH",
"142 596 OFFCURVE",
"78 554 OFFCURVE",
"78 474 CURVE SMOOTH"
);
},
{
closed = 1;
nodes = (
"191 408 OFFCURVE",
"179 426 OFFCURVE",
"179 447 CURVE SMOOTH",
"179 473 OFFCURVE",
"200 503 OFFCURVE",
"239 503 CURVE SMOOTH",
"265 503 OFFCURVE",
"277 485 OFFCURVE",
"277 465 CURVE SMOOTH",
"277 438 OFFCURVE",
"256 408 OFFCURVE",
"218 408 CURVE SMOOTH"
);
},
{
closed = 1;
nodes = (
"78 56 OFFCURVE",
"169 0 OFFCURVE",
"253 0 CURVE SMOOTH",
"332 0 OFFCURVE",
"378 49 OFFCURVE",
"378 117 CURVE SMOOTH",
"378 212 OFFCURVE",
"288 274 OFFCURVE",
"208 274 CURVE SMOOTH",
"142 274 OFFCURVE",
"78 232 OFFCURVE",
"78 152 CURVE SMOOTH"
);
},
{
closed = 1;
nodes = (
"191 86 OFFCURVE",
"179 104 OFFCURVE",
"179 125 CURVE SMOOTH",
"179 151 OFFCURVE",
"200 181 OFFCURVE",
"239 181 CURVE SMOOTH",
"265 181 OFFCURVE",
"277 163 OFFCURVE",
"277 143 CURVE SMOOTH",
"277 116 OFFCURVE",
"256 86 OFFCURVE",
"218 86 CURVE SMOOTH"
);
}
);
width = 455;
},
{
layerId = "7DD510ED-E696-4B04-90C7-292E6BE56412";
paths = (
{
closed = 1;
nodes = (
"70 418 OFFCURVE",
"135 363 OFFCURVE",
"209 363 CURVE SMOOTH",
"278 363 OFFCURVE",
"321 410 OFFCURVE",
"321 467 CURVE SMOOTH",
"321 538 OFFCURVE",
"258 596 OFFCURVE",
"186 596 CURVE SMOOTH",
"123 596 OFFCURVE",
"70 552 OFFCURVE",
"70 488 CURVE SMOOTH"
);
},
{
closed = 1;
nodes = (
"151 411 OFFCURVE",
"125 439 OFFCURVE",
"125 476 CURVE SMOOTH",
"125 513 OFFCURVE",
"154 545 OFFCURVE",
"199 545 CURVE SMOOTH",
"242 545 OFFCURVE",
"267 516 OFFCURVE",
"267 480 CURVE SMOOTH",
"267 443 OFFCURVE",
"240 411 OFFCURVE",
"194 411 CURVE SMOOTH"
);
},
{
closed = 1;
nodes = (
"70 55 OFFCURVE",
"135 0 OFFCURVE",
"209 0 CURVE SMOOTH",
"278 0 OFFCURVE",
"321 47 OFFCURVE",
"321 104 CURVE SMOOTH",
"321 175 OFFCURVE",
"258 233 OFFCURVE",
"186 233 CURVE SMOOTH",
"123 233 OFFCURVE",
"70 189 OFFCURVE",
"70 125 CURVE SMOOTH"
);
},
{
closed = 1;
nodes = (
"151 48 OFFCURVE",
"125 76 OFFCURVE",
"125 113 CURVE SMOOTH",
"125 150 OFFCURVE",
"154 182 OFFCURVE",
"199 182 CURVE SMOOTH",
"242 182 OFFCURVE",
"267 153 OFFCURVE",
"267 117 CURVE SMOOTH",
"267 80 OFFCURVE",
"240 48 OFFCURVE",
"194 48 CURVE SMOOTH"
);
}
);
width = 385;
}
);
unicode = 0A03;
},
{
glyphname = aguru;
lastChange = "2020-02-26 20:16:57 +0000";
layers = (
{
anchors = (
{
name = top;
position = "{622, 622}";
}
);
layerId = "1D4F67F9-897D-45AD-B7F0-CA61A6862C03";
paths = (
{
closed = 1;
nodes = (
"752 622 LINE",
"611 622 LINE",
"611 455 LINE",
"538 411 OFFCURVE",
"451 346 OFFCURVE",
"395 291 CURVE",
"400 362 OFFCURVE",
"389 477 OFFCURVE",
"353 570 CURVE",
"350 570 LINE",
"290 530 OFFCURVE",
"215 462 OFFCURVE",
"168 412 CURVE",
"165 470 OFFCURVE",
"141 560 OFFCURVE",
"113 622 CURVE",
"-14 622 LINE",
"-15 620 LINE",
"-5 596 LINE",
"99 596 LINE",
"125 533 OFFCURVE",
"144 448 OFFCURVE",
"141 388 CURVE",
"97 338 OFFCURVE",
"55 265 OFFCURVE",
"55 230 CURVE SMOOTH",
"55 213 OFFCURVE",
"65 205 OFFCURVE",
"75 205 CURVE SMOOTH",
"109 205 OFFCURVE",
"163 300 OFFCURVE",
"169 375 CURVE",
"213 429 OFFCURVE",
"277 489 OFFCURVE",
"340 535 CURVE",
"367 449 OFFCURVE",
"377 346 OFFCURVE",
"366 268 CURVE",
"329 229 OFFCURVE",
"278 146 OFFCURVE",
"278 108 CURVE SMOOTH",
"278 93 OFFCURVE",
"287 83 OFFCURVE",
"298 83 CURVE SMOOTH",
"332 83 OFFCURVE",
"384 179 OFFCURVE",
"394 254 CURVE",
"450 312 OFFCURVE",
"539 382 OFFCURVE",
"611 427 CURVE",
"611 0 LINE",
"634 -15 LINE",
"637 -13 LINE",
"637 596 LINE",
"761 596 LINE",
"762 598 LINE"
);
}
);
width = 727;
},
{
anchors = (
{
name = top;
position = "{661, 622}";
}
);
layerId = "E17BEC9D-CAAD-449F-91D9-03766E30097E";
paths = (
{
closed = 1;
nodes = (
"841 622 LINE",
"594 622 LINE",
"594 434 LINE",
"561 413 OFFCURVE",
"527 390 OFFCURVE",
"497 367 CURVE",
"475 458 OFFCURVE",
"431 553 OFFCURVE",
"402 592 CURVE",
"391 592 LINE",
"348 568 OFFCURVE",
"288 525 OFFCURVE",
"231 480 CURVE",
"209 533 OFFCURVE",
"180 588 OFFCURVE",
"160 622 CURVE",
"-40 622 LINE",
"-50 602 LINE",
"-10 494 LINE",
"112 494 LINE",
"120 463 OFFCURVE",
"126 430 OFFCURVE",
"128 398 CURVE",
"52 327 OFFCURVE",
"21 275 OFFCURVE",
"21 225 CURVE SMOOTH",
"21 165 OFFCURVE",
"60 135 OFFCURVE",
"109 135 CURVE SMOOTH",
"172 135 OFFCURVE",
"236 212 OFFCURVE",
"253 311 CURVE",
"288 350 OFFCURVE",
"330 386 OFFCURVE",
"373 416 CURVE",
"377 374 OFFCURVE",
"374 323 OFFCURVE",
"367 281 CURVE",
"300 221 OFFCURVE",
"263 161 OFFCURVE",
"263 106 CURVE SMOOTH",
"263 56 OFFCURVE",
"294 14 OFFCURVE",
"348 14 CURVE SMOOTH",
"426 14 OFFCURVE",
"488 108 OFFCURVE",
"509 205 CURVE",
"535 228 OFFCURVE",
"563 250 OFFCURVE",
"594 271 CURVE",
"594 20 LINE",
"741 -50 LINE",
"761 -40 LINE",
"761 494 LINE",
"871 494 LINE",
"881 514 LINE"
);
}
);
width = 831;
},
{
anchors = (
{
name = top;
position = "{638, 622}";
}
);
layerId = "7DD510ED-E696-4B04-90C7-292E6BE56412";
paths = (
{
closed = 1;
nodes = (
"787 622 LINE",
"604 622 LINE",
"604 447 LINE",
"547 412 OFFCURVE",
"481 363 OFFCURVE",
"436 321 CURVE",
"430 400 OFFCURVE",
"406 507 OFFCURVE",
"372 579 CURVE",
"366 579 LINE",
"313 545 OFFCURVE",
"244 487 OFFCURVE",
"193 439 CURVE",
"182 495 OFFCURVE",
"157 571 OFFCURVE",
"132 622 CURVE",
"-24 622 LINE",
"-29 613 LINE",
"-7 555 LINE",
"104 555 LINE",
"123 505 OFFCURVE",
"137 441 OFFCURVE",
"136 392 CURVE",
"79 334 OFFCURVE",
"41 269 OFFCURVE",
"41 228 CURVE SMOOTH",
"41 194 OFFCURVE",
"63 177 OFFCURVE",
"89 177 CURVE SMOOTH",
"134 177 OFFCURVE",
"192 265 OFFCURVE",
"202 350 CURVE",
"243 398 OFFCURVE",
"298 448 OFFCURVE",
"353 488 CURVE",
"371 419 OFFCURVE",
"376 337 OFFCURVE",
"366 273 CURVE",
"317 226 OFFCURVE",
"272 152 OFFCURVE",
"272 107 CURVE SMOOTH",
"272 78 OFFCURVE",
"290 56 OFFCURVE",
"318 56 CURVE SMOOTH",
"369 56 OFFCURVE",
"425 151 OFFCURVE",
"440 235 CURVE",
"484 279 OFFCURVE",
"549 330 OFFCURVE",
"604 365 CURVE",
"604 8 LINE",
"677 -29 LINE",
"686 -24 LINE",
"686 555 LINE",
"805 555 LINE",
"809 565 LINE"
);
}
);
width = 768;
}
);
leftKerningGroup = aL;
rightKerningGroup = vert;
unicode = 0A05;
},
{
glyphname = iguru;
lastChange = "2020-02-26 20:16:57 +0000";
layers = (
{
anchors = (
{
name = top;
position = "{677, 622}";
}
);
components = (
{
name = iriguru;
transform = "{1, 0, 0, 1, 211, 0}";
}
);
layerId = "1D4F67F9-897D-45AD-B7F0-CA61A6862C03";
paths = (
{
closed = 1;
nodes = (
"151 899 OFFCURVE",
"73 841 OFFCURVE",
"73 735 CURVE SMOOTH",
"73 703 OFFCURVE",
"81 662 OFFCURVE",
"97 622 CURVE",
"-24 622 LINE",
"-25 620 LINE",
"-15 596 LINE",
"100 596 LINE",
"100 0 LINE",
"123 -15 LINE",
"126 -13 LINE",
"126 596 LINE",
"250 596 LINE",
"251 598 LINE",
"241 622 LINE",
"123 622 LINE",
"107 661 OFFCURVE",
"100 698 OFFCURVE",
"100 729 CURVE SMOOTH",
"100 832 OFFCURVE",
"174 871 OFFCURVE",
"242 871 CURVE SMOOTH",
"353 871 OFFCURVE",
"406 776 OFFCURVE",
"455 659 CURVE",
"469 659 LINE",
"470 661 LINE",
"427 810 OFFCURVE",
"347 899 OFFCURVE",
"238 899 CURVE SMOOTH"
);
}
);
width = 806;
},
{
anchors = (
{
name = top;
position = "{771, 622}";
}
);
components = (
{
name = iriguru;
transform = "{1, 0, 0, 1, 284, 0}";
}
);
layerId = "E17BEC9D-CAAD-449F-91D9-03766E30097E";
paths = (
{
closed = 1;
nodes = (
"161 937 OFFCURVE",
"54 855 OFFCURVE",
"54 729 CURVE SMOOTH",
"54 693 OFFCURVE",
"62 658 OFFCURVE",
"82 622 CURVE",
"-40 622 LINE",
"-50 602 LINE",
"-10 494 LINE",
"74 494 LINE",
"74 20 LINE",
"221 -50 LINE",
"241 -40 LINE",
"241 494 LINE",
"361 494 LINE",
"371 514 LINE",
"331 622 LINE",
"209 622 LINE",
"206 637 OFFCURVE",
"204 650 OFFCURVE",
"204 663 CURVE SMOOTH",
"204 744 OFFCURVE",
"268 782 OFFCURVE",
"339 782 CURVE SMOOTH",
"417 782 OFFCURVE",
"481 737 OFFCURVE",
"526 650 CURVE",
"577 650 LINE",
"587 661 LINE",
"566 809 OFFCURVE",
"464 937 OFFCURVE",
"296 937 CURVE SMOOTH"
);
}
);
width = 965;
},
{
anchors = (
{
name = top;
position = "{714, 622}";
}
);
components = (
{
name = iriguru;
transform = "{1, 0, 0, 1, 240, 0}";
}
);
layerId = "7DD510ED-E696-4B04-90C7-292E6BE56412";
paths = (
{
closed = 1;
nodes = (
"155 914 OFFCURVE",
"65 847 OFFCURVE",
"65 733 CURVE SMOOTH",
"65 699 OFFCURVE",
"73 660 OFFCURVE",
"91 622 CURVE",
"-30 622 LINE",
"-35 613 LINE",
"-13 555 LINE",
"90 555 LINE",
"90 8 LINE",
"162 -29 LINE",
"172 -24 LINE",
"172 555 LINE",
"294 555 LINE",
"299 565 LINE",
"277 622 LINE",
"157 622 LINE",
"146 651 OFFCURVE",
"141 679 OFFCURVE",
"141 703 CURVE SMOOTH",
"141 797 OFFCURVE",
"211 836 OFFCURVE",
"281 836 CURVE SMOOTH",
"378 836 OFFCURVE",
"436 760 OFFCURVE",
"483 655 CURVE",
"512 655 LINE",
"517 661 LINE",
"482 810 OFFCURVE",
"394 914 OFFCURVE",
"261 914 CURVE SMOOTH"
);
}
);
width = 869;
}
);
leftKerningGroup = imatraL;
rightKerningGroup = iriR;
rightMetricsKey = iriguru;
unicode = 0A07;
},
{
glyphname = ooguru;
lastChange = "2020-02-26 20:16:57 +0000";
layers = (
{
anchors = (
{
name = top;
position = "{583, 622}";
}
);
layerId = "1D4F67F9-897D-45AD-B7F0-CA61A6862C03";
paths = (
{
closed = 1;
nodes = (
"619 596 LINE",
"620 598 LINE",
"610 622 LINE",
"104 622 LINE",
"140 757 OFFCURVE",
"231 849 OFFCURVE",
"391 849 CURVE SMOOTH",
"530 849 LINE",
"531 851 LINE",
"521 875 LINE",
"396 875 LINE SMOOTH",
"257 875 OFFCURVE",
"123 818 OFFCURVE",
"78 622 CURVE",
"-24 622 LINE",
"-25 620 LINE",
"-15 596 LINE",
"73 596 LINE",
"68 561 OFFCURVE",
"65 520 OFFCURVE",
"65 479 CURVE SMOOTH",
"65 263 OFFCURVE",
"139 -10 OFFCURVE",
"351 -10 CURVE SMOOTH",
"460 -10 OFFCURVE",
"528 60 OFFCURVE",
"528 163 CURVE SMOOTH",
"528 266 OFFCURVE",
"458 322 OFFCURVE",
"391 345 CURVE",
"478 374 OFFCURVE",
"532 462 OFFCURVE",
"533 596 CURVE"
);
},
{
closed = 1;
nodes = (
"97 360 LINE",
"87 440 OFFCURVE",
"88 523 OFFCURVE",
"99 596 CURVE",
"511 596 LINE",
"516 479 OFFCURVE",
"447 360 OFFCURVE",
"328 360 CURVE SMOOTH"
);
},
{
closed = 1;
nodes = (
"502 82 OFFCURVE",
"443 18 OFFCURVE",
"347 18 CURVE SMOOTH",
"181 18 OFFCURVE",
"116 223 OFFCURVE",
"101 334 CURVE",
"315 334 LINE SMOOTH",
"442 334 OFFCURVE",
"502 249 OFFCURVE",
"502 165 CURVE SMOOTH"
);
}
);
width = 600;
},
{
anchors = (
{
name = top;
position = "{732, 642}";
}
);
layerId = "E17BEC9D-CAAD-449F-91D9-03766E30097E";
paths = (
{
closed = 1;
nodes = (
"721 494 LINE",
"731 514 LINE",
"691 622 LINE",
"239 622 LINE",
"265 690 OFFCURVE",
"332 743 OFFCURVE",
"447 743 CURVE SMOOTH",
"621 743 LINE",
"631 763 LINE",
"578 881 LINE",
"438 881 LINE SMOOTH",
"284 881 OFFCURVE",
"122 805 OFFCURVE",
"68 622 CURVE",
"-40 622 LINE",
"-50 602 LINE",
"-10 494 LINE",
"48 494 LINE",
"47 479 OFFCURVE",
"46 449 OFFCURVE",
"46 432 CURVE SMOOTH",
"46 166 OFFCURVE",
"180 -68 OFFCURVE",
"408 -68 CURVE SMOOTH",
"541 -68 OFFCURVE",
"625 6 OFFCURVE",
"625 116 CURVE SMOOTH",
"625 182 OFFCURVE",
"595 242 OFFCURVE",
"525 286 CURVE",
"607 329 OFFCURVE",
"629 404 OFFCURVE",
"634 494 CURVE"
);
},
{
closed = 1;
nodes = (
"208 383 LINE",
"203 416 OFFCURVE",
"206 458 OFFCURVE",
"212 494 CURVE",
"534 494 LINE",
"518 426 OFFCURVE",
"448 383 OFFCURVE",
"350 383 CURVE SMOOTH"
);
},
{
closed = 1;
nodes = (
"488 97 OFFCURVE",
"439 73 OFFCURVE",
"378 73 CURVE SMOOTH",
"321 73 OFFCURVE",
"229 103 OFFCURVE",
"216 232 CURVE",
"363 232 LINE SMOOTH",
"443 232 OFFCURVE",
"488 205 OFFCURVE",
"488 155 CURVE SMOOTH"
);
}
);
width = 681;
},
{
anchors = (
{
name = top;
position = "{642, 630}";
}
);
layerId = "7DD510ED-E696-4B04-90C7-292E6BE56412";
paths = (
{
closed = 1;
nodes = (
"660 555 LINE",
"664 565 LINE",
"642 622 LINE",
"158 622 LINE",
"190 730 OFFCURVE",
"271 807 OFFCURVE",
"413 807 CURVE SMOOTH",
"566 807 LINE",
"571 816 LINE",
"544 877 LINE",
"413 877 LINE SMOOTH",
"268 877 OFFCURVE",
"123 813 OFFCURVE",
"74 622 CURVE",
"-30 622 LINE",
"-35 613 LINE",
"-13 555 LINE",
"63 555 LINE",
"60 528 OFFCURVE",
"57 492 OFFCURVE",
"57 460 CURVE SMOOTH",
"57 224 OFFCURVE",
"155 -33 OFFCURVE",
"374 -33 CURVE SMOOTH",
"492 -33 OFFCURVE",
"567 39 OFFCURVE",
"567 144 CURVE SMOOTH",
"567 233 OFFCURVE",
"512 290 OFFCURVE",
"444 322 CURVE",
"529 356 OFFCURVE",
"571 439 OFFCURVE",
"573 555 CURVE"
);
},
{
closed = 1;
nodes = (
"141 369 LINE",
"133 430 OFFCURVE",
"135 497 OFFCURVE",
"144 555 CURVE",
"520 555 LINE",
"517 458 OFFCURVE",
"447 369 OFFCURVE",
"337 369 CURVE SMOOTH"
);
},
{
closed = 1;
nodes = (
"496 88 OFFCURVE",
"441 40 OFFCURVE",
"359 40 CURVE SMOOTH",
"237 40 OFFCURVE",
"161 175 OFFCURVE",
"147 293 CURVE",
"334 293 LINE SMOOTH",
"442 293 OFFCURVE",
"496 232 OFFCURVE",
"496 161 CURVE SMOOTH"
);
}
);
width = 632;
}
);
leftKerningGroup = uL;
rightKerningGroup = uR;
unicode = 0A13;
},
{
glyphname = kaguru;
lastChange = "2020-02-26 20:16:57 +0000";
layers = (
{
anchors = (
{
name = bottom;
position = "{470, 0}";
},
{
name = top;
position = "{411, 622}";
}
);
layerId = "1D4F67F9-897D-45AD-B7F0-CA61A6862C03";
paths = (
{
closed = 1;
nodes = (
"555 622 LINE",
"-24 622 LINE",
"-25 620 LINE",
"-15 596 LINE",
"400 596 LINE",
"407 559 OFFCURVE",
"410 523 OFFCURVE",
"410 491 CURVE SMOOTH",
"410 415 OFFCURVE",
"395 350 OFFCURVE",
"368 297 CURVE",
"316 386 OFFCURVE",
"252 431 OFFCURVE",
"173 431 CURVE SMOOTH",
"78 431 OFFCURVE",
"12 365 OFFCURVE",
"12 284 CURVE SMOOTH",
"12 201 OFFCURVE",
"81 132 OFFCURVE",
"177 132 CURVE SMOOTH",
"250 132 OFFCURVE",
"320 171 OFFCURVE",
"369 243 CURVE",
"400 178 OFFCURVE",
"423 95 OFFCURVE",
"446 0 CURVE",
"477 -14 LINE",
"480 -12 LINE",
"452 104 OFFCURVE",
"420 197 OFFCURVE",
"384 268 CURVE",
"416 325 OFFCURVE",
"436 400 OFFCURVE",
"436 489 CURVE SMOOTH",
"436 522 OFFCURVE",
"433 558 OFFCURVE",
"427 596 CURVE",
"564 596 LINE",
"565 598 LINE"
);
},
{
closed = 1;
nodes = (
"88 159 OFFCURVE",
"41 219 OFFCURVE",
"41 280 CURVE SMOOTH",
"41 342 OFFCURVE",
"91 402 OFFCURVE",
"176 402 CURVE SMOOTH",
"252 402 OFFCURVE",
"309 353 OFFCURVE",
"354 271 CURVE",
"312 202 OFFCURVE",
"247 159 OFFCURVE",
"173 159 CURVE SMOOTH"
);
}
);
width = 540;
},
{
anchors = (
{
name = bottom;
position = "{582, 0}";
},
{
name = top;
position = "{441, 622}";
}
);
layerId = "E17BEC9D-CAAD-449F-91D9-03766E30097E";
paths = (
{
closed = 1;
nodes = (
"641 622 LINE",
"-40 622 LINE",
"-50 602 LINE",
"-10 494 LINE",
"400 494 LINE",
"404 473 OFFCURVE",
"406 451 OFFCURVE",
"406 430 CURVE SMOOTH",
"406 405 OFFCURVE",
"403 381 OFFCURVE",
"399 359 CURVE",
"345 406 OFFCURVE",
"283 432 OFFCURVE",
"217 432 CURVE SMOOTH",
"96 432 OFFCURVE",
"21 344 OFFCURVE",
"21 256 CURVE SMOOTH",
"21 137 OFFCURVE",
"156 48 OFFCURVE",
"281 48 CURVE SMOOTH",
"324 48 OFFCURVE",
"363 59 OFFCURVE",
"397 77 CURVE",
"404 49 OFFCURVE",
"411 19 OFFCURVE",
"417 -10 CURVE",
"579 -54 LINE",
"599 -40 LINE",
"581 53 OFFCURVE",
"552 137 OFFCURVE",
"516 206 CURVE",
"546 267 OFFCURVE",
"563 341 OFFCURVE",
"563 418 CURVE SMOOTH",
"563 444 OFFCURVE",
"561 469 OFFCURVE",
"557 494 CURVE",
"671 494 LINE",
"681 514 LINE"
);
},
{
closed = 1;
nodes = (
"187 155 OFFCURVE",
"162 188 OFFCURVE",
"162 218 CURVE SMOOTH",
"162 253 OFFCURVE",
"194 289 OFFCURVE",
"251 289 CURVE SMOOTH",
"294 289 OFFCURVE",
"329 268 OFFCURVE",
"354 227 CURVE",
"327 182 OFFCURVE",
"280 155 OFFCURVE",
"236 155 CURVE SMOOTH"
);
}
);
width = 631;
},
{
anchors = (
{
name = bottom;
position = "{515, 0}";
},
{
name = top;
position = "{423, 622}";
}
);
layerId = "7DD510ED-E696-4B04-90C7-292E6BE56412";
paths = (
{
closed = 1;
nodes = (
"589 622 LINE",
"-30 622 LINE",
"-35 613 LINE",
"-13 555 LINE",
"400 555 LINE",
"406 525 OFFCURVE",
"408 494 OFFCURVE",
"408 467 CURVE SMOOTH",
"408 411 OFFCURVE",
"398 362 OFFCURVE",
"380 322 CURVE",
"328 394 OFFCURVE",
"264 431 OFFCURVE",
"190 431 CURVE SMOOTH",
"85 431 OFFCURVE",
"16 357 OFFCURVE",
"16 273 CURVE SMOOTH",
"16 176 OFFCURVE",
"111 99 OFFCURVE",
"218 99 CURVE SMOOTH",
"279 99 OFFCURVE",
"337 126 OFFCURVE",
"380 177 CURVE",
"402 127 OFFCURVE",
"418 65 OFFCURVE",
"434 -4 CURVE",
"518 -30 LINE",
"527 -23 LINE",
"503 84 OFFCURVE",
"472 173 OFFCURVE",
"436 243 CURVE",
"468 302 OFFCURVE",
"486 377 OFFCURVE",
"486 461 CURVE SMOOTH",
"486 491 OFFCURVE",
"484 523 OFFCURVE",
"479 555 CURVE",
"607 555 LINE",
"611 565 LINE"
);
},
{
closed = 1;
nodes = (
"127 157 OFFCURVE",
"89 207 OFFCURVE",
"89 255 CURVE SMOOTH",
"89 307 OFFCURVE",
"132 357 OFFCURVE",
"206 357 CURVE SMOOTH",
"269 357 OFFCURVE",
"317 319 OFFCURVE",
"354 254 CURVE",
"318 194 OFFCURVE",
"260 157 OFFCURVE",
"198 157 CURVE SMOOTH"
);
}
);
width = 576;
}
);
leftKerningGroup = kaL;
rightKerningGroup = kaR;
unicode = 0A15;
},
{
glyphname = khaguru;
lastChange = "2020-02-26 20:16:57 +0000";
layers = (
{
anchors = (
{
name = bottom;
position = "{477, 0}";
},
{
name = top;
position = "{462, 622}";
}
);
layerId = "1D4F67F9-897D-45AD-B7F0-CA61A6862C03";
paths = (
{
closed = 1;
nodes = (
"173 398 LINE",
"453 398 LINE",
"453 424 LINE",
"173 424 LINE"
);
},
{
closed = 1;
nodes = (
"592 622 LINE",
"451 622 LINE",
"451 265 LINE",
"418 193 OFFCURVE",
"351 160 OFFCURVE",
"290 160 CURVE SMOOTH",
"207 160 OFFCURVE",
"145 220 OFFCURVE",
"111 279 CURVE",
"158 331 OFFCURVE",
"187 389 OFFCURVE",
"187 456 CURVE SMOOTH",
"187 505 OFFCURVE",
"171 556 OFFCURVE",
"131 622 CURVE",
"-24 622 LINE",
"-25 620 LINE",
"-15 596 LINE",
"120 596 LINE",
"148 550 OFFCURVE",
"159 505 OFFCURVE",
"159 464 CURVE SMOOTH",
"159 391 OFFCURVE",
"123 334 OFFCURVE",
"79 286 CURVE",
"119 203 OFFCURVE",
"196 131 OFFCURVE",
"293 131 CURVE SMOOTH",
"345 131 OFFCURVE",
"410 153 OFFCURVE",
"451 212 CURVE",
"451 0 LINE",
"474 -15 LINE",
"477 -13 LINE",
"477 596 LINE",
"601 596 LINE",
"602 598 LINE"
);
}
);
width = 577;
},
{
anchors = (
{
name = bottom;
position = "{581, 0}";
},
{
name = top;
position = "{481, 622}";
}
);
layerId = "E17BEC9D-CAAD-449F-91D9-03766E30097E";
paths = (
{
closed = 1;
nodes = (
"227 339 LINE",
"429 339 LINE",
"429 436 LINE",
"215 436 LINE"
);
},
{
closed = 1;
nodes = (
"661 622 LINE",
"414 622 LINE",
"414 274 LINE",
"389 231 OFFCURVE",
"339 207 OFFCURVE",
"286 207 CURVE SMOOTH",
"251 207 OFFCURVE",
"223 215 OFFCURVE",
"200 231 CURVE",
"244 274 OFFCURVE",
"263 318 OFFCURVE",
"263 364 CURVE SMOOTH",
"263 443 OFFCURVE",
"221 537 OFFCURVE",
"149 622 CURVE",
"-40 622 LINE",
"-50 602 LINE",
"-10 494 LINE",
"105 494 LINE",
"109 481 OFFCURVE",
"111 468 OFFCURVE",
"111 456 CURVE SMOOTH",
"111 403 OFFCURVE",
"79 354 OFFCURVE",
"29 306 CURVE",
"73 187 OFFCURVE",
"206 67 OFFCURVE",
"331 67 CURVE SMOOTH",
"366 67 OFFCURVE",
"392 74 OFFCURVE",
"414 86 CURVE",
"414 20 LINE",
"561 -50 LINE",
"581 -40 LINE",
"581 494 LINE",
"691 494 LINE",
"701 514 LINE"
);
}
);
width = 651;
},
{
anchors = (
{
name = bottom;
position = "{518, 0}";
},
{
name = top;
position = "{470, 622}";
}
);
layerId = "7DD510ED-E696-4B04-90C7-292E6BE56412";
paths = (
{
closed = 1;
nodes = (
"194 375 LINE",
"443 375 LINE",
"443 429 LINE",
"190 429 LINE"
);
},
{
closed = 1;
nodes = (
"619 622 LINE",
"436 622 LINE",
"436 269 LINE",
"406 208 OFFCURVE",
"346 179 OFFCURVE",
"288 179 CURVE SMOOTH",
"224 179 OFFCURVE",
"176 218 OFFCURVE",
"146 260 CURVE",
"192 308 OFFCURVE",
"217 361 OFFCURVE",
"217 419 CURVE SMOOTH",
"217 480 OFFCURVE",
"191 548 OFFCURVE",
"138 622 CURVE",
"-30 622 LINE",
"-35 613 LINE",
"-13 555 LINE",
"114 555 LINE",
"132 523 OFFCURVE",
"140 490 OFFCURVE",
"140 461 CURVE SMOOTH",
"140 396 OFFCURVE",
"106 342 OFFCURVE",
"59 294 CURVE",
"101 197 OFFCURVE",
"200 106 OFFCURVE",
"308 106 CURVE SMOOTH",
"353 106 OFFCURVE",
"403 122 OFFCURVE",
"436 162 CURVE",
"436 8 LINE",
"509 -29 LINE",
"518 -24 LINE",
"518 555 LINE",
"637 555 LINE",
"641 565 LINE"
);
}
);
width = 606;
}
);
leftKerningGroup = khaL;
rightKerningGroup = vert;
unicode = 0A16;
},
{
glyphname = gaguru;
lastChange = "2020-02-26 20:16:57 +0000";
layers = (
{
anchors = (
{
name = bottom;
position = "{607, 0}";
},
{
name = top;
position = "{592, 622}";
}
);
layerId = "1D4F67F9-897D-45AD-B7F0-CA61A6862C03";
paths = (
{
closed = 1;
nodes = (
"722 622 LINE",
"-24 622 LINE",
"-25 620 LINE",
"-15 596 LINE",
"349 596 LINE",
"349 391 LINE",
"187 391 LINE SMOOTH",
"67 391 OFFCURVE",
"31 326 OFFCURVE",
"31 265 CURVE SMOOTH",
"31 151 OFFCURVE",
"156 -1 OFFCURVE",
"264 -1 CURVE SMOOTH",
"327 -1 OFFCURVE",
"375 42 OFFCURVE",
"375 176 CURVE SMOOTH",
"375 596 LINE",
"581 596 LINE",
"581 0 LINE",
"604 -15 LINE",
"607 -13 LINE",
"607 596 LINE",
"731 596 LINE",
"732 598 LINE"
);
},
{
closed = 1;
nodes = (
"173 27 OFFCURVE",
"59 157 OFFCURVE",
"59 262 CURVE SMOOTH",
"59 318 OFFCURVE",
"93 365 OFFCURVE",
"195 365 CURVE SMOOTH",
"349 365 LINE",
"349 189 LINE SMOOTH",
"349 91 OFFCURVE",
"328 27 OFFCURVE",
"259 27 CURVE SMOOTH"
);
}
);
width = 707;
},
{
anchors = (
{
name = bottom;
position = "{733, 0}";
},
{
name = top;
position = "{633, 622}";
}
);
layerId = "E17BEC9D-CAAD-449F-91D9-03766E30097E";
paths = (
{
closed = 1;
nodes = (
"813 622 LINE",
"-40 622 LINE",
"-50 602 LINE",
"-10 494 LINE",
"313 494 LINE",
"313 404 LINE",
"199 404 LINE SMOOTH",
"68 404 OFFCURVE",
"19 329 OFFCURVE",
"19 244 CURVE SMOOTH",
"19 117 OFFCURVE",
"163 -43 OFFCURVE",
"311 -43 CURVE SMOOTH",
"437 -43 OFFCURVE",
"475 46 OFFCURVE",
"475 184 CURVE SMOOTH",
"475 494 LINE",
"566 494 LINE",
"566 20 LINE",
"713 -50 LINE",
"733 -40 LINE",
"733 494 LINE",
"843 494 LINE",
"853 514 LINE"
);
},
{
closed = 1;
nodes = (
"227 61 OFFCURVE",
"177 133 OFFCURVE",
"177 199 CURVE SMOOTH",
"177 258 OFFCURVE",
"213 274 OFFCURVE",
"263 274 CURVE SMOOTH",
"313 274 LINE",
"313 164 LINE SMOOTH",
"313 84 OFFCURVE",
"304 61 OFFCURVE",
"271 61 CURVE SMOOTH"
);
}
);
width = 803;
},
{
anchors = (
{
name = bottom;
position = "{657, 0}";
},
{
name = top;
position = "{608, 622}";
}
);
layerId = "7DD510ED-E696-4B04-90C7-292E6BE56412";
paths = (
{
closed = 1;
nodes = (
"758 622 LINE",
"-30 622 LINE",
"-35 613 LINE",
"-13 555 LINE",
"335 555 LINE",
"335 396 LINE",
"192 396 LINE SMOOTH",
"67 396 OFFCURVE",
"26 327 OFFCURVE",
"26 257 CURVE SMOOTH",
"26 137 OFFCURVE",
"159 -18 OFFCURVE",
"283 -18 CURVE SMOOTH",
"371 -18 OFFCURVE",
"415 44 OFFCURVE",
"415 179 CURVE SMOOTH",
"415 555 LINE",
"575 555 LINE",
"575 8 LINE",
"647 -29 LINE",
"657 -24 LINE",
"657 555 LINE",
"776 555 LINE",
"780 565 LINE"
);
},
{
closed = 1;
nodes = (
"194 41 OFFCURVE",
"106 147 OFFCURVE",
"106 237 CURVE SMOOTH",
"106 294 OFFCURVE",
"141 329 OFFCURVE",
"222 329 CURVE SMOOTH",
"335 329 LINE",
"335 179 LINE SMOOTH",
"335 88 OFFCURVE",
"318 41 OFFCURVE",
"264 41 CURVE SMOOTH"
);
}
);
width = 745;
}
);
leftKerningGroup = gaL;
rightKerningGroup = vert;
unicode = 0A17;
},
{
glyphname = ghaguru;
lastChange = "2020-02-26 20:16:57 +0000";
layers = (
{
anchors = (
{
name = bottom;
position = "{682, 0}";
},
{
name = top;
position = "{667, 622}";
}
);
layerId = "1D4F67F9-897D-45AD-B7F0-CA61A6862C03";
paths = (
{
closed = 1;
nodes = (
"797 622 LINE",
"656 622 LINE",
"656 234 LINE",
"626 183 OFFCURVE",
"581 159 OFFCURVE",
"541 159 CURVE SMOOTH",
"468 159 OFFCURVE",
"434 213 OFFCURVE",
"412 277 CURVE",
"423 336 OFFCURVE",
"432 428 OFFCURVE",
"432 477 CURVE SMOOTH",
"432 545 OFFCURVE",
"431 586 OFFCURVE",
"400 586 CURVE SMOOTH",
"373 586 OFFCURVE",
"369 543 OFFCURVE",
"369 474 CURVE SMOOTH",
"369 442 OFFCURVE",
"378 325 OFFCURVE",
"389 285 CURVE",
"369 202 OFFCURVE",
"322 150 OFFCURVE",
"255 150 CURVE SMOOTH",
"188 150 OFFCURVE",
"137 213 OFFCURVE",
"109 279 CURVE",
"158 340 OFFCURVE",
"188 397 OFFCURVE",
"188 459 CURVE SMOOTH",
"188 508 OFFCURVE",
"168 563 OFFCURVE",
"132 622 CURVE",
"-24 622 LINE",
"-25 620 LINE",
"-15 596 LINE",
"121 596 LINE",
"149 550 OFFCURVE",
"160 504 OFFCURVE",
"160 467 CURVE SMOOTH",
"160 400 OFFCURVE",
"123 344 OFFCURVE",
"79 286 CURVE",
"123 188 OFFCURVE",
"182 121 OFFCURVE",
"260 121 CURVE SMOOTH",
"316 121 OFFCURVE",
"373 154 OFFCURVE",
"402 243 CURVE",
"427 178 OFFCURVE",
"476 130 OFFCURVE",
"543 130 CURVE SMOOTH",
"577 130 OFFCURVE",
"623 147 OFFCURVE",
"656 189 CURVE",
"656 0 LINE",
"679 -15 LINE",
"682 -13 LINE",
"682 596 LINE",
"806 596 LINE",
"807 598 LINE"
);
}
);
width = 782;
},
{
anchors = (
{
name = bottom;
position = "{771, 0}";
},
{
name = top;
position = "{671, 622}";
}
);
layerId = "E17BEC9D-CAAD-449F-91D9-03766E30097E";
paths = (
{
closed = 1;
nodes = (
"851 622 LINE",
"604 622 LINE",
"604 241 LINE",
"586 225 OFFCURVE",
"565 217 OFFCURVE",
"543 217 CURVE SMOOTH",
"516 217 OFFCURVE",
"495 225 OFFCURVE",
"477 246 CURVE",
"501 311 OFFCURVE",
"513 382 OFFCURVE",
"513 445 CURVE SMOOTH",
"513 547 OFFCURVE",
"477 605 OFFCURVE",
"419 605 CURVE SMOOTH",
"359 605 OFFCURVE",
"327 531 OFFCURVE",
"327 445 CURVE SMOOTH",
"327 396 OFFCURVE",
"337 341 OFFCURVE",
"355 289 CURVE",
"344 224 OFFCURVE",
"302 193 OFFCURVE",
"256 193 CURVE SMOOTH",
"231 193 OFFCURVE",
"212 202 OFFCURVE",
"196 217 CURVE",
"243 262 OFFCURVE",
"263 306 OFFCURVE",
"263 357 CURVE SMOOTH",
"263 433 OFFCURVE",
"219 540 OFFCURVE",
"149 622 CURVE",
"-40 622 LINE",
"-50 602 LINE",
"-10 494 LINE",
"105 494 LINE",
"109 480 OFFCURVE",
"111 466 OFFCURVE",
"111 452 CURVE SMOOTH",
"111 390 OFFCURVE",
"73 338 OFFCURVE",
"29 296 CURVE",
"71 180 OFFCURVE",
"178 57 OFFCURVE",
"297 57 CURVE SMOOTH",
"360 57 OFFCURVE",
"422 91 OFFCURVE",
"448 145 CURVE",
"478 98 OFFCURVE",
"517 77 OFFCURVE",
"568 77 CURVE SMOOTH",
"581 77 OFFCURVE",
"593 79 OFFCURVE",
"604 82 CURVE",
"604 20 LINE",
"751 -50 LINE",
"771 -40 LINE",
"771 494 LINE",
"881 494 LINE",
"891 514 LINE"
);
}
);
width = 841;
},
{
anchors = (
{
name = bottom;
position = "{717, 0}";
},
{
name = top;
position = "{669, 622}";
}
);
layerId = "7DD510ED-E696-4B04-90C7-292E6BE56412";
paths = (
{
closed = 1;
nodes = (
"818 622 LINE",
"635 622 LINE",
"635 237 LINE",
"610 200 OFFCURVE",
"575 182 OFFCURVE",
"542 182 CURVE SMOOTH",
"487 182 OFFCURVE",
"458 218 OFFCURVE",
"438 265 CURVE",
"454 326 OFFCURVE",
"464 410 OFFCURVE",
"464 464 CURVE SMOOTH",
"464 546 OFFCURVE",
"449 594 OFFCURVE",
"408 594 CURVE SMOOTH",
"367 594 OFFCURVE",
"352 538 OFFCURVE",
"352 462 CURVE SMOOTH",
"352 424 OFFCURVE",
"362 331 OFFCURVE",
"375 287 CURVE",
"359 211 OFFCURVE",
"314 167 OFFCURVE",
"255 167 CURVE SMOOTH",
"205 167 OFFCURVE",
"167 209 OFFCURVE",
"144 254 CURVE",
"192 309 OFFCURVE",
"218 361 OFFCURVE",
"218 418 CURVE SMOOTH",
"218 478 OFFCURVE",
"188 554 OFFCURVE",
"139 622 CURVE",
"-30 622 LINE",
"-35 613 LINE",
"-13 555 LINE",
"115 555 LINE",
"133 522 OFFCURVE",
"141 489 OFFCURVE",
"141 461 CURVE SMOOTH",
"141 396 OFFCURVE",
"103 342 OFFCURVE",
"59 290 CURVE",
"102 185 OFFCURVE",
"180 96 OFFCURVE",
"275 96 CURVE SMOOTH",
"333 96 OFFCURVE",
"392 129 OFFCURVE",
"420 204 CURVE",
"447 146 OFFCURVE",
"492 109 OFFCURVE",
"553 109 CURVE SMOOTH",
"579 109 OFFCURVE",
"611 120 OFFCURVE",
"635 146 CURVE",
"635 8 LINE",
"708 -29 LINE",
"717 -24 LINE",
"717 555 LINE",
"836 555 LINE",
"840 565 LINE"
);
}
);
width = 805;
}
);
leftKerningGroup = khaL;
rightKerningGroup = vert;
unicode = 0A18;
},
{
glyphname = ngaguru;
lastChange = "2020-02-26 20:16:57 +0000";
layers = (
{
anchors = (
{
name = bottom;
position = "{447, 0}";
},
{
name = top;
position = "{393, 622}";
}
);
layerId = "1D4F67F9-897D-45AD-B7F0-CA61A6862C03";
paths = (
{
closed = 1;
nodes = (
"620 598 LINE",
"610 622 LINE",
"-24 622 LINE",
"-25 620 LINE",
"-15 596 LINE",
"118 596 LINE",
"118 418 LINE",
"128 408 LINE",
"333 408 LINE SMOOTH",
"479 408 OFFCURVE",
"513 340 OFFCURVE",
"513 270 CURVE SMOOTH",
"513 208 OFFCURVE",
"486 153 OFFCURVE",
"445 109 CURVE",
"372 184 OFFCURVE",
"299 232 OFFCURVE",
"222 232 CURVE SMOOTH",
"146 232 OFFCURVE",
"89 185 OFFCURVE",
"89 118 CURVE SMOOTH",
"89 53 OFFCURVE",
"144 -11 OFFCURVE",
"246 -11 CURVE SMOOTH",
"321 -11 OFFCURVE",
"393 22 OFFCURVE",
"447 72 CURVE",
"473 45 OFFCURVE",
"499 15 OFFCURVE",
"527 -19 CURVE",
"544 -3 LINE",
"517 30 OFFCURVE",
"491 61 OFFCURVE",
"465 89 CURVE",
"511 139 OFFCURVE",
"541 202 OFFCURVE",
"541 265 CURVE SMOOTH",
"541 338 OFFCURVE",
"502 436 OFFCURVE",
"333 436 CURVE SMOOTH",
"144 436 LINE",
"144 596 LINE",
"619 596 LINE"
);
},
{
closed = 1;
nodes = (
"163 16 OFFCURVE",
"117 61 OFFCURVE",
"117 112 CURVE SMOOTH",
"117 156 OFFCURVE",
"153 203 OFFCURVE",
"227 203 CURVE SMOOTH",
"297 203 OFFCURVE",
"359 162 OFFCURVE",
"428 92 CURVE",
"376 45 OFFCURVE",
"306 16 OFFCURVE",
"242 16 CURVE SMOOTH"
);
}
);
width = 595;
},
{
anchors = (
{
name = bottom;
position = "{500, -43}";
},
{
name = top;
position = "{442, 622}";
}
);
layerId = "E17BEC9D-CAAD-449F-91D9-03766E30097E";
paths = (
{
closed = 1;
nodes = (
"681 514 LINE",
"641 622 LINE",
"-40 622 LINE",
"-50 602 LINE",
"-10 494 LINE",
"82 494 LINE",
"82 339 LINE",
"112 299 LINE",
"326 299 LINE SMOOTH",
"391 299 OFFCURVE",
"448 295 OFFCURVE",
"448 229 CURVE SMOOTH",
"448 207 OFFCURVE",
"441 183 OFFCURVE",
"430 160 CURVE",
"359 224 OFFCURVE",
"289 261 OFFCURVE",
"210 261 CURVE SMOOTH",
"115 261 OFFCURVE",
"46 202 OFFCURVE",
"46 118 CURVE SMOOTH",
"46 -5 OFFCURVE",
"192 -73 OFFCURVE",
"301 -73 CURVE SMOOTH",
"360 -73 OFFCURVE",
"419 -53 OFFCURVE",
"468 -20 CURVE",
"489 -44 OFFCURVE",
"512 -71 OFFCURVE",
"537 -101 CURVE",
"611 -41 LINE",
"586 -10 OFFCURVE",
"561 20 OFFCURVE",
"540 46 CURVE",
"578 93 OFFCURVE",
"601 149 OFFCURVE",
"601 208 CURVE SMOOTH",
"601 330 OFFCURVE",
"500 438 OFFCURVE",
"347 438 CURVE SMOOTH",
"249 438 LINE",
"249 494 LINE",
"671 494 LINE"
);
},
{
closed = 1;
nodes = (
"201 30 OFFCURVE",
"182 58 OFFCURVE",
"182 86 CURVE SMOOTH",
"182 113 OFFCURVE",
"201 142 OFFCURVE",
"248 142 CURVE SMOOTH",
"286 142 OFFCURVE",
"324 123 OFFCURVE",
"369 83 CURVE",
"333 51 OFFCURVE",
"289 30 OFFCURVE",
"248 30 CURVE SMOOTH"
);
}
);
width = 631;
},
{
anchors = (
{
name = bottom;
position = "{468, -17}";
},
{
name = top;
position = "{412, 622}";
}
);
layerId = "7DD510ED-E696-4B04-90C7-292E6BE56412";
paths = (
{
closed = 1;
nodes = (
"644 565 LINE",
"622 622 LINE",
"-30 622 LINE",
"-35 613 LINE",
"-13 555 LINE",
"104 555 LINE",
"104 387 LINE",
"122 365 LINE",
"330 365 LINE SMOOTH",
"444 365 OFFCURVE",
"487 322 OFFCURVE",
"487 254 CURVE SMOOTH",
"487 208 OFFCURVE",
"468 165 OFFCURVE",
"439 129 CURVE",
"367 200 OFFCURVE",
"295 244 OFFCURVE",
"217 244 CURVE SMOOTH",
"134 244 OFFCURVE",
"72 192 OFFCURVE",
"72 118 CURVE SMOOTH",
"72 30 OFFCURVE",
"163 -36 OFFCURVE",
"268 -36 CURVE SMOOTH",
"337 -36 OFFCURVE",
"403 -8 OFFCURVE",
"455 35 CURVE",
"479 10 OFFCURVE",
"504 -19 OFFCURVE",
"531 -52 CURVE",
"571 -18 LINE",
"544 14 OFFCURVE",
"519 45 OFFCURVE",
"495 72 CURVE",
"538 121 OFFCURVE",
"565 181 OFFCURVE",
"565 242 CURVE SMOOTH",
"565 335 OFFCURVE",
"501 437 OFFCURVE",
"339 437 CURVE SMOOTH",
"186 437 LINE",
"186 555 LINE",
"640 555 LINE"
);
},
{
closed = 1;
nodes = (
"178 22 OFFCURVE",
"143 60 OFFCURVE",
"143 102 CURVE SMOOTH",
"143 139 OFFCURVE",
"172 179 OFFCURVE",
"235 179 CURVE SMOOTH",
"293 179 OFFCURVE",
"345 146 OFFCURVE",
"405 88 CURVE",
"359 47 OFFCURVE",
"299 22 OFFCURVE",
"244 22 CURVE SMOOTH"
);
}
);
width = 609;
}
);
leftKerningGroup = ngaL;
rightKerningGroup = ngaR;
unicode = 0A19;
},
{
glyphname = caguru;
lastChange = "2020-02-26 20:16:57 +0000";
layers = (
{
anchors = (
{
name = bottom;
position = "{468, 0}";
},
{
name = top;
position = "{460, 622}";
}
);
layerId = "1D4F67F9-897D-45AD-B7F0-CA61A6862C03";
paths = (
{
closed = 1;
nodes = (
"590 622 LINE",
"-34 622 LINE",
"-35 620 LINE",
"-25 596 LINE",
"449 596 LINE",
"449 364 LINE",
"141 364 LINE",
"141 391 LINE SMOOTH",
"141 417 OFFCURVE",
"132 427 OFFCURVE",
"120 427 CURVE SMOOTH",
"95 427 OFFCURVE",
"58 386 OFFCURVE",
"58 359 CURVE SMOOTH",
"58 346 OFFCURVE",
"66 335 OFFCURVE",
"93 335 CURVE SMOOTH",
"109 335 LINE",
"135 167 OFFCURVE",
"235 -11 OFFCURVE",
"369 -11 CURVE SMOOTH",
"435 -11 OFFCURVE",
"475 32 OFFCURVE",
"475 150 CURVE SMOOTH",
"475 596 LINE",
"599 596 LINE",
"600 598 LINE"
);
},
{
closed = 1;
nodes = (
"265 16 OFFCURVE",
"162 155 OFFCURVE",
"139 338 CURVE",
"449 338 LINE",
"449 163 LINE SMOOTH",
"449 75 OFFCURVE",
"431 16 OFFCURVE",
"366 16 CURVE SMOOTH"
);
}
);
width = 575;
},
{
anchors = (
{
name = bottom;
position = "{581, -43}";
},
{
name = top;
position = "{491, 622}";
}
);
layerId = "E17BEC9D-CAAD-449F-91D9-03766E30097E";
paths = (
{
closed = 1;
nodes = (
"671 622 LINE",
"-40 622 LINE",
"-50 602 LINE",
"-10 494 LINE",
"424 494 LINE",
"424 355 LINE",
"255 355 LINE",
"255 371 LINE SMOOTH",
"255 410 OFFCURVE",
"242 440 OFFCURVE",
"205 440 CURVE SMOOTH",
"134 440 OFFCURVE",
"26 347 OFFCURVE",
"26 279 CURVE SMOOTH",
"26 244 OFFCURVE",
"58 226 OFFCURVE",
"96 226 CURVE SMOOTH",
"99 226 LINE",
"127 78 OFFCURVE",
"270 -68 OFFCURVE",
"427 -68 CURVE SMOOTH",
"541 -68 OFFCURVE",
"591 4 OFFCURVE",
"591 158 CURVE SMOOTH",
"591 494 LINE",
"701 494 LINE",
"711 514 LINE"
);
},
{
closed = 1;
nodes = (
"299 48 OFFCURVE",
"263 154 OFFCURVE",
"258 248 CURVE",
"424 248 LINE",
"424 142 LINE SMOOTH",
"424 71 OFFCURVE",
"404 48 OFFCURVE",
"360 48 CURVE SMOOTH"
);
}
);
width = 661;
},
{
anchors = (
{
name = bottom;
position = "{513, -17}";
},
{
name = top;
position = "{472, 622}";
}
);
layerId = "7DD510ED-E696-4B04-90C7-292E6BE56412";
paths = (
{
closed = 1;
nodes = (
"622 622 LINE",
"-36 622 LINE",
"-41 613 LINE",
"-19 555 LINE",
"439 555 LINE",
"439 360 LINE",
"186 360 LINE",
"186 383 LINE SMOOTH",
"186 414 OFFCURVE",
"176 432 OFFCURVE",
"154 432 CURVE SMOOTH",
"111 432 OFFCURVE",
"45 370 OFFCURVE",
"45 327 CURVE SMOOTH",
"45 305 OFFCURVE",
"63 292 OFFCURVE",
"94 292 CURVE SMOOTH",
"105 292 LINE",
"132 132 OFFCURVE",
"249 -34 OFFCURVE",
"392 -34 CURVE SMOOTH",
"477 -34 OFFCURVE",
"521 21 OFFCURVE",
"521 153 CURVE SMOOTH",
"521 555 LINE",
"640 555 LINE",
"644 565 LINE"
);
},
{
closed = 1;
nodes = (
"279 29 OFFCURVE",
"202 155 OFFCURVE",
"186 302 CURVE",
"439 302 LINE",
"439 155 LINE SMOOTH",
"439 73 OFFCURVE",
"420 29 OFFCURVE",
"364 29 CURVE SMOOTH"
);
}
);
width = 609;
}
);
leftKerningGroup = caL;
rightKerningGroup = caR;
unicode = 0A1A;
},
{
glyphname = chaguru;
lastChange = "2020-02-26 20:16:57 +0000";
layers = (
{
anchors = (
{
name = bottom;
position = "{467, 0}";
},
{
name = top;
position = "{518, 622}";
}
);
layerId = "1D4F67F9-897D-45AD-B7F0-CA61A6862C03";
paths = (
{
closed = 1;
nodes = (
"509 446 LINE",
"523 460 LINE",
"523 596 LINE",
"659 596 LINE",
"660 598 LINE",
"650 622 LINE",
"-24 622 LINE",
"-25 620 LINE",
"-15 596 LINE",
"497 596 LINE",
"497 472 LINE",
"250 472 LINE SMOOTH",
"128 472 OFFCURVE",
"75 426 OFFCURVE",
"75 357 CURVE SMOOTH",
"75 305 OFFCURVE",
"105 265 OFFCURVE",
"151 239 CURVE",
"99 213 OFFCURVE",
"77 176 OFFCURVE",
"77 133 CURVE SMOOTH",
"77 38 OFFCURVE",
"181 -20 OFFCURVE",
"338 -20 CURVE SMOOTH",
"485 -20 OFFCURVE",
"577 31 OFFCURVE",
"577 130 CURVE SMOOTH",
"577 206 OFFCURVE",
"525 274 OFFCURVE",
"345 274 CURVE SMOOTH",
"287 274 OFFCURVE",
"217 266 OFFCURVE",
"175 249 CURVE",
"134 268 OFFCURVE",
"103 303 OFFCURVE",
"103 351 CURVE SMOOTH",
"103 411 OFFCURVE",
"151 446 OFFCURVE",
"252 446 CURVE SMOOTH"
);
},
{
closed = 1;
nodes = (
"491 243 OFFCURVE",
"552 201 OFFCURVE",
"552 131 CURVE SMOOTH",
"552 63 OFFCURVE",
"494 13 OFFCURVE",
"368 5 CURVE",
"332 42 OFFCURVE",
"315 87 OFFCURVE",
"315 127 CURVE SMOOTH",
"315 190 OFFCURVE",
"355 243 OFFCURVE",
"426 243 CURVE SMOOTH"
);
},
{
closed = 1;
nodes = (
"104 212 OFFCURVE",
"201 253 OFFCURVE",
"370 253 CURVE",
"318 235 OFFCURVE",
"292 184 OFFCURVE",
"292 129 CURVE SMOOTH",
"292 85 OFFCURVE",
"310 40 OFFCURVE",
"343 5 CURVE",
"335 5 LINE SMOOTH",
"178 5 OFFCURVE",
"104 56 OFFCURVE",
"104 129 CURVE SMOOTH"
);
}
);
width = 635;
},
{
anchors = (
{
name = bottom;
position = "{565, -43}";
},
{
name = top;
position = "{508, 622}";
}
);
layerId = "E17BEC9D-CAAD-449F-91D9-03766E30097E";
paths = (
{
closed = 1;
nodes = (
"582 312 LINE",
"612 352 LINE",
"612 494 LINE",
"741 494 LINE",
"751 514 LINE",
"711 622 LINE",
"-40 622 LINE",
"-50 602 LINE",
"-10 494 LINE",
"455 494 LINE",
"455 450 LINE",
"240 450 LINE SMOOTH",
"138 450 OFFCURVE",
"76 403 OFFCURVE",
"76 330 CURVE SMOOTH",
"76 283 OFFCURVE",
"101 247 OFFCURVE",
"139 221 CURVE",
"89 192 OFFCURVE",
"65 149 OFFCURVE",
"65 97 CURVE SMOOTH",
"65 5 OFFCURVE",
"176 -96 OFFCURVE",
"383 -96 CURVE SMOOTH",
"555 -96 OFFCURVE",
"677 -25 OFFCURVE",
"677 90 CURVE SMOOTH",
"677 199 OFFCURVE",
"575 269 OFFCURVE",
"371 269 CURVE SMOOTH",
"318 269 OFFCURVE",
"272 264 OFFCURVE",
"234 256 CURVE",
"226 265 OFFCURVE",
"222 273 OFFCURVE",
"222 282 CURVE SMOOTH",
"222 301 OFFCURVE",
"240 312 OFFCURVE",
"282 312 CURVE SMOOTH"
);
},
{
closed = 1;
nodes = (
"519 155 OFFCURVE",
"538 137 OFFCURVE",
"538 113 CURVE SMOOTH",
"538 73 OFFCURVE",
"487 50 OFFCURVE",
"427 43 CURVE",
"423 55 OFFCURVE",
"421 68 OFFCURVE",
"421 79 CURVE SMOOTH",
"421 120 OFFCURVE",
"445 155 OFFCURVE",
"487 155 CURVE SMOOTH"
);
},
{
closed = 1;
nodes = (
"199 108 OFFCURVE",
"241 144 OFFCURVE",
"305 140 CURVE",
"302 130 OFFCURVE",
"301 118 OFFCURVE",
"301 106 CURVE SMOOTH",
"301 83 OFFCURVE",
"306 58 OFFCURVE",
"316 36 CURVE",
"305 36 LINE SMOOTH",
"228 36 OFFCURVE",
"199 57 OFFCURVE",
"199 80 CURVE SMOOTH"
);
}
);
width = 701;
},
{
anchors = (
{
name = bottom;
position = "{506, -17}";
},
{
name = top;
position = "{514, 622}";
}
);
layerId = "7DD510ED-E696-4B04-90C7-292E6BE56412";
paths = (
{
closed = 1;
nodes = (
"538 393 LINE",
"558 417 LINE",
"558 555 LINE",
"692 555 LINE",
"696 565 LINE",
"674 622 LINE",
"-30 622 LINE",
"-35 613 LINE",
"-13 555 LINE",
"480 555 LINE",
"480 463 LINE",
"246 463 LINE SMOOTH",
"132 463 OFFCURVE",
"75 417 OFFCURVE",
"75 346 CURVE SMOOTH",
"75 296 OFFCURVE",
"103 258 OFFCURVE",
"146 232 CURVE",
"95 205 OFFCURVE",
"72 165 OFFCURVE",
"72 119 CURVE SMOOTH",
"72 25 OFFCURVE",
"179 -50 OFFCURVE",
"356 -50 CURVE SMOOTH",
"513 -50 OFFCURVE",
"617 9 OFFCURVE",
"617 114 CURVE SMOOTH",
"617 203 OFFCURVE",
"545 272 OFFCURVE",
"355 272 CURVE SMOOTH",
"299 272 OFFCURVE",
"239 265 OFFCURVE",
"198 252 CURVE",
"171 267 OFFCURVE",
"150 291 OFFCURVE",
"150 324 CURVE SMOOTH",
"150 367 OFFCURVE",
"186 393 OFFCURVE",
"264 393 CURVE SMOOTH"
);
},
{
closed = 1;
nodes = (
"502 208 OFFCURVE",
"546 176 OFFCURVE",
"546 124 CURVE SMOOTH",
"546 67 OFFCURVE",
"491 28 OFFCURVE",
"391 20 CURVE",
"368 47 OFFCURVE",
"357 79 OFFCURVE",
"357 108 CURVE SMOOTH",
"357 162 OFFCURVE",
"391 208 OFFCURVE",
"450 208 CURVE SMOOTH"
);
},
{
closed = 1;
nodes = (
"142 171 OFFCURVE",
"217 210 OFFCURVE",
"344 208 CURVE",
"312 193 OFFCURVE",
"296 158 OFFCURVE",
"296 120 CURVE SMOOTH",
"296 84 OFFCURVE",
"308 47 OFFCURVE",
"332 17 CURVE",
"323 17 LINE SMOOTH",
"198 17 OFFCURVE",
"142 56 OFFCURVE",
"142 110 CURVE SMOOTH"
);
}
);
width = 661;
}
);
leftKerningGroup = chaL;
rightKerningGroup = chaR;
unicode = 0A1B;
},
{
glyphname = jaguru;
lastChange = "2020-02-26 20:16:57 +0000";
layers = (
{
anchors = (
{
name = bottom;
position = "{470, 0}";
},
{
name = top;
position = "{455, 622}";
}
);
layerId = "1D4F67F9-897D-45AD-B7F0-CA61A6862C03";
paths = (
{
closed = 1;
nodes = (
"585 622 LINE",
"-24 622 LINE",
"-25 620 LINE",
"-15 596 LINE",
"444 596 LINE",
"444 344 LINE",
"159 344 LINE",
"159 371 LINE SMOOTH",
"159 397 OFFCURVE",
"150 407 OFFCURVE",
"138 407 CURVE SMOOTH",
"113 407 OFFCURVE",
"76 366 OFFCURVE",
"76 339 CURVE SMOOTH",
"76 326 OFFCURVE",
"84 315 OFFCURVE",
"111 315 CURVE SMOOTH",
"128 315 LINE",
"128 181 LINE SMOOTH",
"128 106 OFFCURVE",
"113 50 OFFCURVE",
"63 9 CURVE",
"63 6 LINE",
"83 -13 LINE",
"130 29 OFFCURVE",
"154 79 OFFCURVE",
"154 178 CURVE SMOOTH",
"154 318 LINE",
"444 318 LINE",
"444 0 LINE",
"467 -15 LINE",
"470 -13 LINE",
"470 596 LINE",
"594 596 LINE",
"595 598 LINE"
);
}
);
width = 570;
},
{
anchors = (
{
name = bottom;
position = "{581, 0}";
},
{
name = top;
position = "{481, 622}";
}
);
layerId = "E17BEC9D-CAAD-449F-91D9-03766E30097E";
paths = (
{
closed = 1;
nodes = (
"661 622 LINE",
"-40 622 LINE",
"-50 602 LINE",
"-10 494 LINE",
"414 494 LINE",
"414 342 LINE",
"278 342 LINE",
"278 374 LINE SMOOTH",
"278 413 OFFCURVE",
"261 443 OFFCURVE",
"224 443 CURVE SMOOTH",
"153 443 OFFCURVE",
"37 344 OFFCURVE",
"37 276 CURVE SMOOTH",
"37 241 OFFCURVE",
"69 223 OFFCURVE",
"107 223 CURVE SMOOTH",
"126 223 LINE",
"126 186 LINE SMOOTH",
"126 128 OFFCURVE",
"103 84 OFFCURVE",
"49 50 CURVE",
"49 30 LINE",
"161 -56 LINE",
"235 -15 OFFCURVE",
"276 56 OFFCURVE",
"276 161 CURVE SMOOTH",
"276 225 LINE",
"414 225 LINE",
"414 20 LINE",
"561 -50 LINE",
"581 -40 LINE",
"581 494 LINE",
"691 494 LINE",
"701 514 LINE"
);
}
);
width = 651;
},
{
anchors = (
{
name = bottom;
position = "{514, 0}";
},
{
name = top;
position = "{465, 622}";
}
);
layerId = "7DD510ED-E696-4B04-90C7-292E6BE56412";
paths = (
{
closed = 1;
nodes = (
"615 622 LINE",
"-30 622 LINE",
"-35 613 LINE",
"-13 555 LINE",
"432 555 LINE",
"432 343 LINE",
"206 343 LINE",
"206 372 LINE SMOOTH",
"206 403 OFFCURVE",
"194 421 OFFCURVE",
"172 421 CURVE SMOOTH",
"129 421 OFFCURVE",
"60 357 OFFCURVE",
"60 314 CURVE SMOOTH",
"60 292 OFFCURVE",
"78 278 OFFCURVE",
"109 278 CURVE SMOOTH",
"127 278 LINE",
"127 183 LINE SMOOTH",
"127 115 OFFCURVE",
"109 64 OFFCURVE",
"57 25 CURVE",
"57 16 LINE",
"114 -30 LINE",
"172 12 OFFCURVE",
"203 70 OFFCURVE",
"203 171 CURVE SMOOTH",
"203 281 LINE",
"432 281 LINE",
"432 8 LINE",
"504 -29 LINE",
"514 -24 LINE",
"514 555 LINE",
"633 555 LINE",
"637 565 LINE"
);
}
);
width = 602;
}
);
leftKerningGroup = jaL;
rightKerningGroup = vert;
unicode = 0A1C;
},
{
glyphname = jhaguru;
lastChange = "2020-02-26 20:16:57 +0000";
layers = (
{
anchors = (
{
name = bottom;
position = "{421, -9}";
},
{
name = top;
position = "{472, 622}";
}
);
layerId = "1D4F67F9-897D-45AD-B7F0-CA61A6862C03";
paths = (
{
closed = 1;
nodes = (
"585 596 LINE",
"586 598 LINE",
"576 622 LINE",
"-24 622 LINE",
"-25 620 LINE",
"-15 596 LINE",
"87 596 LINE",
"92 479 OFFCURVE",
"142 396 OFFCURVE",
"224 365 CURVE",
"177 362 OFFCURVE",
"123 349 OFFCURVE",
"72 331 CURVE",
"79 308 LINE",
"82 307 LINE",
"162 335 OFFCURVE",
"233 345 OFFCURVE",
"286 345 CURVE SMOOTH",
"407 345 OFFCURVE",
"483 294 OFFCURVE",
"483 214 CURVE SMOOTH",
"483 133 OFFCURVE",
"396 80 OFFCURVE",
"275 71 CURVE",
"228 114 OFFCURVE",
"174 158 OFFCURVE",
"131 158 CURVE SMOOTH",
"107 158 OFFCURVE",
"94 144 OFFCURVE",
"94 127 CURVE SMOOTH",
"94 81 OFFCURVE",
"187 48 OFFCURVE",
"265 45 CURVE",
"315 11 OFFCURVE",
"363 -33 OFFCURVE",
"403 -71 CURVE",
"421 -53 LINE",
"379 -14 OFFCURVE",
"335 24 OFFCURVE",
"300 49 CURVE",
"424 63 OFFCURVE",
"509 123 OFFCURVE",
"509 212 CURVE SMOOTH",
"509 291 OFFCURVE",
"448 340 OFFCURVE",
"360 362 CURVE",
"452 396 OFFCURVE",
"484 480 OFFCURVE",
"487 596 CURVE"
);
},
{
closed = 1;
nodes = (
"188 370 OFFCURVE",
"112 465 OFFCURVE",
"115 596 CURVE",
"460 596 LINE",
"464 472 OFFCURVE",
"405 370 OFFCURVE",
"294 370 CURVE SMOOTH"
);
}
);
width = 561;
},
{
anchors = (
{
name = bottom;
position = "{544, -75}";
},
{
name = top;
position = "{512, 622}";
}
);
layerId = "E17BEC9D-CAAD-449F-91D9-03766E30097E";
paths = (
{
closed = 1;
nodes = (
"701 494 LINE",
"711 514 LINE",
"671 622 LINE",
"-40 622 LINE",
"-50 602 LINE",
"-10 494 LINE",
"69 494 LINE",
"87 424 OFFCURVE",
"126 382 OFFCURVE",
"172 360 CURVE",
"128 355 OFFCURVE",
"86 348 OFFCURVE",
"55 341 CURVE",
"79 206 LINE",
"96 193 LINE",
"173 213 OFFCURVE",
"267 228 OFFCURVE",
"347 228 CURVE SMOOTH",
"422 228 OFFCURVE",
"481 215 OFFCURVE",
"481 174 CURVE SMOOTH",
"481 130 OFFCURVE",
"413 97 OFFCURVE",
"314 93 CURVE",
"271 132 OFFCURVE",
"230 155 OFFCURVE",
"181 155 CURVE SMOOTH",
"126 155 OFFCURVE",
"84 126 OFFCURVE",
"84 73 CURVE SMOOTH",
"84 -21 OFFCURVE",
"216 -58 OFFCURVE",
"313 -59 CURVE",
"368 -101 OFFCURVE",
"428 -163 OFFCURVE",
"467 -205 CURVE",
"531 -143 LINE",
"502 -113 OFFCURVE",
"463 -75 OFFCURVE",
"424 -42 CURVE",
"529 -30 OFFCURVE",
"613 43 OFFCURVE",
"613 145 CURVE SMOOTH",
"613 230 OFFCURVE",
"554 302 OFFCURVE",
"476 339 CURVE",
"536 359 OFFCURVE",
"585 406 OFFCURVE",
"604 494 CURVE"
);
},
{
closed = 1;
nodes = (
"274 368 OFFCURVE",
"235 409 OFFCURVE",
"228 494 CURVE",
"433 494 LINE",
"423 412 OFFCURVE",
"395 368 OFFCURVE",
"335 368 CURVE SMOOTH"
);
}
);
width = 661;
},
{
anchors = (
{
name = bottom;
position = "{470, -35}";
},
{
name = top;
position = "{488, 622}";
}
);
layerId = "7DD510ED-E696-4B04-90C7-292E6BE56412";
paths = (
{
closed = 1;
nodes = (
"631 555 LINE",
"636 565 LINE",
"614 622 LINE",
"-30 622 LINE",
"-35 613 LINE",
"-13 555 LINE",
"80 555 LINE",
"90 457 OFFCURVE",
"136 390 OFFCURVE",
"203 363 CURVE",
"158 359 OFFCURVE",
"108 349 OFFCURVE",
"65 335 CURVE",
"79 267 LINE",
"88 262 LINE",
"166 286 OFFCURVE",
"247 298 OFFCURVE",
"310 298 CURVE SMOOTH",
"413 298 OFFCURVE",
"482 263 OFFCURVE",
"482 198 CURVE SMOOTH",
"482 132 OFFCURVE",
"403 87 OFFCURVE",
"291 80 CURVE",
"245 121 OFFCURVE",
"196 157 OFFCURVE",
"151 157 CURVE SMOOTH",
"115 157 OFFCURVE",
"90 137 OFFCURVE",
"90 106 CURVE SMOOTH",
"90 40 OFFCURVE",
"199 6 OFFCURVE",
"284 4 CURVE",
"336 -34 OFFCURVE",
"389 -85 OFFCURVE",
"428 -124 CURVE",
"465 -89 LINE",
"428 -53 OFFCURVE",
"386 -15 OFFCURVE",
"349 13 CURVE",
"466 26 OFFCURVE",
"550 91 OFFCURVE",
"550 185 CURVE SMOOTH",
"550 267 OFFCURVE",
"490 325 OFFCURVE",
"406 353 CURVE",
"485 381 OFFCURVE",
"524 451 OFFCURVE",
"534 555 CURVE"
);
},
{
closed = 1;
nodes = (
"222 369 OFFCURVE",
"161 443 OFFCURVE",
"160 555 CURVE",
"449 555 LINE",
"448 448 OFFCURVE",
"401 369 OFFCURVE",
"310 369 CURVE SMOOTH"
);
}
);
width = 601;
}
);
leftKerningGroup = jhaL;
rightKerningGroup = jhaR;
unicode = 0A1D;
},
{
glyphname = nyaguru;
lastChange = "2020-02-26 20:16:57 +0000";
layers = (
{
anchors = (
{
name = bottom;
position = "{517, 0}";
},
{
name = top;
position = "{498, 622}";
}
);
layerId = "1D4F67F9-897D-45AD-B7F0-CA61A6862C03";
paths = (
{
closed = 1;
nodes = (
"499 426 LINE",
"513 440 LINE",
"513 596 LINE",
"634 596 LINE",
"635 598 LINE",
"625 622 LINE",
"-24 622 LINE",
"-25 620 LINE",
"-15 596 LINE",
"94 596 LINE",
"109 536 OFFCURVE",
"147 479 OFFCURVE",
"218 451 CURVE",
"113 444 OFFCURVE",
"67 397 OFFCURVE",
"67 335 CURVE SMOOTH",
"67 267 OFFCURVE",
"124 221 OFFCURVE",
"220 209 CURVE",
"213 190 OFFCURVE",
"208 168 OFFCURVE",
"208 146 CURVE SMOOTH",
"208 72 OFFCURVE",
"261 0 OFFCURVE",
"417 0 CURVE SMOOTH",
"538 0 LINE",
"539 2 LINE",
"530 27 LINE",
"407 27 LINE SMOOTH",
"293 27 OFFCURVE",
"234 67 OFFCURVE",
"234 141 CURVE SMOOTH",
"234 162 OFFCURVE",
"238 183 OFFCURVE",
"246 206 CURVE",
"517 206 LINE",
"518 208 LINE",
"509 232 LINE",
"265 232 LINE SMOOTH",
"170 232 OFFCURVE",
"94 261 OFFCURVE",
"94 332 CURVE SMOOTH",
"94 390 OFFCURVE",
"145 426 OFFCURVE",
"250 426 CURVE SMOOTH"
);
},
{
closed = 1;
nodes = (
"487 452 LINE",
"317 452 LINE SMOOTH",
"197 452 OFFCURVE",
"142 518 OFFCURVE",
"124 596 CURVE",
"487 596 LINE"
);
}
);
width = 610;
},
{
anchors = (
{
name = bottom;
position = "{564, -43}";
},
{
name = top;
position = "{478, 622}";
}
);
layerId = "E17BEC9D-CAAD-449F-91D9-03766E30097E";
paths = (
{
closed = 1;
nodes = (
"548 282 LINE",
"578 322 LINE",
"578 494 LINE",
"691 494 LINE",
"701 514 LINE",
"661 622 LINE",
"-40 622 LINE",
"-50 602 LINE",
"-10 494 LINE",
"57 494 LINE",
"72 460 OFFCURVE",
"99 431 OFFCURVE",
"142 411 CURVE",
"62 401 OFFCURVE",
"21 354 OFFCURVE",
"21 290 CURVE SMOOTH",
"21 201 OFFCURVE",
"105 129 OFFCURVE",
"192 106 CURVE",
"191 102 OFFCURVE",
"190 94 OFFCURVE",
"190 88 CURVE SMOOTH",
"190 -17 OFFCURVE",
"271 -93 OFFCURVE",
"401 -93 CURVE SMOOTH",
"584 -93 LINE",
"594 -73 LINE",
"551 56 LINE",
"349 56 LINE SMOOTH",
"318 56 OFFCURVE",
"304 61 OFFCURVE",
"304 80 CURVE SMOOTH",
"304 86 OFFCURVE",
"306 93 OFFCURVE",
"310 99 CURVE",
"561 99 LINE",
"571 119 LINE",
"532 232 LINE",
"216 232 LINE SMOOTH",
"172 232 OFFCURVE",
"159 241 OFFCURVE",
"159 257 CURVE SMOOTH",
"159 272 OFFCURVE",
"172 282 OFFCURVE",
"212 282 CURVE SMOOTH"
);
},
{
closed = 1;
nodes = (
"421 413 LINE",
"353 413 LINE SMOOTH",
"260 413 OFFCURVE",
"227 443 OFFCURVE",
"215 494 CURVE",
"421 494 LINE"
);
}
);
width = 651;
},
{
anchors = (
{
name = bottom;
position = "{536, -17}";
},
{
name = top;
position = "{490, 622}";
}
);
layerId = "7DD510ED-E696-4B04-90C7-292E6BE56412";
paths = (
{
closed = 1;
nodes = (
"518 369 LINE",
"539 393 LINE",
"539 555 LINE",
"657 555 LINE",
"661 565 LINE",
"639 622 LINE",
"-30 622 LINE",
"-35 613 LINE",
"-13 555 LINE",
"79 555 LINE",
"94 506 OFFCURVE",
"128 460 OFFCURVE",
"188 435 CURVE",
"93 427 OFFCURVE",
"49 380 OFFCURVE",
"49 317 CURVE SMOOTH",
"49 241 OFFCURVE",
"116 184 OFFCURVE",
"209 168 CURVE",
"204 155 OFFCURVE",
"201 139 OFFCURVE",
"201 123 CURVE SMOOTH",
"201 37 OFFCURVE",
"265 -37 OFFCURVE",
"411 -37 CURVE SMOOTH",
"556 -37 LINE",
"561 -28 LINE",
"538 39 LINE",
"384 39 LINE SMOOTH",
"303 39 OFFCURVE",
"262 65 OFFCURVE",
"262 117 CURVE SMOOTH",
"262 132 OFFCURVE",
"265 147 OFFCURVE",
"271 163 CURVE",
"534 163 LINE",
"539 173 LINE",
"518 232 LINE",
"246 232 LINE SMOOTH",
"171 232 OFFCURVE",
"120 253 OFFCURVE",
"120 302 CURVE SMOOTH",
"120 343 OFFCURVE",
"156 369 OFFCURVE",
"235 369 CURVE SMOOTH"
);
},
{
closed = 1;
nodes = (
"461 436 LINE",
"331 436 LINE SMOOTH",
"222 436 OFFCURVE",
"176 488 OFFCURVE",
"160 555 CURVE",
"461 555 LINE"
);
}
);
width = 626;
}
);
leftKerningGroup = nyaL;
rightKerningGroup = nyaR;
unicode = 0A1E;
},
{
glyphname = ttaguru;
lastChange = "2020-02-26 20:16:57 +0000";
layers = (
{
anchors = (
{
name = bottom;
position = "{427, 0}";
},
{
name = top;
position = "{386, 622}";
}
);
layerId = "1D4F67F9-897D-45AD-B7F0-CA61A6862C03";
paths = (
{
closed = 1;
nodes = (
"401 378 LINE",
"401 596 LINE",
"549 596 LINE",
"550 598 LINE",
"540 622 LINE",
"-24 622 LINE",
"-25 620 LINE",
"-15 596 LINE",
"375 596 LINE",
"375 395 LINE",
"228 389 OFFCURVE",
"112 340 OFFCURVE",
"27 228 CURVE",
"74 115 OFFCURVE",
"175 -3 OFFCURVE",
"308 -3 CURVE SMOOTH",
"382 -3 OFFCURVE",
"442 34 OFFCURVE",
"483 85 CURVE",
"464 105 LINE",
"460 105 LINE",
"420 56 OFFCURVE",
"364 27 OFFCURVE",
"303 27 CURVE SMOOTH",
"204 27 OFFCURVE",
"109 109 OFFCURVE",
"55 222 CURVE",
"134 320 OFFCURVE",
"237 363 OFFCURVE",
"391 368 CURVE"
);
}
);
width = 525;
},
{
anchors = (
{
name = bottom;
position = "{495, -10}";
},
{
name = top;
position = "{385, 622}";
}
);
layerId = "E17BEC9D-CAAD-449F-91D9-03766E30097E";
paths = (
{
closed = 1;
nodes = (
"485 305 LINE",
"485 494 LINE",
"611 494 LINE",
"621 514 LINE",
"581 622 LINE",
"-40 622 LINE",
"-50 602 LINE",
"-10 494 LINE",
"318 494 LINE",
"318 413 LINE",
"194 399 OFFCURVE",
"80 354 OFFCURVE",
"4 246 CURVE",
"55 64 OFFCURVE",
"207 -55 OFFCURVE",
"346 -55 CURVE SMOOTH",
"433 -55 OFFCURVE",
"508 -25 OFFCURVE",
"564 42 CURVE",
"485 167 LINE",
"460 167 LINE",
"418 126 OFFCURVE",
"354 96 OFFCURVE",
"286 96 CURVE SMOOTH",
"226 96 OFFCURVE",
"182 116 OFFCURVE",
"152 170 CURVE",
"225 250 OFFCURVE",
"335 266 OFFCURVE",
"453 273 CURVE"
);
}
);
width = 571;
},
{
anchors = (
{
name = bottom;
position = "{454, -4}";
},
{
name = top;
position = "{386, 622}";
}
);
layerId = "7DD510ED-E696-4B04-90C7-292E6BE56412";
paths = (
{
closed = 1;
nodes = (
"434 349 LINE",
"434 555 LINE",
"574 555 LINE",
"578 565 LINE",
"556 622 LINE",
"-30 622 LINE",
"-35 613 LINE",
"-13 555 LINE",
"352 555 LINE",
"352 402 LINE",
"214 393 OFFCURVE",
"99 346 OFFCURVE",
"18 235 CURVE",
"66 95 OFFCURVE",
"188 -24 OFFCURVE",
"323 -24 CURVE SMOOTH",
"402 -24 OFFCURVE",
"468 11 OFFCURVE",
"515 68 CURVE",
"472 130 LINE",
"460 130 LINE",
"419 84 OFFCURVE",
"360 54 OFFCURVE",
"296 54 CURVE SMOOTH",
"213 54 OFFCURVE",
"138 112 OFFCURVE",
"94 201 CURVE",
"170 292 OFFCURVE",
"276 324 OFFCURVE",
"416 330 CURVE"
);
}
);
width = 543;
}
);
leftKerningGroup = iriL;
rightKerningGroup = iriR;
unicode = 0A1F;
},
{
glyphname = tthaguru;
lastChange = "2020-02-26 20:16:57 +0000";
layers = (
{
anchors = (
{
name = bottom;
position = "{417, 0}";
},
{
name = top;
position = "{286, 622}";
}
);
layerId = "1D4F67F9-897D-45AD-B7F0-CA61A6862C03";
paths = (
{
closed = 1;
nodes = (
"580 598 LINE",
"570 622 LINE",
"-24 622 LINE",
"-25 620 LINE",
"-15 596 LINE",
"275 596 LINE",
"275 407 LINE",
"149 377 OFFCURVE",
"38 296 OFFCURVE",
"38 178 CURVE SMOOTH",
"38 59 OFFCURVE",
"150 -11 OFFCURVE",
"283 -11 CURVE SMOOTH",
"411 -11 OFFCURVE",
"515 53 OFFCURVE",
"515 171 CURVE SMOOTH",
"515 272 OFFCURVE",
"429 363 OFFCURVE",
"301 406 CURVE",
"301 596 LINE",
"579 596 LINE"
);
},
{
closed = 1;
nodes = (
"488 72 OFFCURVE",
"391 15 OFFCURVE",
"277 15 CURVE SMOOTH",
"154 15 OFFCURVE",
"64 81 OFFCURVE",
"64 177 CURVE SMOOTH",
"64 282 OFFCURVE",
"172 360 OFFCURVE",
"289 383 CURVE",
"389 359 OFFCURVE",
"488 274 OFFCURVE",
"488 173 CURVE SMOOTH"
);
}
);
width = 555;
},
{
anchors = (
{
name = bottom;
position = "{505, -20}";
},
{
name = top;
position = "{335, 622}";
}
);
layerId = "E17BEC9D-CAAD-449F-91D9-03766E30097E";
paths = (
{
closed = 1;
nodes = (
"671 514 LINE",
"631 622 LINE",
"-40 622 LINE",
"-50 602 LINE",
"-10 494 LINE",
"248 494 LINE",
"248 405 LINE",
"106 370 OFFCURVE",
"27 307 OFFCURVE",
"27 195 CURVE SMOOTH",
"27 52 OFFCURVE",
"162 -66 OFFCURVE",
"338 -66 CURVE SMOOTH",
"489 -66 OFFCURVE",
"593 16 OFFCURVE",
"593 139 CURVE SMOOTH",
"593 246 OFFCURVE",
"500 329 OFFCURVE",
"415 369 CURVE",
"415 494 LINE",
"661 494 LINE"
);
},
{
closed = 1;
nodes = (
"460 123 OFFCURVE",
"365 82 OFFCURVE",
"281 82 CURVE SMOOTH",
"195 82 OFFCURVE",
"163 118 OFFCURVE",
"163 162 CURVE SMOOTH",
"163 230 OFFCURVE",
"264 275 OFFCURVE",
"388 282 CURVE",
"439 254 OFFCURVE",
"460 219 OFFCURVE",
"460 184 CURVE SMOOTH"
);
}
);
width = 621;
},
{
anchors = (
{
name = bottom;
position = "{452, -8}";
},
{
name = top;
position = "{305, 622}";
}
);
layerId = "7DD510ED-E696-4B04-90C7-292E6BE56412";
paths = (
{
closed = 1;
nodes = (
"616 565 LINE",
"594 622 LINE",
"-30 622 LINE",
"-35 613 LINE",
"-13 555 LINE",
"264 555 LINE",
"264 406 LINE",
"132 374 OFFCURVE",
"34 300 OFFCURVE",
"34 185 CURVE SMOOTH",
"34 56 OFFCURVE",
"155 -33 OFFCURVE",
"305 -33 CURVE SMOOTH",
"442 -33 OFFCURVE",
"546 38 OFFCURVE",
"546 158 CURVE SMOOTH",
"546 262 OFFCURVE",
"457 349 OFFCURVE",
"346 391 CURVE",
"346 555 LINE",
"612 555 LINE"
);
},
{
closed = 1;
nodes = (
"477 92 OFFCURVE",
"381 42 OFFCURVE",
"279 42 CURVE SMOOTH",
"170 42 OFFCURVE",
"103 96 OFFCURVE",
"103 171 CURVE SMOOTH",
"103 261 OFFCURVE",
"209 326 OFFCURVE",
"328 343 CURVE",
"409 317 OFFCURVE",
"477 252 OFFCURVE",
"477 177 CURVE SMOOTH"
);
}
);
width = 581;
}
);
leftKerningGroup = tthaL;
rightKerningGroup = tthaR;
unicode = 0A20;
},
{
glyphname = ddaguru;
lastChange = "2020-02-26 20:16:57 +0000";
layers = (
{
anchors = (
{
name = bottom;
position = "{377, 0}";
},
{
name = top;
position = "{393, 622}";
}
);
layerId = "1D4F67F9-897D-45AD-B7F0-CA61A6862C03";
paths = (
{
closed = 1;
nodes = (
"550 622 LINE",
"-24 622 LINE",
"-25 620 LINE",
"-15 596 LINE",
"383 596 LINE",
"390 576 OFFCURVE",
"394 555 OFFCURVE",
"394 536 CURVE SMOOTH",
"394 471 OFFCURVE",
"355 417 OFFCURVE",
"312 398 CURVE",
"276 412 OFFCURVE",
"225 419 OFFCURVE",
"173 419 CURVE SMOOTH",
"120 419 OFFCURVE",
"74 408 OFFCURVE",
"74 384 CURVE SMOOTH",
"74 361 OFFCURVE",
"115 350 OFFCURVE",
"167 350 CURVE SMOOTH",
"214 350 OFFCURVE",
"260 356 OFFCURVE",
"304 371 CURVE",
"390 337 OFFCURVE",
"437 267 OFFCURVE",
"437 190 CURVE SMOOTH",
"437 153 OFFCURVE",
"426 121 OFFCURVE",
"407 95 CURVE",
"331 203 OFFCURVE",
"241 239 OFFCURVE",
"170 239 CURVE SMOOTH",
"88 239 OFFCURVE",
"29 190 OFFCURVE",
"29 125 CURVE SMOOTH",
"29 44 OFFCURVE",
"119 -11 OFFCURVE",
"228 -11 CURVE SMOOTH",
"358 -11 OFFCURVE",
"463 66 OFFCURVE",
"463 188 CURVE SMOOTH",
"463 275 OFFCURVE",
"410 344 OFFCURVE",
"332 386 CURVE",
"387 417 OFFCURVE",
"419 469 OFFCURVE",
"419 536 CURVE SMOOTH",
"419 555 OFFCURVE",
"416 575 OFFCURVE",
"411 596 CURVE",
"559 596 LINE",
"560 598 LINE"
);
},
{
closed = 1;
nodes = (
"117 15 OFFCURVE",
"56 60 OFFCURVE",
"56 120 CURVE SMOOTH",
"56 173 OFFCURVE",
"103 212 OFFCURVE",
"177 212 CURVE SMOOTH",
"250 212 OFFCURVE",
"328 174 OFFCURVE",
"394 79 CURVE",
"356 38 OFFCURVE",
"296 15 OFFCURVE",
"221 15 CURVE SMOOTH"
);
}
);
width = 535;
},
{
anchors = (
{
name = bottom;
position = "{535, -20}";
},
{
name = top;
position = "{455, 622}";
}
);
layerId = "E17BEC9D-CAAD-449F-91D9-03766E30097E";
paths = (
{
closed = 1;
nodes = (
"651 622 LINE",
"-40 622 LINE",
"-50 602 LINE",
"-10 494 LINE",
"391 494 LINE",
"394 481 OFFCURVE",
"396 468 OFFCURVE",
"396 455 CURVE SMOOTH",
"396 433 OFFCURVE",
"390 412 OFFCURVE",
"373 395 CURVE",
"329 418 OFFCURVE",
"264 431 OFFCURVE",
"204 431 CURVE SMOOTH",
"134 431 OFFCURVE",
"79 413 OFFCURVE",
"79 358 CURVE SMOOTH",
"79 297 OFFCURVE",
"148 279 OFFCURVE",
"228 279 CURVE SMOOTH",
"271 279 OFFCURVE",
"334 284 OFFCURVE",
"376 297 CURVE",
"423 278 OFFCURVE",
"452 230 OFFCURVE",
"452 177 CURVE SMOOTH",
"452 161 OFFCURVE",
"449 146 OFFCURVE",
"444 132 CURVE",
"374 223 OFFCURVE",
"293 261 OFFCURVE",
"213 261 CURVE SMOOTH",
"103 261 OFFCURVE",
"46 189 OFFCURVE",
"46 120 CURVE SMOOTH",
"46 22 OFFCURVE",
"147 -68 OFFCURVE",
"322 -68 CURVE SMOOTH",
"471 -68 OFFCURVE",
"599 11 OFFCURVE",
"599 151 CURVE SMOOTH",
"599 244 OFFCURVE",
"543 314 OFFCURVE",
"472 351 CURVE",
"524 382 OFFCURVE",
"559 427 OFFCURVE",
"559 480 CURVE SMOOTH",
"559 484 OFFCURVE",
"558 491 OFFCURVE",
"557 494 CURVE",
"681 494 LINE",
"691 514 LINE"
);
},
{
closed = 1;
nodes = (
"225 35 OFFCURVE",
"193 59 OFFCURVE",
"193 87 CURVE SMOOTH",
"193 116 OFFCURVE",
"211 143 OFFCURVE",
"258 143 CURVE SMOOTH",
"301 143 OFFCURVE",
"349 119 OFFCURVE",
"393 70 CURVE",
"360 47 OFFCURVE",
"316 35 OFFCURVE",
"271 35 CURVE SMOOTH"
);
}
);
width = 641;
},
{
anchors = (
{
name = bottom;
position = "{440, -8}";
},
{
name = top;
position = "{418, 622}";
}
);
layerId = "7DD510ED-E696-4B04-90C7-292E6BE56412";
paths = (
{
closed = 1;
nodes = (
"590 622 LINE",
"-30 622 LINE",
"-35 613 LINE",
"-13 555 LINE",
"386 555 LINE",
"392 538 OFFCURVE",
"395 520 OFFCURVE",
"395 504 CURVE SMOOTH",
"395 456 OFFCURVE",
"369 415 OFFCURVE",
"336 397 CURVE",
"297 414 OFFCURVE",
"241 424 OFFCURVE",
"185 424 CURVE SMOOTH",
"126 424 OFFCURVE",
"76 410 OFFCURVE",
"76 374 CURVE SMOOTH",
"76 336 OFFCURVE",
"128 322 OFFCURVE",
"191 322 CURVE SMOOTH",
"237 322 OFFCURVE",
"289 327 OFFCURVE",
"333 342 CURVE",
"403 314 OFFCURVE",
"443 252 OFFCURVE",
"443 185 CURVE SMOOTH",
"443 156 OFFCURVE",
"435 131 OFFCURVE",
"422 110 CURVE",
"348 211 OFFCURVE",
"262 248 OFFCURVE",
"187 248 CURVE SMOOTH",
"94 248 OFFCURVE",
"36 190 OFFCURVE",
"36 123 CURVE SMOOTH",
"36 35 OFFCURVE",
"130 -34 OFFCURVE",
"265 -34 CURVE SMOOTH",
"403 -34 OFFCURVE",
"517 44 OFFCURVE",
"517 173 CURVE SMOOTH",
"517 263 OFFCURVE",
"463 332 OFFCURVE",
"388 372 CURVE",
"441 403 OFFCURVE",
"475 452 OFFCURVE",
"475 514 CURVE SMOOTH",
"475 527 OFFCURVE",
"472 542 OFFCURVE",
"469 555 CURVE",
"608 555 LINE",
"612 565 LINE"
);
},
{
closed = 1;
nodes = (
"160 23 OFFCURVE",
"110 60 OFFCURVE",
"110 107 CURVE SMOOTH",
"110 150 OFFCURVE",
"146 185 OFFCURVE",
"209 185 CURVE SMOOTH",
"270 185 OFFCURVE",
"336 152 OFFCURVE",
"394 75 CURVE",
"358 42 OFFCURVE",
"304 23 OFFCURVE",
"241 23 CURVE SMOOTH"
);
}
);
width = 577;
}
);
leftKerningGroup = ddaL;
rightKerningGroup = ddaR;
unicode = 0A21;
},
{
glyphname = ddhaguru;
lastChange = "2020-02-26 20:16:57 +0000";
layers = (
{
anchors = (
{
name = bottom;
position = "{497, 0}";
},
{
name = top;
position = "{470, 622}";
}
);
layerId = "1D4F67F9-897D-45AD-B7F0-CA61A6862C03";
paths = (
{
closed = 1;
nodes = (
"475 358 LINE",
"485 368 LINE",
"485 596 LINE",
"624 596 LINE",
"625 598 LINE",
"615 622 LINE",
"-24 622 LINE",
"-25 620 LINE",
"-15 596 LINE",
"459 596 LINE",
"459 384 LINE",
"139 384 LINE",
"139 411 LINE SMOOTH",
"139 437 OFFCURVE",
"130 447 OFFCURVE",
"118 447 CURVE SMOOTH",
"93 447 OFFCURVE",
"56 406 OFFCURVE",
"56 379 CURVE SMOOTH",
"56 366 OFFCURVE",
"64 355 OFFCURVE",
"91 355 CURVE SMOOTH",
"109 355 LINE",
"136 195 OFFCURVE",
"223 -11 OFFCURVE",
"403 -11 CURVE SMOOTH",
"497 -11 OFFCURVE",
"551 45 OFFCURVE",
"551 109 CURVE SMOOTH",
"551 172 OFFCURVE",
"497 232 OFFCURVE",
"416 232 CURVE SMOOTH",
"354 232 OFFCURVE",
"277 197 OFFCURVE",
"213 134 CURVE",
"175 194 OFFCURVE",
"150 273 OFFCURVE",
"139 358 CURVE"
);
},
{
closed = 1;
nodes = (
"491 203 OFFCURVE",
"523 158 OFFCURVE",
"523 115 CURVE SMOOTH",
"523 65 OFFCURVE",
"479 16 OFFCURVE",
"399 16 CURVE SMOOTH",
"329 16 OFFCURVE",
"271 53 OFFCURVE",
"228 112 CURVE",
"297 178 OFFCURVE",
"363 203 OFFCURVE",
"418 203 CURVE SMOOTH"
);
}
);
width = 600;
},
{
anchors = (
{
name = bottom;
position = "{585, -20}";
},
{
name = top;
position = "{471, 622}";
}
);
layerId = "E17BEC9D-CAAD-449F-91D9-03766E30097E";
paths = (
{
closed = 1;
nodes = (
"541 289 LINE",
"571 329 LINE",
"571 494 LINE",
"701 494 LINE",
"711 514 LINE",
"671 622 LINE",
"-40 622 LINE",
"-50 602 LINE",
"-10 494 LINE",
"404 494 LINE",
"404 398 LINE",
"236 398 LINE",
"236 403 LINE SMOOTH",
"236 444 OFFCURVE",
"222 472 OFFCURVE",
"185 472 CURVE SMOOTH",
"115 472 OFFCURVE",
"16 371 OFFCURVE",
"16 305 CURVE SMOOTH",
"16 268 OFFCURVE",
"48 251 OFFCURVE",
"86 251 CURVE SMOOTH",
"90 251 LINE",
"121 89 OFFCURVE",
"270 -68 OFFCURVE",
"438 -68 CURVE SMOOTH",
"546 -68 OFFCURVE",
"621 -4 OFFCURVE",
"621 90 CURVE SMOOTH",
"621 176 OFFCURVE",
"558 255 OFFCURVE",
"443 255 CURVE SMOOTH",
"365 255 OFFCURVE",
"307 219 OFFCURVE",
"257 156 CURVE",
"243 190 OFFCURVE",
"236 234 OFFCURVE",
"236 289 CURVE"
);
},
{
closed = 1;
nodes = (
"503 144 OFFCURVE",
"520 133 OFFCURVE",
"520 115 CURVE SMOOTH",
"520 81 OFFCURVE",
"463 57 OFFCURVE",
"403 57 CURVE SMOOTH",
"385 57 OFFCURVE",
"367 59 OFFCURVE",
"352 64 CURVE",
"384 108 OFFCURVE",
"440 144 OFFCURVE",
"480 144 CURVE SMOOTH"
);
}
);
width = 661;
},
{
anchors = (
{
name = bottom;
position = "{532, -8}";
},
{
name = top;
position = "{470, 622}";
}
);
layerId = "7DD510ED-E696-4B04-90C7-292E6BE56412";
paths = (
{
closed = 1;
nodes = (
"501 331 LINE",
"519 352 LINE",
"519 555 LINE",
"655 555 LINE",
"659 565 LINE",
"637 622 LINE",
"-30 622 LINE",
"-35 613 LINE",
"-13 555 LINE",
"437 555 LINE",
"437 390 LINE",
"178 390 LINE",
"178 408 LINE SMOOTH",
"178 440 OFFCURVE",
"167 457 OFFCURVE",
"145 457 CURVE SMOOTH",
"102 457 OFFCURVE",
"40 392 OFFCURVE",
"40 350 CURVE SMOOTH",
"40 327 OFFCURVE",
"58 314 OFFCURVE",
"89 314 CURVE SMOOTH",
"101 314 LINE",
"130 153 OFFCURVE",
"242 -34 OFFCURVE",
"417 -34 CURVE SMOOTH",
"516 -34 OFFCURVE",
"579 26 OFFCURVE",
"579 101 CURVE SMOOTH",
"579 174 OFFCURVE",
"521 241 OFFCURVE",
"427 241 CURVE SMOOTH",
"358 241 OFFCURVE",
"289 206 OFFCURVE",
"230 143 CURVE",
"202 192 OFFCURVE",
"184 257 OFFCURVE",
"178 331 CURVE"
);
},
{
closed = 1;
nodes = (
"496 180 OFFCURVE",
"522 148 OFFCURVE",
"522 115 CURVE SMOOTH",
"522 71 OFFCURVE",
"473 32 OFFCURVE",
"401 32 CURVE SMOOTH",
"351 32 OFFCURVE",
"309 55 OFFCURVE",
"277 93 CURVE",
"332 150 OFFCURVE",
"394 180 OFFCURVE",
"443 180 CURVE SMOOTH"
);
}
);
width = 624;
}
);
leftKerningGroup = caL;
rightKerningGroup = ddhaR;
unicode = 0A22;
},
{
glyphname = nnaguru;
lastChange = "2020-02-26 20:16:57 +0000";
layers = (
{
anchors = (
{
name = bottom;
position = "{447, 0}";
},
{
name = top;
position = "{392, 622}";
}
);
layerId = "1D4F67F9-897D-45AD-B7F0-CA61A6862C03";
paths = (
{
closed = 1;
nodes = (
"600 622 LINE",
"-24 622 LINE",
"-25 620 LINE",
"-15 596 LINE",
"158 596 LINE",
"205 515 OFFCURVE",
"279 459 OFFCURVE",
"365 429 CURVE",
"365 363 LINE",
"238 363 OFFCURVE",
"112 330 OFFCURVE",
"47 218 CURVE",
"80 113 OFFCURVE",
"192 -3 OFFCURVE",
"325 -3 CURVE SMOOTH",
"406 -3 OFFCURVE",
"465 37 OFFCURVE",
"503 85 CURVE",
"484 105 LINE",
"480 105 LINE",
"441 57 OFFCURVE",
"385 27 OFFCURVE",
"321 27 CURVE SMOOTH",
"229 27 OFFCURVE",
"121 95 OFFCURVE",
"74 213 CURVE",
"134 307 OFFCURVE",
"248 338 OFFCURVE",
"368 338 CURVE SMOOTH",
"391 338 LINE",
"391 420 LINE",
"450 404 OFFCURVE",
"514 399 OFFCURVE",
"578 407 CURVE",
"568 434 LINE",
"410 417 OFFCURVE",
"262 470 OFFCURVE",
"184 596 CURVE",
"609 596 LINE",
"610 598 LINE"
);
}
);
width = 585;
},
{
anchors = (
{
name = bottom;
position = "{515, -20}";
},
{
name = top;
position = "{432, 622}";
}
);
layerId = "E17BEC9D-CAAD-449F-91D9-03766E30097E";
paths = (
{
closed = 1;
nodes = (
"636 622 LINE",
"-40 622 LINE",
"-50 602 LINE",
"-10 494 LINE",
"140 494 LINE",
"171 439 OFFCURVE",
"221 389 OFFCURVE",
"281 350 CURVE",
"281 347 LINE",
"182 341 OFFCURVE",
"94 314 OFFCURVE",
"14 226 CURVE",
"65 44 OFFCURVE",
"217 -65 OFFCURVE",
"357 -65 CURVE SMOOTH",
"417 -65 OFFCURVE",
"495 -46 OFFCURVE",
"544 12 CURVE",
"479 146 LINE",
"456 146 LINE",
"418 106 OFFCURVE",
"351 82 OFFCURVE",
"293 82 CURVE SMOOTH",
"238 82 OFFCURVE",
"188 100 OFFCURVE",
"160 143 CURVE",
"228 199 OFFCURVE",
"298 213 OFFCURVE",
"408 213 CURVE SMOOTH",
"438 213 LINE",
"438 282 LINE",
"489 270 OFFCURVE",
"541 266 OFFCURVE",
"592 273 CURVE",
"567 432 LINE",
"463 419 OFFCURVE",
"349 419 OFFCURVE",
"266 494 CURVE",
"666 494 LINE",
"676 514 LINE"
);
}
);
width = 626;
},
{
anchors = (
{
name = bottom;
position = "{474, -8}";
},
{
name = top;
position = "{408, 622}";
}
);
layerId = "7DD510ED-E696-4B04-90C7-292E6BE56412";
paths = (
{
closed = 1;
nodes = (
"614 622 LINE",
"-30 622 LINE",
"-35 613 LINE",
"-13 555 LINE",
"151 555 LINE",
"191 485 OFFCURVE",
"256 431 OFFCURVE",
"332 398 CURVE",
"332 357 LINE",
"216 354 OFFCURVE",
"105 324 OFFCURVE",
"34 221 CURVE",
"74 86 OFFCURVE",
"202 -28 OFFCURVE",
"338 -28 CURVE SMOOTH",
"410 -28 OFFCURVE",
"477 4 OFFCURVE",
"519 56 CURVE",
"482 121 LINE",
"470 121 LINE",
"432 76 OFFCURVE",
"371 49 OFFCURVE",
"310 49 CURVE SMOOTH",
"233 49 OFFCURVE",
"148 97 OFFCURVE",
"108 185 CURVE",
"171 264 OFFCURVE",
"268 288 OFFCURVE",
"384 288 CURVE SMOOTH",
"410 288 LINE",
"410 365 LINE",
"466 351 OFFCURVE",
"525 346 OFFCURVE",
"584 354 CURVE",
"568 433 LINE",
"431 418 OFFCURVE",
"297 450 OFFCURVE",
"217 555 CURVE",
"632 555 LINE",
"636 565 LINE"
);
}
);
width = 601;
}
);
leftKerningGroup = iriL;
rightKerningGroup = nnaR;
unicode = 0A23;
},
{
glyphname = taguru;
lastChange = "2020-02-26 20:16:57 +0000";
layers = (
{
anchors = (
{
name = bottom;
position = "{407, 0}";
},
{
name = top;
position = "{423, 622}";
}
);
layerId = "1D4F67F9-897D-45AD-B7F0-CA61A6862C03";
paths = (
{
closed = 1;
nodes = (
"580 622 LINE",
"-24 622 LINE",
"-25 620 LINE",
"-15 596 LINE",
"413 596 LINE",
"422 571 OFFCURVE",
"426 546 OFFCURVE",
"426 522 CURVE SMOOTH",
"426 447 OFFCURVE",
"385 384 OFFCURVE",
"342 365 CURVE",
"306 379 OFFCURVE",
"253 386 OFFCURVE",
"206 386 CURVE SMOOTH",
"148 386 OFFCURVE",
"104 375 OFFCURVE",
"104 351 CURVE SMOOTH",
"104 328 OFFCURVE",
"144 317 OFFCURVE",
"201 317 CURVE SMOOTH",
"243 317 OFFCURVE",
"289 323 OFFCURVE",
"334 338 CURVE",
"417 306 OFFCURVE",
"456 244 OFFCURVE",
"456 180 CURVE SMOOTH",
"456 92 OFFCURVE",
"383 28 OFFCURVE",
"271 28 CURVE SMOOTH",
"192 28 OFFCURVE",
"110 59 OFFCURVE",
"29 131 CURVE",
"27 129 OFFCURVE",
"26 126 OFFCURVE",
"26 123 CURVE SMOOTH",
"26 85 OFFCURVE",
"144 0 OFFCURVE",
"274 0 CURVE SMOOTH",
"394 0 OFFCURVE",
"483 72 OFFCURVE",
"483 177 CURVE SMOOTH",
"483 249 OFFCURVE",
"440 312 OFFCURVE",
"363 353 CURVE",
"418 384 OFFCURVE",
"451 444 OFFCURVE",
"451 521 CURVE SMOOTH",
"451 545 OFFCURVE",
"448 570 OFFCURVE",
"441 596 CURVE",
"589 596 LINE",
"590 598 LINE"
);
}
);
width = 565;
},
{
anchors = (
{
name = bottom;
position = "{485, 0}";
},
{
name = top;
position = "{435, 622}";
}
);
layerId = "E17BEC9D-CAAD-449F-91D9-03766E30097E";
paths = (
{
closed = 1;
nodes = (
"631 622 LINE",
"-40 622 LINE",
"-50 602 LINE",
"-10 494 LINE",
"369 494 LINE",
"372 480 OFFCURVE",
"374 465 OFFCURVE",
"374 450 CURVE SMOOTH",
"374 422 OFFCURVE",
"368 393 OFFCURVE",
"351 371 CURVE",
"307 392 OFFCURVE",
"246 408 OFFCURVE",
"193 408 CURVE SMOOTH",
"123 408 OFFCURVE",
"69 379 OFFCURVE",
"69 319 CURVE SMOOTH",
"69 253 OFFCURVE",
"136 214 OFFCURVE",
"211 214 CURVE SMOOTH",
"261 214 OFFCURVE",
"332 231 OFFCURVE",
"375 257 CURVE",
"398 243 OFFCURVE",
"412 221 OFFCURVE",
"412 194 CURVE SMOOTH",
"412 140 OFFCURVE",
"357 93 OFFCURVE",
"254 93 CURVE SMOOTH",
"167 93 OFFCURVE",
"88 128 OFFCURVE",
"36 176 CURVE",
"27 161 OFFCURVE",
"23 144 OFFCURVE",
"23 128 CURVE SMOOTH",
"23 38 OFFCURVE",
"149 -55 OFFCURVE",
"303 -55 CURVE SMOOTH",
"450 -55 OFFCURVE",
"562 30 OFFCURVE",
"562 151 CURVE SMOOTH",
"562 226 OFFCURVE",
"520 283 OFFCURVE",
"453 323 CURVE",
"513 356 OFFCURVE",
"538 425 OFFCURVE",
"538 489 CURVE SMOOTH",
"538 491 OFFCURVE",
"538 492 OFFCURVE",
"538 494 CURVE",
"661 494 LINE",
"671 514 LINE"
);
}
);
width = 621;
},
{
anchors = (
{
name = bottom;
position = "{438, 0}";
},
{
name = top;
position = "{428, 622}";
}
);
layerId = "7DD510ED-E696-4B04-90C7-292E6BE56412";
paths = (
{
closed = 1;
nodes = (
"600 622 LINE",
"-30 622 LINE",
"-35 613 LINE",
"-13 555 LINE",
"396 555 LINE",
"402 535 OFFCURVE",
"405 514 OFFCURVE",
"405 493 CURVE SMOOTH",
"405 437 OFFCURVE",
"378 388 OFFCURVE",
"346 367 CURVE",
"306 384 OFFCURVE",
"250 395 OFFCURVE",
"201 395 CURVE SMOOTH",
"138 395 OFFCURVE",
"90 377 OFFCURVE",
"90 338 CURVE SMOOTH",
"90 298 OFFCURVE",
"141 276 OFFCURVE",
"205 276 CURVE SMOOTH",
"250 276 OFFCURVE",
"306 286 OFFCURVE",
"350 306 CURVE",
"409 281 OFFCURVE",
"439 235 OFFCURVE",
"439 186 CURVE SMOOTH",
"439 111 OFFCURVE",
"373 54 OFFCURVE",
"264 54 CURVE SMOOTH",
"182 54 OFFCURVE",
"101 86 OFFCURVE",
"32 149 CURVE",
"27 142 OFFCURVE",
"25 133 OFFCURVE",
"25 125 CURVE SMOOTH",
"25 66 OFFCURVE",
"146 -22 OFFCURVE",
"286 -22 CURVE SMOOTH",
"416 -22 OFFCURVE",
"514 55 OFFCURVE",
"514 167 CURVE SMOOTH",
"514 240 OFFCURVE",
"472 300 OFFCURVE",
"399 341 CURVE",
"456 373 OFFCURVE",
"486 436 OFFCURVE",
"486 508 CURVE SMOOTH",
"486 524 OFFCURVE",
"484 539 OFFCURVE",
"480 555 CURVE",
"618 555 LINE",
"622 565 LINE"
);
}
);
width = 587;
}
);
leftKerningGroup = taL;
rightKerningGroup = ddaR;
unicode = 0A24;
},
{
glyphname = thaguru;
lastChange = "2020-02-26 20:16:57 +0000";
layers = (
{
anchors = (
{
name = bottom;
position = "{457, 0}";
},
{
name = top;
position = "{442, 622}";
}
);
layerId = "1D4F67F9-897D-45AD-B7F0-CA61A6862C03";
paths = (
{
closed = 1;
nodes = (
"153 383 LINE",
"433 383 LINE",
"433 409 LINE",
"153 409 LINE"
);
},
{
closed = 1;
nodes = (
"572 622 LINE",
"-44 622 LINE",
"-45 620 LINE",
"-35 596 LINE",
"100 596 LINE",
"128 550 OFFCURVE",
"139 505 OFFCURVE",
"139 464 CURVE SMOOTH",
"139 391 OFFCURVE",
"103 334 OFFCURVE",
"59 286 CURVE",
"99 203 OFFCURVE",
"176 131 OFFCURVE",
"273 131 CURVE SMOOTH",
"325 131 OFFCURVE",
"390 153 OFFCURVE",
"431 212 CURVE",
"431 0 LINE",
"454 -15 LINE",
"457 -13 LINE",
"457 596 LINE",
"581 596 LINE",
"582 598 LINE"
);
},
{
closed = 1;
nodes = (
"398 193 OFFCURVE",
"331 160 OFFCURVE",
"270 160 CURVE SMOOTH",
"187 160 OFFCURVE",
"125 220 OFFCURVE",
"91 279 CURVE",
"138 331 OFFCURVE",
"167 389 OFFCURVE",
"167 456 CURVE SMOOTH",
"167 498 OFFCURVE",
"155 542 OFFCURVE",
"126 596 CURVE",
"431 596 LINE",
"431 265 LINE"
);
}
);
width = 557;
},
{
anchors = (
{
name = bottom;
position = "{591, 0}";
},
{
name = top;
position = "{491, 622}";
}
);
layerId = "E17BEC9D-CAAD-449F-91D9-03766E30097E";
paths = (
{
closed = 1;
nodes = (
"227 303 LINE",
"429 303 LINE",
"429 400 LINE",
"215 400 LINE"
);
},
{
closed = 1;
nodes = (
"671 622 LINE",
"-40 622 LINE",
"-50 602 LINE",
"-10 494 LINE",
"102 494 LINE",
"108 478 OFFCURVE",
"111 462 OFFCURVE",
"111 446 CURVE SMOOTH",
"111 393 OFFCURVE",
"79 344 OFFCURVE",
"29 296 CURVE",
"73 177 OFFCURVE",
"206 57 OFFCURVE",
"331 57 CURVE SMOOTH",
"368 57 OFFCURVE",
"399 65 OFFCURVE",
"424 79 CURVE",
"424 20 LINE",
"571 -50 LINE",
"591 -40 LINE",
"591 494 LINE",
"701 494 LINE",
"711 514 LINE"
);
},
{
closed = 1;
nodes = (
"396 224 OFFCURVE",
"342 197 OFFCURVE",
"286 197 CURVE SMOOTH",
"251 197 OFFCURVE",
"223 205 OFFCURVE",
"200 221 CURVE",
"244 264 OFFCURVE",
"263 308 OFFCURVE",
"263 354 CURVE SMOOTH",
"263 399 OFFCURVE",
"246 446 OFFCURVE",
"218 494 CURVE",
"424 494 LINE",
"424 273 LINE"
);
}
);
width = 661;
},
{
anchors = (
{
name = bottom;
position = "{510, 0}";
},
{
name = top;
position = "{461, 622}";
}
);
layerId = "7DD510ED-E696-4B04-90C7-292E6BE56412";
paths = (
{
closed = 1;
nodes = (
"182 351 LINE",
"431 351 LINE",
"431 405 LINE",
"178 405 LINE"
);
},
{
closed = 1;
nodes = (
"611 622 LINE",
"-42 622 LINE",
"-47 613 LINE",
"-25 555 LINE",
"101 555 LINE",
"120 521 OFFCURVE",
"128 488 OFFCURVE",
"128 457 CURVE SMOOTH",
"128 392 OFFCURVE",
"93 338 OFFCURVE",
"47 290 CURVE",
"89 193 OFFCURVE",
"188 102 OFFCURVE",
"296 102 CURVE SMOOTH",
"342 102 OFFCURVE",
"394 118 OFFCURVE",
"428 159 CURVE",
"428 8 LINE",
"501 -29 LINE",
"510 -24 LINE",
"510 555 LINE",
"629 555 LINE",
"633 565 LINE"
);
},
{
closed = 1;
nodes = (
"397 205 OFFCURVE",
"335 175 OFFCURVE",
"276 175 CURVE SMOOTH",
"212 175 OFFCURVE",
"164 214 OFFCURVE",
"134 256 CURVE",
"180 304 OFFCURVE",
"205 357 OFFCURVE",
"205 415 CURVE SMOOTH",
"205 459 OFFCURVE",
"191 504 OFFCURVE",
"163 555 CURVE",
"428 555 LINE",
"428 268 LINE"
);
}
);
width = 598;
}
);
leftKerningGroup = khaL;
rightKerningGroup = vert;
unicode = 0A25;
},
{
glyphname = daguru;
lastChange = "2020-02-26 20:16:57 +0000";
layers = (
{
anchors = (
{
name = bottom;
position = "{487, 0}";
},
{
name = top;
position = "{441, 622}";
}
);
layerId = "1D4F67F9-897D-45AD-B7F0-CA61A6862C03";
paths = (
{
closed = 1;
nodes = (
"446 348 LINE",
"456 358 LINE",
"456 596 LINE",
"609 596 LINE",
"610 598 LINE",
"600 622 LINE",
"-24 622 LINE",
"-25 620 LINE",
"-15 596 LINE",
"430 596 LINE",
"430 374 LINE",
"139 374 LINE",
"139 401 LINE SMOOTH",
"139 427 OFFCURVE",
"130 437 OFFCURVE",
"118 437 CURVE SMOOTH",
"93 437 OFFCURVE",
"56 396 OFFCURVE",
"56 369 CURVE SMOOTH",
"56 356 OFFCURVE",
"64 345 OFFCURVE",
"91 345 CURVE SMOOTH",
"109 345 LINE",
"131 205 OFFCURVE",
"196 -1 OFFCURVE",
"360 -1 CURVE SMOOTH",
"476 -1 OFFCURVE",
"515 91 OFFCURVE",
"530 160 CURVE",
"505 168 LINE",
"502 166 LINE",
"486 89 OFFCURVE",
"441 26 OFFCURVE",
"356 26 CURVE SMOOTH",
"241 26 OFFCURVE",
"164 164 OFFCURVE",
"139 348 CURVE"
);
}
);
width = 585;
},
{
anchors = (
{
name = bottom;
position = "{555, 0}";
},
{
name = top;
position = "{437, 622}";
}
);
layerId = "E17BEC9D-CAAD-449F-91D9-03766E30097E";
paths = (
{
closed = 1;
nodes = (
"507 251 LINE",
"537 291 LINE",
"537 494 LINE",
"671 494 LINE",
"681 514 LINE",
"641 622 LINE",
"-40 622 LINE",
"-50 602 LINE",
"-10 494 LINE",
"370 494 LINE",
"370 360 LINE",
"236 360 LINE",
"236 373 LINE SMOOTH",
"236 413 OFFCURVE",
"223 442 OFFCURVE",
"184 442 CURVE SMOOTH",
"116 442 OFFCURVE",
"16 351 OFFCURVE",
"16 285 CURVE SMOOTH",
"16 248 OFFCURVE",
"48 231 OFFCURVE",
"86 231 CURVE SMOOTH",
"88 231 LINE",
"112 54 OFFCURVE",
"251 -45 OFFCURVE",
"396 -45 CURVE SMOOTH",
"512 -45 OFFCURVE",
"604 7 OFFCURVE",
"624 147 CURVE",
"491 192 LINE",
"466 178 LINE",
"455 116 OFFCURVE",
"414 61 OFFCURVE",
"361 61 CURVE SMOOTH",
"298 61 OFFCURVE",
"246 119 OFFCURVE",
"253 251 CURVE"
);
}
);
width = 631;
},
{
anchors = (
{
name = bottom;
position = "{514, 0}";
},
{
name = top;
position = "{439, 622}";
}
);
layerId = "7DD510ED-E696-4B04-90C7-292E6BE56412";
paths = (
{
closed = 1;
nodes = (
"470 309 LINE",
"488 331 LINE",
"488 555 LINE",
"634 555 LINE",
"638 565 LINE",
"616 622 LINE",
"-30 622 LINE",
"-35 613 LINE",
"-13 555 LINE",
"406 555 LINE",
"406 368 LINE",
"178 368 LINE",
"178 390 LINE SMOOTH",
"178 421 OFFCURVE",
"167 439 OFFCURVE",
"144 439 CURVE SMOOTH",
"102 439 OFFCURVE",
"40 378 OFFCURVE",
"40 336 CURVE SMOOTH",
"40 313 OFFCURVE",
"58 300 OFFCURVE",
"89 300 CURVE SMOOTH",
"101 300 LINE",
"123 145 OFFCURVE",
"218 -18 OFFCURVE",
"374 -18 CURVE SMOOTH",
"490 -18 OFFCURVE",
"550 58 OFFCURVE",
"567 155 CURVE",
"499 178 LINE",
"488 171 LINE",
"474 100 OFFCURVE",
"430 40 OFFCURVE",
"358 40 CURVE SMOOTH",
"264 40 OFFCURVE",
"197 146 OFFCURVE",
"184 309 CURVE"
);
}
);
width = 603;
}
);
leftKerningGroup = caL;
rightKerningGroup = daR;
unicode = 0A26;
},
{
glyphname = dhaguru;
lastChange = "2020-02-26 20:16:57 +0000";
layers = (
{
anchors = (
{
name = bottom;
position = "{454, 0}";
},
{
name = top;
position = "{439, 622}";
}
);
layerId = "1D4F67F9-897D-45AD-B7F0-CA61A6862C03";
paths = (
{
closed = 1;
nodes = (
"569 622 LINE",
"-44 622 LINE",
"-45 620 LINE",
"-35 596 LINE",
"100 596 LINE",
"128 550 OFFCURVE",
"139 505 OFFCURVE",
"139 464 CURVE SMOOTH",
"139 391 OFFCURVE",
"103 334 OFFCURVE",
"59 286 CURVE",
"99 203 OFFCURVE",
"176 131 OFFCURVE",
"273 131 CURVE SMOOTH",
"324 131 OFFCURVE",
"387 152 OFFCURVE",
"428 207 CURVE",
"428 0 LINE",
"451 -15 LINE",
"454 -13 LINE",
"454 596 LINE",
"578 596 LINE",
"579 598 LINE"
);
},
{
closed = 1;
nodes = (
"394 191 OFFCURVE",
"329 160 OFFCURVE",
"270 160 CURVE SMOOTH",
"187 160 OFFCURVE",
"125 220 OFFCURVE",
"91 279 CURVE",
"138 331 OFFCURVE",
"167 389 OFFCURVE",
"167 456 CURVE SMOOTH",
"167 498 OFFCURVE",
"155 542 OFFCURVE",
"126 596 CURVE",
"428 596 LINE",
"428 259 LINE"
);
}
);
width = 554;
},
{
anchors = (
{
name = bottom;
position = "{571, 0}";
},
{
name = top;
position = "{471, 622}";
}
);
layerId = "E17BEC9D-CAAD-449F-91D9-03766E30097E";
paths = (
{
closed = 1;
nodes = (
"651 622 LINE",
"-40 622 LINE",
"-50 602 LINE",
"-10 494 LINE",
"108 494 LINE",
"110 485 OFFCURVE",
"111 475 OFFCURVE",
"111 466 CURVE SMOOTH",
"111 413 OFFCURVE",
"79 364 OFFCURVE",
"29 316 CURVE",
"73 197 OFFCURVE",
"206 77 OFFCURVE",
"331 77 CURVE SMOOTH",
"361 77 OFFCURVE",
"384 82 OFFCURVE",
"404 91 CURVE",
"404 20 LINE",
"551 -50 LINE",
"571 -40 LINE",
"571 494 LINE",
"681 494 LINE",
"691 514 LINE"
);
},
{
closed = 1;
nodes = (
"377 236 OFFCURVE",
"332 217 OFFCURVE",
"286 217 CURVE SMOOTH",
"251 217 OFFCURVE",
"223 225 OFFCURVE",
"200 241 CURVE",
"244 284 OFFCURVE",
"263 328 OFFCURVE",
"263 374 CURVE SMOOTH",
"263 413 OFFCURVE",
"250 453 OFFCURVE",
"229 494 CURVE",
"404 494 LINE",
"404 270 LINE"
);
}
);
width = 641;
},
{
anchors = (
{
name = bottom;
position = "{501, 0}";
},
{
name = top;
position = "{452, 622}";
}
);
layerId = "7DD510ED-E696-4B04-90C7-292E6BE56412";
paths = (
{
closed = 1;
nodes = (
"602 622 LINE",
"-42 622 LINE",
"-47 613 LINE",
"-25 555 LINE",
"103 555 LINE",
"121 524 OFFCURVE",
"128 493 OFFCURVE",
"128 465 CURVE SMOOTH",
"128 400 OFFCURVE",
"93 346 OFFCURVE",
"47 298 CURVE",
"89 201 OFFCURVE",
"188 110 OFFCURVE",
"296 110 CURVE SMOOTH",
"339 110 OFFCURVE",
"386 124 OFFCURVE",
"418 161 CURVE",
"418 8 LINE",
"491 -29 LINE",
"501 -24 LINE",
"501 555 LINE",
"619 555 LINE",
"624 565 LINE"
);
},
{
closed = 1;
nodes = (
"387 209 OFFCURVE",
"330 183 OFFCURVE",
"276 183 CURVE SMOOTH",
"212 183 OFFCURVE",
"164 222 OFFCURVE",
"134 264 CURVE",
"180 312 OFFCURVE",
"205 365 OFFCURVE",
"205 423 CURVE SMOOTH",
"205 464 OFFCURVE",
"193 507 OFFCURVE",
"167 555 CURVE",
"418 555 LINE",
"418 263 LINE"
);
}
);
width = 589;
}
);
leftKerningGroup = khaL;
rightKerningGroup = vert;
unicode = 0A27;
},
{
glyphname = naguru;
lastChange = "2020-02-26 20:16:57 +0000";
layers = (
{
anchors = (
{
name = bottom;
position = "{437, 0}";
},
{
name = top;
position = "{286, 622}";
}
);
layerId = "1D4F67F9-897D-45AD-B7F0-CA61A6862C03";
paths = (
{
closed = 1;
nodes = (
"600 598 LINE",
"590 622 LINE",
"-24 622 LINE",
"-25 620 LINE",
"-15 596 LINE",
"275 596 LINE",
"275 416 LINE",
"151 367 OFFCURVE",
"38 246 OFFCURVE",
"38 151 CURVE SMOOTH",
"38 79 OFFCURVE",
"76 -7 OFFCURVE",
"218 -2 CURVE",
"218 23 LINE",
"216 26 LINE",
"134 24 OFFCURVE",
"64 56 OFFCURVE",
"64 146 CURVE SMOOTH",
"64 233 OFFCURVE",
"172 349 OFFCURVE",
"288 391 CURVE",
"382 357 OFFCURVE",
"503 244 OFFCURVE",
"503 142 CURVE SMOOTH",
"503 74 OFFCURVE",
"454 21 OFFCURVE",
"351 26 CURVE",
"351 1 LINE",
"354 -2 LINE",
"481 -7 OFFCURVE",
"530 61 OFFCURVE",
"530 140 CURVE SMOOTH",
"530 246 OFFCURVE",
"422 354 OFFCURVE",
"301 415 CURVE",
"301 596 LINE",
"599 596 LINE"
);
}
);
width = 575;
},
{
anchors = (
{
name = bottom;
position = "{568, 0}";
},
{
name = top;
position = "{364, 622}";
}
);
layerId = "E17BEC9D-CAAD-449F-91D9-03766E30097E";
paths = (
{
closed = 1;
nodes = (
"701 514 LINE",
"661 622 LINE",
"-40 622 LINE",
"-50 602 LINE",
"-10 494 LINE",
"275 494 LINE",
"275 413 LINE",
"113 359 OFFCURVE",
"24 299 OFFCURVE",
"24 178 CURVE SMOOTH",
"24 53 OFFCURVE",
"110 -60 OFFCURVE",
"291 -49 CURVE",
"291 86 LINE",
"272 113 LINE",
"189 114 OFFCURVE",
"153 125 OFFCURVE",
"153 155 CURVE SMOOTH",
"153 209 OFFCURVE",
"267 255 OFFCURVE",
"376 280 CURVE",
"450 243 OFFCURVE",
"510 194 OFFCURVE",
"510 159 CURVE SMOOTH",
"510 126 OFFCURVE",
"462 113 OFFCURVE",
"381 113 CURVE",
"381 -24 LINE",
"402 -50 LINE",
"534 -59 OFFCURVE",
"632 -17 OFFCURVE",
"632 113 CURVE SMOOTH",
"632 231 OFFCURVE",
"546 306 OFFCURVE",
"434 368 CURVE",
"434 494 LINE",
"691 494 LINE"
);
}
);
width = 651;
},
{
anchors = (
{
name = bottom;
position = "{489, 0}";
},
{
name = top;
position = "{317, 622}";
}
);
layerId = "7DD510ED-E696-4B04-90C7-292E6BE56412";
paths = (
{
closed = 1;
nodes = (
"640 565 LINE",
"618 622 LINE",
"-30 622 LINE",
"-35 613 LINE",
"-13 555 LINE",
"275 555 LINE",
"275 415 LINE",
"136 364 OFFCURVE",
"32 267 OFFCURVE",
"32 162 CURVE SMOOTH",
"32 69 OFFCURVE",
"90 -28 OFFCURVE",
"247 -21 CURVE",
"247 48 LINE",
"238 61 LINE",
"156 60 OFFCURVE",
"99 83 OFFCURVE",
"99 150 CURVE SMOOTH",
"99 223 OFFCURVE",
"210 312 OFFCURVE",
"323 347 CURVE",
"409 312 OFFCURVE",
"506 224 OFFCURVE",
"506 149 CURVE SMOOTH",
"506 95 OFFCURVE",
"457 58 OFFCURVE",
"363 61 CURVE",
"363 -9 LINE",
"373 -21 LINE",
"502 -28 OFFCURVE",
"571 30 OFFCURVE",
"571 129 CURVE SMOOTH",
"571 240 OFFCURVE",
"471 335 OFFCURVE",
"354 396 CURVE",
"354 555 LINE",
"636 555 LINE"
);
}
);
width = 605;
}
);
leftKerningGroup = naL;
rightKerningGroup = naR;
unicode = 0A28;
},
{
glyphname = paguru;
lastChange = "2020-02-26 20:16:57 +0000";
layers = (
{
anchors = (
{
name = bottom;
position = "{442, 0}";
},
{
name = top;
position = "{427, 622}";
}
);
layerId = "1D4F67F9-897D-45AD-B7F0-CA61A6862C03";
paths = (
{
closed = 1;
nodes = (
"557 622 LINE",
"416 622 LINE",
"416 238 LINE",
"380 185 OFFCURVE",
"323 160 OFFCURVE",
"270 160 CURVE SMOOTH",
"187 160 OFFCURVE",
"125 220 OFFCURVE",
"91 279 CURVE",
"138 331 OFFCURVE",
"167 389 OFFCURVE",
"167 456 CURVE SMOOTH",
"167 505 OFFCURVE",
"151 556 OFFCURVE",
"111 622 CURVE",
"-44 622 LINE",
"-45 620 LINE",
"-35 596 LINE",
"100 596 LINE",
"128 550 OFFCURVE",
"139 505 OFFCURVE",
"139 464 CURVE SMOOTH",
"139 391 OFFCURVE",
"103 334 OFFCURVE",
"59 286 CURVE",
"99 203 OFFCURVE",
"176 131 OFFCURVE",
"273 131 CURVE SMOOTH",
"319 131 OFFCURVE",
"376 148 OFFCURVE",
"416 193 CURVE",
"416 0 LINE",
"439 -15 LINE",
"442 -13 LINE",
"442 596 LINE",
"566 596 LINE",
"567 598 LINE"
);
}
);
width = 542;
},
{
anchors = (
{
name = bottom;
position = "{561, 0}";
},
{
name = top;
position = "{461, 622}";
}
);
layerId = "E17BEC9D-CAAD-449F-91D9-03766E30097E";
paths = (
{
closed = 1;
nodes = (
"641 622 LINE",
"394 622 LINE",
"394 248 LINE",
"367 222 OFFCURVE",
"327 207 OFFCURVE",
"286 207 CURVE SMOOTH",
"251 207 OFFCURVE",
"223 215 OFFCURVE",
"200 231 CURVE",
"244 274 OFFCURVE",
"263 318 OFFCURVE",
"263 364 CURVE SMOOTH",
"263 443 OFFCURVE",
"221 537 OFFCURVE",
"149 622 CURVE",
"-40 622 LINE",
"-50 602 LINE",
"-10 494 LINE",
"105 494 LINE",
"109 481 OFFCURVE",
"111 468 OFFCURVE",
"111 456 CURVE SMOOTH",
"111 403 OFFCURVE",
"79 354 OFFCURVE",
"29 306 CURVE",
"73 187 OFFCURVE",
"206 67 OFFCURVE",
"331 67 CURVE SMOOTH",
"356 67 OFFCURVE",
"376 71 OFFCURVE",
"394 77 CURVE",
"394 20 LINE",
"541 -50 LINE",
"561 -40 LINE",
"561 494 LINE",
"671 494 LINE",
"681 514 LINE"
);
}
);
width = 631;
},
{
anchors = (
{
name = bottom;
position = "{489, 0}";
},
{
name = top;
position = "{441, 622}";
}
);
layerId = "7DD510ED-E696-4B04-90C7-292E6BE56412";
paths = (
{
closed = 1;
nodes = (
"590 622 LINE",
"407 622 LINE",
"407 242 LINE",
"375 200 OFFCURVE",
"325 179 OFFCURVE",
"276 179 CURVE SMOOTH",
"212 179 OFFCURVE",
"164 218 OFFCURVE",
"134 260 CURVE",
"180 308 OFFCURVE",
"205 361 OFFCURVE",
"205 419 CURVE SMOOTH",
"205 480 OFFCURVE",
"179 548 OFFCURVE",
"126 622 CURVE",
"-42 622 LINE",
"-47 613 LINE",
"-25 555 LINE",
"102 555 LINE",
"120 523 OFFCURVE",
"128 490 OFFCURVE",
"128 461 CURVE SMOOTH",
"128 396 OFFCURVE",
"93 342 OFFCURVE",
"47 294 CURVE",
"89 197 OFFCURVE",
"188 106 OFFCURVE",
"296 106 CURVE SMOOTH",
"334 106 OFFCURVE",
"376 117 OFFCURVE",
"407 147 CURVE",
"407 8 LINE",
"480 -29 LINE",
"489 -24 LINE",
"489 555 LINE",
"608 555 LINE",
"612 565 LINE"
);
}
);
width = 577;
}
);
leftKerningGroup = khaL;
rightKerningGroup = vert;
unicode = 0A2A;
},
{
glyphname = phaguru;
lastChange = "2020-02-26 20:16:57 +0000";
layers = (
{
anchors = (
{
name = bottom;
position = "{467, 0}";
},
{
name = top;
position = "{436, 622}";
}
);
layerId = "1D4F67F9-897D-45AD-B7F0-CA61A6862C03";
paths = (
{
closed = 1;
nodes = (
"441 408 LINE",
"451 418 LINE",
"451 596 LINE",
"599 596 LINE",
"600 598 LINE",
"590 622 LINE",
"-24 622 LINE",
"-25 620 LINE",
"-15 596 LINE",
"425 596 LINE",
"425 436 LINE",
"256 436 LINE SMOOTH",
"97 436 OFFCURVE",
"48 360 OFFCURVE",
"48 280 CURVE SMOOTH",
"48 147 OFFCURVE",
"185 -11 OFFCURVE",
"350 -11 CURVE SMOOTH",
"448 -11 OFFCURVE",
"501 45 OFFCURVE",
"501 108 CURVE SMOOTH",
"501 172 OFFCURVE",
"447 232 OFFCURVE",
"366 232 CURVE SMOOTH",
"294 232 OFFCURVE",
"207 185 OFFCURVE",
"143 113 CURVE",
"103 157 OFFCURVE",
"77 213 OFFCURVE",
"77 272 CURVE SMOOTH",
"77 347 OFFCURVE",
"120 408 OFFCURVE",
"259 408 CURVE SMOOTH"
);
},
{
closed = 1;
nodes = (
"441 203 OFFCURVE",
"473 158 OFFCURVE",
"473 115 CURVE SMOOTH",
"473 65 OFFCURVE",
"430 16 OFFCURVE",
"347 16 CURVE SMOOTH",
"281 16 OFFCURVE",
"213 47 OFFCURVE",
"162 94 CURVE",
"234 172 OFFCURVE",
"306 203 OFFCURVE",
"368 203 CURVE SMOOTH"
);
}
);
width = 575;
},
{
anchors = (
{
name = bottom;
position = "{535, -20}";
},
{
name = top;
position = "{441, 622}";
}
);
layerId = "E17BEC9D-CAAD-449F-91D9-03766E30097E";
paths = (
{
closed = 1;
nodes = (
"511 299 LINE",
"541 339 LINE",
"541 494 LINE",
"661 494 LINE",
"671 514 LINE",
"631 622 LINE",
"-40 622 LINE",
"-50 602 LINE",
"-10 494 LINE",
"384 494 LINE",
"384 438 LINE",
"256 438 LINE SMOOTH",
"113 438 OFFCURVE",
"32 362 OFFCURVE",
"32 249 CURVE SMOOTH",
"32 86 OFFCURVE",
"198 -68 OFFCURVE",
"388 -68 CURVE SMOOTH",
"507 -68 OFFCURVE",
"581 -6 OFFCURVE",
"581 89 CURVE SMOOTH",
"581 178 OFFCURVE",
"515 259 OFFCURVE",
"403 259 CURVE SMOOTH",
"314 259 OFFCURVE",
"245 208 OFFCURVE",
"190 127 CURVE",
"183 145 OFFCURVE",
"179 166 OFFCURVE",
"179 191 CURVE SMOOTH",
"179 265 OFFCURVE",
"233 299 OFFCURVE",
"297 299 CURVE SMOOTH"
);
},
{
closed = 1;
nodes = (
"466 144 OFFCURVE",
"480 131 OFFCURVE",
"480 113 CURVE SMOOTH",
"480 83 OFFCURVE",
"429 56 OFFCURVE",
"351 56 CURVE SMOOTH",
"336 56 OFFCURVE",
"321 57 OFFCURVE",
"308 58 CURVE",
"342 112 OFFCURVE",
"404 144 OFFCURVE",
"442 144 CURVE SMOOTH"
);
}
);
width = 621;
},
{
anchors = (
{
name = bottom;
position = "{494, -8}";
},
{
name = top;
position = "{438, 622}";
}
);
layerId = "7DD510ED-E696-4B04-90C7-292E6BE56412";
paths = (
{
closed = 1;
nodes = (
"469 365 LINE",
"487 387 LINE",
"487 555 LINE",
"624 555 LINE",
"628 565 LINE",
"606 622 LINE",
"-30 622 LINE",
"-35 613 LINE",
"-13 555 LINE",
"409 555 LINE",
"409 437 LINE",
"256 437 LINE SMOOTH",
"103 437 OFFCURVE",
"42 361 OFFCURVE",
"42 268 CURVE SMOOTH",
"42 123 OFFCURVE",
"190 -34 OFFCURVE",
"365 -34 CURVE SMOOTH",
"471 -34 OFFCURVE",
"533 25 OFFCURVE",
"533 100 CURVE SMOOTH",
"533 174 OFFCURVE",
"474 243 OFFCURVE",
"381 243 CURVE SMOOTH",
"302 243 OFFCURVE",
"222 194 OFFCURVE",
"162 119 CURVE",
"135 152 OFFCURVE",
"118 194 OFFCURVE",
"118 240 CURVE SMOOTH",
"118 314 OFFCURVE",
"165 365 OFFCURVE",
"274 365 CURVE SMOOTH"
);
},
{
closed = 1;
nodes = (
"451 180 OFFCURVE",
"476 147 OFFCURVE",
"476 114 CURVE SMOOTH",
"476 72 OFFCURVE",
"430 32 OFFCURVE",
"349 32 CURVE SMOOTH",
"303 32 OFFCURVE",
"256 51 OFFCURVE",
"220 80 CURVE",
"277 148 OFFCURVE",
"345 180 OFFCURVE",
"397 180 CURVE SMOOTH"
);
}
);
width = 593;
}
);
leftKerningGroup = phaL;
rightKerningGroup = ddhaR;
unicode = 0A2B;
},
{
glyphname = baguru;
lastChange = "2020-02-26 20:16:57 +0000";
layers = (
{
anchors = (
{
name = bottom;
position = "{484, 0}";
},
{
name = top;
position = "{469, 622}";
}
);
layerId = "1D4F67F9-897D-45AD-B7F0-CA61A6862C03";
paths = (
{
closed = 1;
nodes = (
"599 622 LINE",
"-24 622 LINE",
"-25 620 LINE",
"-15 596 LINE",
"70 596 LINE",
"81 507 OFFCURVE",
"137 403 OFFCURVE",
"261 373 CURVE",
"178 360 OFFCURVE",
"109 322 OFFCURVE",
"57 248 CURVE",
"107 147 OFFCURVE",
"219 87 OFFCURVE",
"320 87 CURVE SMOOTH",
"373 87 OFFCURVE",
"420 98 OFFCURVE",
"458 117 CURVE",
"458 0 LINE",
"481 -15 LINE",
"484 -13 LINE",
"484 596 LINE",
"608 596 LINE",
"609 598 LINE"
);
},
{
closed = 1;
nodes = (
"332 385 LINE SMOOTH",
"184 385 OFFCURVE",
"111 493 OFFCURVE",
"99 596 CURVE",
"458 596 LINE",
"458 385 LINE"
);
},
{
closed = 1;
nodes = (
"229 117 OFFCURVE",
"134 159 OFFCURVE",
"85 243 CURVE",
"147 327 OFFCURVE",
"242 359 OFFCURVE",
"360 359 CURVE SMOOTH",
"458 359 LINE",
"458 152 LINE",
"418 129 OFFCURVE",
"369 117 OFFCURVE",
"314 117 CURVE SMOOTH"
);
}
);
width = 584;
},
{
anchors = (
{
name = bottom;
position = "{591, 0}";
},
{
name = top;
position = "{491, 622}";
}
);
layerId = "E17BEC9D-CAAD-449F-91D9-03766E30097E";
paths = (
{
closed = 1;
nodes = (
"671 622 LINE",
"-40 622 LINE",
"-50 602 LINE",
"-10 494 LINE",
"35 494 LINE",
"55 438 OFFCURVE",
"99 390 OFFCURVE",
"187 367 CURVE",
"126 347 OFFCURVE",
"73 314 OFFCURVE",
"34 266 CURVE",
"77 138 OFFCURVE",
"208 20 OFFCURVE",
"350 20 CURVE SMOOTH",
"375 20 OFFCURVE",
"399 24 OFFCURVE",
"424 31 CURVE",
"424 0 LINE",
"571 -70 LINE",
"591 -60 LINE",
"591 494 LINE",
"701 494 LINE",
"711 514 LINE"
);
},
{
closed = 1;
nodes = (
"355 399 LINE SMOOTH",
"257 399 OFFCURVE",
"216 436 OFFCURVE",
"200 494 CURVE",
"424 494 LINE",
"424 399 LINE"
);
},
{
closed = 1;
nodes = (
"238 155 OFFCURVE",
"204 172 OFFCURVE",
"183 193 CURVE",
"248 246 OFFCURVE",
"329 261 OFFCURVE",
"414 261 CURVE SMOOTH",
"424 261 LINE",
"424 199 LINE",
"383 166 OFFCURVE",
"339 155 OFFCURVE",
"294 155 CURVE SMOOTH"
);
}
);
width = 661;
},
{
anchors = (
{
name = bottom;
position = "{527, 0}";
},
{
name = top;
position = "{478, 622}";
}
);
layerId = "7DD510ED-E696-4B04-90C7-292E6BE56412";
paths = (
{
closed = 1;
nodes = (
"628 622 LINE",
"-30 622 LINE",
"-35 613 LINE",
"-13 555 LINE",
"56 555 LINE",
"71 480 OFFCURVE",
"122 398 OFFCURVE",
"232 371 CURVE",
"157 355 OFFCURVE",
"95 319 OFFCURVE",
"48 255 CURVE",
"95 143 OFFCURVE",
"215 60 OFFCURVE",
"332 60 CURVE SMOOTH",
"374 60 OFFCURVE",
"412 69 OFFCURVE",
"444 83 CURVE",
"444 0 LINE",
"517 -37 LINE",
"527 -32 LINE",
"527 555 LINE",
"645 555 LINE",
"650 565 LINE"
);
},
{
closed = 1;
nodes = (
"341 391 LINE SMOOTH",
"213 391 OFFCURVE",
"153 470 OFFCURVE",
"139 555 CURVE",
"444 555 LINE",
"444 391 LINE"
);
},
{
closed = 1;
nodes = (
"233 132 OFFCURVE",
"162 164 OFFCURVE",
"124 223 CURVE",
"187 295 OFFCURVE",
"277 320 OFFCURVE",
"381 320 CURVE SMOOTH",
"444 320 LINE",
"444 171 LINE",
"404 144 OFFCURVE",
"357 132 OFFCURVE",
"306 132 CURVE SMOOTH"
);
}
);
width = 615;
}
);
leftKerningGroup = baL;
rightKerningGroup = vert;
unicode = 0A2C;
},
{
glyphname = bhaguru;
lastChange = "2020-02-26 20:16:57 +0000";
layers = (
{
anchors = (
{
name = bottom;
position = "{427, 0}";
},
{
name = top;
position = "{431, 622}";
}
);
layerId = "1D4F67F9-897D-45AD-B7F0-CA61A6862C03";
paths = (
{
closed = 1;
nodes = (
"605 622 LINE",
"-24 622 LINE",
"-25 620 LINE",
"-15 596 LINE",
"420 596 LINE",
"432 559 OFFCURVE",
"437 523 OFFCURVE",
"437 491 CURVE SMOOTH",
"437 442 OFFCURVE",
"426 398 OFFCURVE",
"406 361 CURVE",
"349 422 OFFCURVE",
"282 453 OFFCURVE",
"211 453 CURVE SMOOTH",
"125 453 OFFCURVE",
"71 406 OFFCURVE",
"71 338 CURVE SMOOTH",
"71 265 OFFCURVE",
"134 218 OFFCURVE",
"219 218 CURVE SMOOTH",
"295 218 OFFCURVE",
"365 256 OFFCURVE",
"410 320 CURVE",
"447 277 OFFCURVE",
"466 229 OFFCURVE",
"466 183 CURVE SMOOTH",
"466 91 OFFCURVE",
"393 28 OFFCURVE",
"281 28 CURVE SMOOTH",
"202 28 OFFCURVE",
"120 59 OFFCURVE",
"39 131 CURVE",
"37 129 OFFCURVE",
"36 126 OFFCURVE",
"36 123 CURVE SMOOTH",
"36 85 OFFCURVE",
"154 0 OFFCURVE",
"285 0 CURVE SMOOTH",
"405 0 OFFCURVE",
"492 72 OFFCURVE",
"492 176 CURVE SMOOTH",
"492 239 OFFCURVE",
"461 297 OFFCURVE",
"423 341 CURVE",
"448 384 OFFCURVE",
"462 436 OFFCURVE",
"462 495 CURVE SMOOTH",
"462 527 OFFCURVE",
"458 560 OFFCURVE",
"449 596 CURVE",
"614 596 LINE",
"615 598 LINE"
);
},
{
closed = 1;
nodes = (
"156 243 OFFCURVE",
"94 269 OFFCURVE",
"94 332 CURVE SMOOTH",
"94 376 OFFCURVE",
"125 429 OFFCURVE",
"213 429 CURVE SMOOTH",
"275 429 OFFCURVE",
"339 403 OFFCURVE",
"396 344 CURVE",
"356 281 OFFCURVE",
"290 243 OFFCURVE",
"217 243 CURVE SMOOTH"
);
}
);
width = 590;
},
{
anchors = (
{
name = bottom;
position = "{505, -20}";
},
{
name = top;
position = "{446, 622}";
}
);
layerId = "E17BEC9D-CAAD-449F-91D9-03766E30097E";
paths = (
{
closed = 1;
nodes = (
"621 622 LINE",
"-40 622 LINE",
"-50 602 LINE",
"-10 494 LINE",
"385 494 LINE",
"388 481 OFFCURVE",
"389 467 OFFCURVE",
"389 453 CURVE SMOOTH",
"389 436 OFFCURVE",
"387 418 OFFCURVE",
"383 400 CURVE",
"333 440 OFFCURVE",
"273 455 OFFCURVE",
"216 455 CURVE SMOOTH",
"107 455 OFFCURVE",
"55 383 OFFCURVE",
"55 316 CURVE SMOOTH",
"55 220 OFFCURVE",
"161 150 OFFCURVE",
"261 150 CURVE SMOOTH",
"321 150 OFFCURVE",
"375 173 OFFCURVE",
"420 211 CURVE",
"423 203 OFFCURVE",
"424 195 OFFCURVE",
"424 187 CURVE SMOOTH",
"424 120 OFFCURVE",
"358 73 OFFCURVE",
"265 73 CURVE SMOOTH",
"176 73 OFFCURVE",
"108 111 OFFCURVE",
"46 173 CURVE",
"36 156 OFFCURVE",
"32 137 OFFCURVE",
"32 118 CURVE SMOOTH",
"32 28 OFFCURVE",
"141 -68 OFFCURVE",
"305 -68 CURVE SMOOTH",
"461 -68 OFFCURVE",
"564 10 OFFCURVE",
"564 136 CURVE SMOOTH",
"564 195 OFFCURVE",
"536 248 OFFCURVE",
"492 292 CURVE",
"528 339 OFFCURVE",
"549 416 OFFCURVE",
"549 480 CURVE SMOOTH",
"549 485 OFFCURVE",
"549 489 OFFCURVE",
"549 494 CURVE",
"651 494 LINE",
"661 514 LINE"
);
},
{
closed = 1;
nodes = (
"206 249 OFFCURVE",
"192 270 OFFCURVE",
"192 289 CURVE SMOOTH",
"192 312 OFFCURVE",
"220 335 OFFCURVE",
"258 335 CURVE SMOOTH",
"284 335 OFFCURVE",
"310 326 OFFCURVE",
"340 307 CURVE",
"314 272 OFFCURVE",
"279 249 OFFCURVE",
"240 249 CURVE SMOOTH"
);
}
);
width = 611;
},
{
anchors = (
{
name = bottom;
position = "{458, -8}";
},
{
name = top;
position = "{437, 622}";
}
);
layerId = "7DD510ED-E696-4B04-90C7-292E6BE56412";
paths = (
{
closed = 1;
nodes = (
"611 622 LINE",
"-30 622 LINE",
"-35 613 LINE",
"-13 555 LINE",
"406 555 LINE",
"415 528 OFFCURVE",
"418 501 OFFCURVE",
"418 476 CURVE SMOOTH",
"418 440 OFFCURVE",
"410 406 OFFCURVE",
"397 377 CURVE",
"343 429 OFFCURVE",
"278 454 OFFCURVE",
"213 454 CURVE SMOOTH",
"118 454 OFFCURVE",
"65 397 OFFCURVE",
"65 329 CURVE SMOOTH",
"65 247 OFFCURVE",
"145 191 OFFCURVE",
"236 191 CURVE SMOOTH",
"305 191 OFFCURVE",
"369 223 OFFCURVE",
"414 277 CURVE",
"437 248 OFFCURVE",
"449 215 OFFCURVE",
"449 185 CURVE SMOOTH",
"449 103 OFFCURVE",
"379 46 OFFCURVE",
"275 46 CURVE SMOOTH",
"192 46 OFFCURVE",
"115 80 OFFCURVE",
"42 148 CURVE",
"37 140 OFFCURVE",
"34 130 OFFCURVE",
"34 121 CURVE SMOOTH",
"34 62 OFFCURVE",
"149 -27 OFFCURVE",
"293 -27 CURVE SMOOTH",
"427 -27 OFFCURVE",
"521 47 OFFCURVE",
"521 160 CURVE SMOOTH",
"521 222 OFFCURVE",
"491 278 OFFCURVE",
"450 322 CURVE",
"480 366 OFFCURVE",
"497 428 OFFCURVE",
"497 489 CURVE SMOOTH",
"497 510 OFFCURVE",
"494 532 OFFCURVE",
"489 555 CURVE",
"629 555 LINE",
"633 565 LINE"
);
},
{
closed = 1;
nodes = (
"176 245 OFFCURVE",
"133 269 OFFCURVE",
"133 315 CURVE SMOOTH",
"133 351 OFFCURVE",
"163 392 OFFCURVE",
"231 392 CURVE SMOOTH",
"279 392 OFFCURVE",
"327 372 OFFCURVE",
"374 329 CURVE",
"339 277 OFFCURVE",
"286 245 OFFCURVE",
"226 245 CURVE SMOOTH"
);
}
);
width = 598;
}
);
leftKerningGroup = bhaL;
rightKerningGroup = ddaR;
unicode = 0A2D;
},
{
glyphname = maguru;
lastChange = "2020-02-26 20:16:57 +0000";
layers = (
{
anchors = (
{
name = bottom;
position = "{460, 0}";
},
{
name = top;
position = "{445, 622}";
}
);
layerId = "1D4F67F9-897D-45AD-B7F0-CA61A6862C03";
paths = (
{
closed = 1;
nodes = (
"575 622 LINE",
"434 622 LINE",
"434 297 LINE",
"176 297 LINE",
"176 382 OFFCURVE",
"148 538 OFFCURVE",
"106 622 CURVE",
"-24 622 LINE",
"-25 620 LINE",
"-15 596 LINE",
"90 596 LINE",
"123 526 OFFCURVE",
"151 379 OFFCURVE",
"147 287 CURVE",
"111 237 OFFCURVE",
"77 165 OFFCURVE",
"77 125 CURVE SMOOTH",
"77 102 OFFCURVE",
"90 92 OFFCURVE",
"105 92 CURVE SMOOTH",
"144 92 OFFCURVE",
"172 195 OFFCURVE",
"176 271 CURVE",
"434 271 LINE",
"434 -1 LINE",
"457 -15 LINE",
"460 -13 LINE",
"460 596 LINE",
"584 596 LINE",
"585 598 LINE"
);
}
);
width = 560;
},
{
anchors = (
{
name = bottom;
position = "{581, 0}";
},
{
name = top;
position = "{481, 622}";
}
);
layerId = "E17BEC9D-CAAD-449F-91D9-03766E30097E";
paths = (
{
closed = 1;
nodes = (
"661 622 LINE",
"414 622 LINE",
"414 332 LINE",
"287 332 LINE",
"278 433 OFFCURVE",
"241 550 OFFCURVE",
"190 622 CURVE",
"-40 622 LINE",
"-50 602 LINE",
"-10 494 LINE",
"113 494 LINE",
"132 434 OFFCURVE",
"139 358 OFFCURVE",
"134 295 CURVE",
"67 234 OFFCURVE",
"49 174 OFFCURVE",
"49 131 CURVE SMOOTH",
"49 63 OFFCURVE",
"93 24 OFFCURVE",
"149 24 CURVE SMOOTH",
"233 24 OFFCURVE",
"286 111 OFFCURVE",
"296 215 CURVE",
"414 215 LINE",
"414 20 LINE",
"561 -50 LINE",
"581 -40 LINE",
"581 494 LINE",
"691 494 LINE",
"701 514 LINE"
);
}
);
width = 651;
},
{
anchors = (
{
name = bottom;
position = "{508, 0}";
},
{
name = top;
position = "{459, 622}";
}
);
layerId = "7DD510ED-E696-4B04-90C7-292E6BE56412";
paths = (
{
closed = 1;
nodes = (
"609 622 LINE",
"426 622 LINE",
"426 311 LINE",
"220 311 LINE",
"217 402 OFFCURVE",
"185 543 OFFCURVE",
"139 622 CURVE",
"-30 622 LINE",
"-35 613 LINE",
"-13 555 LINE",
"99 555 LINE",
"127 489 OFFCURVE",
"146 371 OFFCURVE",
"142 290 CURVE",
"94 236 OFFCURVE",
"66 169 OFFCURVE",
"66 127 CURVE SMOOTH",
"66 86 OFFCURVE",
"91 65 OFFCURVE",
"122 65 CURVE SMOOTH",
"179 65 OFFCURVE",
"217 162 OFFCURVE",
"224 249 CURVE",
"426 249 LINE",
"426 7 LINE",
"498 -29 LINE",
"508 -24 LINE",
"508 555 LINE",
"627 555 LINE",
"631 565 LINE"
);
}
);
width = 596;
}
);
leftKerningGroup = maL;
rightKerningGroup = vert;
unicode = 0A2E;
},
{
glyphname = yaguru;
lastChange = "2020-02-26 20:16:57 +0000";
layers = (
{
anchors = (
{
name = bottom;
position = "{592, 0}";
},
{
name = top;
position = "{577, 622}";
}
);
layerId = "1D4F67F9-897D-45AD-B7F0-CA61A6862C03";
paths = (
{
closed = 1;
nodes = (
"707 622 LINE",
"-24 622 LINE",
"-25 620 LINE",
"-15 596 LINE",
"115 596 LINE",
"147 548 OFFCURVE",
"160 496 OFFCURVE",
"160 457 CURVE SMOOTH",
"160 390 OFFCURVE",
"123 334 OFFCURVE",
"79 276 CURVE",
"119 173 OFFCURVE",
"186 91 OFFCURVE",
"263 91 CURVE SMOOTH",
"334 91 OFFCURVE",
"381 130 OFFCURVE",
"381 254 CURVE SMOOTH",
"381 340 LINE",
"566 340 LINE",
"566 0 LINE",
"589 -15 LINE",
"592 -13 LINE",
"592 596 LINE",
"716 596 LINE",
"717 598 LINE"
);
},
{
closed = 1;
nodes = (
"368 366 LINE",
"353 351 LINE",
"353 259 LINE SMOOTH",
"353 169 OFFCURVE",
"328 120 OFFCURVE",
"260 120 CURVE SMOOTH",
"195 120 OFFCURVE",
"143 191 OFFCURVE",
"110 269 CURVE",
"158 330 OFFCURVE",
"188 387 OFFCURVE",
"188 449 CURVE SMOOTH",
"188 493 OFFCURVE",
"171 545 OFFCURVE",
"141 596 CURVE",
"566 596 LINE",
"566 366 LINE"
);
}
);
width = 692;
},
{
anchors = (
{
name = bottom;
position = "{721, 0}";
},
{
name = top;
position = "{621, 622}";
}
);
layerId = "E17BEC9D-CAAD-449F-91D9-03766E30097E";
paths = (
{
closed = 1;
nodes = (
"801 622 LINE",
"-40 622 LINE",
"-50 602 LINE",
"-10 494 LINE",
"100 494 LINE",
"111 469 OFFCURVE",
"116 445 OFFCURVE",
"116 421 CURVE SMOOTH",
"116 365 OFFCURVE",
"87 313 OFFCURVE",
"39 266 CURVE",
"83 147 OFFCURVE",
"198 28 OFFCURVE",
"323 28 CURVE SMOOTH",
"479 28 OFFCURVE",
"487 143 OFFCURVE",
"487 258 CURVE SMOOTH",
"487 271 LINE",
"554 271 LINE",
"554 20 LINE",
"701 -50 LINE",
"721 -40 LINE",
"721 494 LINE",
"831 494 LINE",
"841 514 LINE"
);
},
{
closed = 1;
nodes = (
"366 388 LINE",
"336 358 LINE",
"336 257 LINE SMOOTH",
"336 189 OFFCURVE",
"316 149 OFFCURVE",
"263 149 CURVE SMOOTH",
"237 149 OFFCURVE",
"215 164 OFFCURVE",
"200 182 CURVE",
"251 229 OFFCURVE",
"273 277 OFFCURVE",
"273 334 CURVE SMOOTH",
"273 383 OFFCURVE",
"257 439 OFFCURVE",
"227 494 CURVE",
"554 494 LINE",
"554 388 LINE"
);
}
);
width = 791;
},
{
anchors = (
{
name = bottom;
position = "{643, 0}";
},
{
name = top;
position = "{594, 622}";
}
);
layerId = "7DD510ED-E696-4B04-90C7-292E6BE56412";
paths = (
{
closed = 1;
nodes = (
"744 622 LINE",
"-30 622 LINE",
"-35 613 LINE",
"-13 555 LINE",
"109 555 LINE",
"133 517 OFFCURVE",
"143 476 OFFCURVE",
"143 443 CURVE SMOOTH",
"143 380 OFFCURVE",
"109 326 OFFCURVE",
"63 272 CURVE",
"105 163 OFFCURVE",
"191 66 OFFCURVE",
"287 66 CURVE SMOOTH",
"392 66 OFFCURVE",
"423 135 OFFCURVE",
"423 256 CURVE SMOOTH",
"423 313 LINE",
"561 313 LINE",
"561 8 LINE",
"634 -29 LINE",
"643 -24 LINE",
"643 555 LINE",
"762 555 LINE",
"766 565 LINE"
);
},
{
closed = 1;
nodes = (
"367 375 LINE",
"346 354 LINE",
"346 258 LINE SMOOTH",
"346 177 OFFCURVE",
"323 132 OFFCURVE",
"261 132 CURVE SMOOTH",
"212 132 OFFCURVE",
"172 180 OFFCURVE",
"146 234 CURVE",
"195 290 OFFCURVE",
"222 343 OFFCURVE",
"222 403 CURVE SMOOTH",
"222 449 OFFCURVE",
"205 503 OFFCURVE",
"175 555 CURVE",
"561 555 LINE",
"561 375 LINE"
);
}
);
width = 731;
}
);
leftKerningGroup = khaL;
rightKerningGroup = vert;
unicode = 0A2F;
},
{
glyphname = raguru;
lastChange = "2020-02-26 20:16:57 +0000";
layers = (
{
anchors = (
{
name = bottom;
position = "{385, 0}";
},
{
name = top;
position = "{380, 622}";
}
);
layerId = "1D4F67F9-897D-45AD-B7F0-CA61A6862C03";
paths = (
{
closed = 1;
nodes = (
"510 622 LINE",
"-24 622 LINE",
"-25 620 LINE",
"-15 596 LINE",
"369 596 LINE",
"369 391 LINE",
"187 391 LINE SMOOTH",
"67 391 OFFCURVE",
"31 326 OFFCURVE",
"31 265 CURVE SMOOTH",
"31 151 OFFCURVE",
"176 -1 OFFCURVE",
"284 -1 CURVE SMOOTH",
"347 -1 OFFCURVE",
"395 42 OFFCURVE",
"395 176 CURVE SMOOTH",
"395 596 LINE",
"519 596 LINE",
"520 598 LINE"
);
},
{
closed = 1;
nodes = (
"191 27 OFFCURVE",
"59 159 OFFCURVE",
"59 262 CURVE SMOOTH",
"59 318 OFFCURVE",
"93 365 OFFCURVE",
"195 365 CURVE SMOOTH",
"369 365 LINE",
"369 189 LINE SMOOTH",
"369 91 OFFCURVE",
"348 27 OFFCURVE",
"279 27 CURVE SMOOTH"
);
}
);
width = 495;
},
{
anchors = (
{
name = bottom;
position = "{495, 0}";
},
{
name = top;
position = "{415, 622}";
}
);
layerId = "E17BEC9D-CAAD-449F-91D9-03766E30097E";
paths = (
{
closed = 1;
nodes = (
"585 622 LINE",
"-40 622 LINE",
"-50 602 LINE",
"-10 494 LINE",
"338 494 LINE",
"338 399 LINE",
"199 399 LINE SMOOTH",
"68 399 OFFCURVE",
"19 323 OFFCURVE",
"19 242 CURVE SMOOTH",
"19 112 OFFCURVE",
"164 -48 OFFCURVE",
"338 -48 CURVE SMOOTH",
"467 -48 OFFCURVE",
"505 39 OFFCURVE",
"505 179 CURVE SMOOTH",
"505 494 LINE",
"615 494 LINE",
"625 514 LINE"
);
},
{
closed = 1;
nodes = (
"225 61 OFFCURVE",
"182 140 OFFCURVE",
"182 194 CURVE SMOOTH",
"182 253 OFFCURVE",
"218 269 OFFCURVE",
"268 269 CURVE SMOOTH",
"338 269 LINE",
"338 151 LINE SMOOTH",
"338 83 OFFCURVE",
"317 61 OFFCURVE",
"284 61 CURVE SMOOTH"
);
}
);
width = 575;
},
{
anchors = (
{
name = bottom;
position = "{429, 0}";
},
{
name = top;
position = "{394, 622}";
}
);
layerId = "7DD510ED-E696-4B04-90C7-292E6BE56412";
paths = (
{
closed = 1;
nodes = (
"540 622 LINE",
"-30 622 LINE",
"-35 613 LINE",
"-13 555 LINE",
"357 555 LINE",
"357 394 LINE",
"192 394 LINE SMOOTH",
"67 394 OFFCURVE",
"26 325 OFFCURVE",
"26 256 CURVE SMOOTH",
"26 135 OFFCURVE",
"171 -20 OFFCURVE",
"305 -20 CURVE SMOOTH",
"395 -20 OFFCURVE",
"439 41 OFFCURVE",
"439 177 CURVE SMOOTH",
"439 555 LINE",
"557 555 LINE",
"562 565 LINE"
);
},
{
closed = 1;
nodes = (
"205 41 OFFCURVE",
"108 151 OFFCURVE",
"108 235 CURVE SMOOTH",
"108 292 OFFCURVE",
"143 327 OFFCURVE",
"224 327 CURVE SMOOTH",
"357 327 LINE",
"357 174 LINE SMOOTH",
"357 88 OFFCURVE",
"336 41 OFFCURVE",
"281 41 CURVE SMOOTH"
);
}
);
width = 527;
}
);
leftKerningGroup = gaL;
rightKerningGroup = caR;
unicode = 0A30;
},
{
glyphname = laguru;
lastChange = "2020-02-26 20:16:57 +0000";
layers = (
{
anchors = (
{
name = bottom;
position = "{477, 0}";
},
{
name = top;
position = "{471, 622}";
}
);
layerId = "1D4F67F9-897D-45AD-B7F0-CA61A6862C03";
paths = (
{
closed = 1;
nodes = (
"670 598 LINE",
"660 622 LINE",
"-24 622 LINE",
"-25 620 LINE",
"-15 596 LINE",
"150 596 LINE",
"156 538 OFFCURVE",
"172 467 OFFCURVE",
"196 398 CURVE",
"113 346 OFFCURVE",
"46 274 OFFCURVE",
"46 178 CURVE SMOOTH",
"46 96 OFFCURVE",
"105 -7 OFFCURVE",
"248 -2 CURVE",
"248 23 LINE",
"246 26 LINE",
"148 24 OFFCURVE",
"72 78 OFFCURVE",
"72 170 CURVE SMOOTH",
"72 261 OFFCURVE",
"130 327 OFFCURVE",
"205 373 CURVE",
"232 304 OFFCURVE",
"268 237 OFFCURVE",
"312 187 CURVE",
"362 245 OFFCURVE",
"399 312 OFFCURVE",
"426 380 CURVE",
"505 330 OFFCURVE",
"566 253 OFFCURVE",
"566 166 CURVE SMOOTH",
"566 90 OFFCURVE",
"509 26 OFFCURVE",
"385 26 CURVE",
"385 1 LINE",
"388 -2 LINE",
"529 -1 OFFCURVE",
"593 74 OFFCURVE",
"593 163 CURVE SMOOTH",
"593 264 OFFCURVE",
"522 345 OFFCURVE",
"434 402 CURVE",
"458 468 OFFCURVE",
"473 535 OFFCURVE",
"483 596 CURVE",
"669 596 LINE"
);
},
{
closed = 1;
nodes = (
"245 303 OFFCURVE",
"187 469 OFFCURVE",
"174 596 CURVE",
"458 596 LINE",
"438 461 OFFCURVE",
"379 304 OFFCURVE",
"312 222 CURVE"
);
}
);
width = 645;
},
{
anchors = (
{
name = bottom;
position = "{605, 0}";
},
{
name = top;
position = "{461, 622}";
}
);
layerId = "E17BEC9D-CAAD-449F-91D9-03766E30097E";
paths = (
{
closed = 1;
nodes = (
"748 514 LINE",
"708 622 LINE",
"-40 622 LINE",
"-50 602 LINE",
"-10 494 LINE",
"138 494 LINE",
"147 457 OFFCURVE",
"158 421 OFFCURVE",
"172 386 CURVE",
"76 333 OFFCURVE",
"34 259 OFFCURVE",
"34 179 CURVE SMOOTH",
"34 57 OFFCURVE",
"115 -60 OFFCURVE",
"301 -49 CURVE",
"301 86 LINE",
"282 113 LINE",
"199 115 OFFCURVE",
"163 125 OFFCURVE",
"163 155 CURVE SMOOTH",
"163 185 OFFCURVE",
"197 217 OFFCURVE",
"245 242 CURVE",
"277 191 OFFCURVE",
"314 146 OFFCURVE",
"355 107 CURVE",
"402 152 OFFCURVE",
"445 210 OFFCURVE",
"481 273 CURVE",
"521 243 OFFCURVE",
"543 210 OFFCURVE",
"543 174 CURVE SMOOTH",
"543 124 OFFCURVE",
"507 111 OFFCURVE",
"419 113 CURVE",
"419 -25 LINE",
"440 -51 LINE",
"614 -60 OFFCURVE",
"671 27 OFFCURVE",
"671 129 CURVE SMOOTH",
"671 237 OFFCURVE",
"602 314 OFFCURVE",
"528 369 CURVE",
"546 411 OFFCURVE",
"559 454 OFFCURVE",
"567 494 CURVE",
"738 494 LINE"
);
},
{
closed = 1;
nodes = (
"295 348 OFFCURVE",
"266 416 OFFCURVE",
"252 494 CURVE",
"421 494 LINE",
"406 428 OFFCURVE",
"373 356 OFFCURVE",
"331 298 CURVE"
);
}
);
width = 698;
},
{
anchors = (
{
name = bottom;
position = "{528, 0}";
},
{
name = top;
position = "{467, 622}";
}
);
layerId = "7DD510ED-E696-4B04-90C7-292E6BE56412";
paths = (
{
closed = 1;
nodes = (
"701 565 LINE",
"679 622 LINE",
"-30 622 LINE",
"-35 613 LINE",
"-13 555 LINE",
"145 555 LINE",
"152 506 OFFCURVE",
"166 449 OFFCURVE",
"186 393 CURVE",
"98 341 OFFCURVE",
"41 268 OFFCURVE",
"41 178 CURVE SMOOTH",
"41 80 OFFCURVE",
"109 -28 OFFCURVE",
"269 -21 CURVE",
"269 48 LINE",
"260 61 LINE",
"168 60 OFFCURVE",
"108 97 OFFCURVE",
"108 164 CURVE SMOOTH",
"108 231 OFFCURVE",
"157 283 OFFCURVE",
"221 321 CURVE",
"250 259 OFFCURVE",
"286 201 OFFCURVE",
"329 155 CURVE",
"378 208 OFFCURVE",
"417 271 OFFCURVE",
"448 337 CURVE",
"511 295 OFFCURVE",
"557 236 OFFCURVE",
"557 169 CURVE SMOOTH",
"557 104 OFFCURVE",
"508 60 OFFCURVE",
"399 61 CURVE",
"399 -9 LINE",
"409 -21 LINE",
"563 -24 OFFCURVE",
"624 55 OFFCURVE",
"624 149 CURVE SMOOTH",
"624 253 OFFCURVE",
"554 333 OFFCURVE",
"471 389 CURVE",
"493 445 OFFCURVE",
"507 503 OFFCURVE",
"516 555 CURVE",
"696 555 LINE"
);
},
{
closed = 1;
nodes = (
"265 321 OFFCURVE",
"218 448 OFFCURVE",
"205 555 CURVE",
"443 555 LINE",
"425 448 OFFCURVE",
"377 325 OFFCURVE",
"320 252 CURVE"
);
}
);
width = 666;
}
);
leftKerningGroup = laL;
rightKerningGroup = laR;
unicode = 0A32;
},
{
glyphname = lanuktaguru;
lastChange = "2020-02-26 20:16:57 +0000";
layers = (
{
anchors = (
{
name = bottom;
position = "{477, 0}";
},
{
name = top;
position = "{471, 622}";
}
);
components = (
{
name = nuktaguru;
transform = "{1, 0, 0, 1, 622, 67}";
}
);
layerId = "1D4F67F9-897D-45AD-B7F0-CA61A6862C03";
paths = (
{
closed = 1;
nodes = (
"710 598 LINE",
"700 622 LINE",
"-24 622 LINE",
"-25 620 LINE",
"-15 596 LINE",
"150 596 LINE",
"156 538 OFFCURVE",
"172 467 OFFCURVE",
"196 398 CURVE",
"113 346 OFFCURVE",
"46 274 OFFCURVE",
"46 178 CURVE SMOOTH",
"46 96 OFFCURVE",
"105 -7 OFFCURVE",
"248 -2 CURVE",
"248 23 LINE",
"246 26 LINE",
"148 24 OFFCURVE",
"72 78 OFFCURVE",
"72 170 CURVE SMOOTH",
"72 261 OFFCURVE",
"130 327 OFFCURVE",
"205 373 CURVE",
"232 304 OFFCURVE",
"268 237 OFFCURVE",
"312 187 CURVE",
"362 245 OFFCURVE",
"399 312 OFFCURVE",
"426 380 CURVE",
"505 330 OFFCURVE",
"566 253 OFFCURVE",
"566 166 CURVE SMOOTH",
"566 90 OFFCURVE",
"509 26 OFFCURVE",
"385 26 CURVE",
"385 1 LINE",
"388 -2 LINE",
"529 -1 OFFCURVE",
"593 74 OFFCURVE",
"593 163 CURVE SMOOTH",
"593 264 OFFCURVE",
"522 345 OFFCURVE",
"434 402 CURVE",
"458 468 OFFCURVE",
"473 535 OFFCURVE",
"483 596 CURVE",
"709 596 LINE"
);
},
{
closed = 1;
nodes = (
"245 303 OFFCURVE",
"187 469 OFFCURVE",
"174 596 CURVE",
"458 596 LINE",
"438 461 OFFCURVE",
"379 304 OFFCURVE",
"312 222 CURVE"
);
}
);
width = 685;
},
{
anchors = (
{
name = bottom;
position = "{605, 0}";
},
{
name = top;
position = "{461, 622}";
}
);
components = (
{
name = nuktaguru;
transform = "{1, 0, 0, 1, 760, 131}";
}
);
layerId = "E17BEC9D-CAAD-449F-91D9-03766E30097E";
paths = (
{
closed = 1;
nodes = (
"891 514 LINE",
"851 622 LINE",
"-40 622 LINE",
"-50 602 LINE",
"-10 494 LINE",
"138 494 LINE",
"147 457 OFFCURVE",
"158 421 OFFCURVE",
"172 386 CURVE",
"76 333 OFFCURVE",
"34 259 OFFCURVE",
"34 179 CURVE SMOOTH",
"34 57 OFFCURVE",
"115 -60 OFFCURVE",
"301 -49 CURVE",
"301 86 LINE",
"282 113 LINE",
"199 115 OFFCURVE",
"163 125 OFFCURVE",
"163 155 CURVE SMOOTH",
"163 185 OFFCURVE",
"197 217 OFFCURVE",
"245 242 CURVE",
"277 191 OFFCURVE",
"314 146 OFFCURVE",
"355 107 CURVE",
"402 152 OFFCURVE",
"445 210 OFFCURVE",
"481 273 CURVE",
"521 243 OFFCURVE",
"543 210 OFFCURVE",
"543 174 CURVE SMOOTH",
"543 124 OFFCURVE",
"507 111 OFFCURVE",
"419 113 CURVE",
"419 -25 LINE",
"440 -51 LINE",
"614 -60 OFFCURVE",
"671 27 OFFCURVE",
"671 129 CURVE SMOOTH",
"671 237 OFFCURVE",
"602 314 OFFCURVE",
"528 369 CURVE",
"546 411 OFFCURVE",
"559 454 OFFCURVE",
"567 494 CURVE",
"881 494 LINE"
);
},
{
closed = 1;
nodes = (
"295 348 OFFCURVE",
"266 416 OFFCURVE",
"252 494 CURVE",
"421 494 LINE",
"406 428 OFFCURVE",
"373 356 OFFCURVE",
"331 298 CURVE"
);
}
);
width = 841;
},
{
anchors = (
{
name = bottom;
position = "{528, 0}";
},
{
name = top;
position = "{467, 622}";
}
);
components = (
{
name = nuktaguru;
transform = "{1, 0, 0, 1, 677, 92}";
}
);
layerId = "7DD510ED-E696-4B04-90C7-292E6BE56412";
paths = (
{
closed = 1;
nodes = (
"782 565 LINE",
"760 622 LINE",
"-30 622 LINE",
"-35 613 LINE",
"-13 555 LINE",
"145 555 LINE",
"152 506 OFFCURVE",
"166 449 OFFCURVE",
"186 393 CURVE",
"98 341 OFFCURVE",
"41 268 OFFCURVE",
"41 178 CURVE SMOOTH",
"41 80 OFFCURVE",
"109 -28 OFFCURVE",
"269 -21 CURVE",
"269 48 LINE",
"260 61 LINE",
"168 60 OFFCURVE",
"108 97 OFFCURVE",
"108 164 CURVE SMOOTH",
"108 231 OFFCURVE",
"157 283 OFFCURVE",
"221 321 CURVE",
"250 259 OFFCURVE",
"286 201 OFFCURVE",
"329 155 CURVE",
"378 208 OFFCURVE",
"417 271 OFFCURVE",
"448 337 CURVE",
"511 295 OFFCURVE",
"557 236 OFFCURVE",
"557 169 CURVE SMOOTH",
"557 104 OFFCURVE",
"508 60 OFFCURVE",
"399 61 CURVE",
"399 -9 LINE",
"409 -21 LINE",
"563 -24 OFFCURVE",
"624 55 OFFCURVE",
"624 149 CURVE SMOOTH",
"624 253 OFFCURVE",
"554 333 OFFCURVE",
"471 389 CURVE",
"493 445 OFFCURVE",
"507 503 OFFCURVE",
"516 555 CURVE",
"777 555 LINE"
);
},
{
closed = 1;
nodes = (
"265 321 OFFCURVE",
"218 448 OFFCURVE",
"205 555 CURVE",
"443 555 LINE",
"425 448 OFFCURVE",
"377 325 OFFCURVE",
"320 252 CURVE"
);
}
);
width = 747;
}
);
leftKerningGroup = laL;
unicode = 0A33;
},
{
glyphname = vaguru;
lastChange = "2020-02-26 20:16:57 +0000";
layers = (
{
anchors = (
{
name = bottom;
position = "{507, 0}";
},
{
name = top;
position = "{493, 622}";
}
);
layerId = "1D4F67F9-897D-45AD-B7F0-CA61A6862C03";
paths = (
{
closed = 1;
nodes = (
"494 446 LINE",
"508 460 LINE",
"508 596 LINE",
"629 596 LINE",
"630 598 LINE",
"620 622 LINE",
"-24 622 LINE",
"-25 620 LINE",
"-15 596 LINE",
"482 596 LINE",
"482 472 LINE",
"237 472 LINE SMOOTH",
"113 472 OFFCURVE",
"56 425 OFFCURVE",
"56 353 CURVE SMOOTH",
"56 279 OFFCURVE",
"115 235 OFFCURVE",
"211 221 CURVE",
"204 201 OFFCURVE",
"198 179 OFFCURVE",
"198 153 CURVE SMOOTH",
"198 75 OFFCURVE",
"250 0 OFFCURVE",
"407 0 CURVE SMOOTH",
"523 0 LINE",
"524 2 LINE",
"515 27 LINE",
"397 27 LINE SMOOTH",
"285 27 OFFCURVE",
"225 66 OFFCURVE",
"225 149 CURVE SMOOTH",
"225 172 OFFCURVE",
"229 192 OFFCURVE",
"238 216 CURVE",
"519 216 LINE",
"520 218 LINE",
"511 243 LINE",
"285 243 LINE SMOOTH",
"163 243 OFFCURVE",
"84 271 OFFCURVE",
"84 348 CURVE SMOOTH",
"84 410 OFFCURVE",
"137 446 OFFCURVE",
"239 446 CURVE SMOOTH"
);
}
);
width = 605;
},
{
anchors = (
{
name = bottom;
position = "{555, -43}";
},
{
name = top;
position = "{468, 622}";
}
);
layerId = "E17BEC9D-CAAD-449F-91D9-03766E30097E";
paths = (
{
closed = 1;
nodes = (
"538 302 LINE",
"568 342 LINE",
"568 494 LINE",
"671 494 LINE",
"681 514 LINE",
"641 622 LINE",
"-40 622 LINE",
"-50 602 LINE",
"-10 494 LINE",
"411 494 LINE",
"411 443 LINE",
"166 443 LINE SMOOTH",
"55 443 OFFCURVE",
"11 382 OFFCURVE",
"11 314 CURVE SMOOTH",
"11 225 OFFCURVE",
"90 140 OFFCURVE",
"182 115 CURVE",
"181 111 OFFCURVE",
"180 100 OFFCURVE",
"180 93 CURVE SMOOTH",
"180 -12 OFFCURVE",
"261 -88 OFFCURVE",
"391 -88 CURVE SMOOTH",
"574 -88 LINE",
"584 -68 LINE",
"541 63 LINE",
"332 63 LINE SMOOTH",
"303 63 OFFCURVE",
"291 70 OFFCURVE",
"291 89 CURVE SMOOTH",
"291 95 OFFCURVE",
"292 101 OFFCURVE",
"295 107 CURVE",
"556 107 LINE",
"566 127 LINE",
"532 250 LINE",
"212 250 LINE SMOOTH",
"167 250 OFFCURVE",
"149 257 OFFCURVE",
"149 278 CURVE SMOOTH",
"149 297 OFFCURVE",
"166 302 OFFCURVE",
"208 302 CURVE SMOOTH"
);
}
);
width = 631;
},
{
anchors = (
{
name = bottom;
position = "{526, -17}";
},
{
name = top;
position = "{483, 622}";
}
);
layerId = "7DD510ED-E696-4B04-90C7-292E6BE56412";
paths = (
{
closed = 1;
nodes = (
"511 389 LINE",
"532 413 LINE",
"532 555 LINE",
"646 555 LINE",
"650 565 LINE",
"628 622 LINE",
"-30 622 LINE",
"-35 613 LINE",
"-13 555 LINE",
"454 555 LINE",
"454 460 LINE",
"209 460 LINE SMOOTH",
"90 460 OFFCURVE",
"38 408 OFFCURVE",
"38 337 CURVE SMOOTH",
"38 258 OFFCURVE",
"105 197 OFFCURVE",
"199 179 CURVE",
"195 165 OFFCURVE",
"191 148 OFFCURVE",
"191 129 CURVE SMOOTH",
"191 40 OFFCURVE",
"254 -35 OFFCURVE",
"401 -35 CURVE SMOOTH",
"543 -35 LINE",
"548 -26 LINE",
"525 41 LINE",
"371 41 LINE SMOOTH",
"292 41 OFFCURVE",
"251 68 OFFCURVE",
"251 125 CURVE SMOOTH",
"251 141 OFFCURVE",
"254 156 OFFCURVE",
"261 173 CURVE",
"534 173 LINE",
"538 182 LINE",
"519 246 LINE",
"256 246 LINE SMOOTH",
"165 246 OFFCURVE",
"110 265 OFFCURVE",
"110 320 CURVE SMOOTH",
"110 365 OFFCURVE",
"149 389 OFFCURVE",
"227 389 CURVE SMOOTH"
);
}
);
width = 615;
}
);
leftKerningGroup = nyaL;
rightKerningGroup = nyaR;
unicode = 0A35;
},
{
glyphname = sanuktaguru;
lastChange = "2020-02-26 20:16:57 +0000";
layers = (
{
anchors = (
{
name = _nukta;
position = "{285, 40}";
},
{
name = bottom;
position = "{475, 0}";
},
{
name = top;
position = "{460, 622}";
}
);
layerId = "1D4F67F9-897D-45AD-B7F0-CA61A6862C03";
paths = (
{
closed = 1;
nodes = (
"251 -13 OFFCURVE",
"266 -28 OFFCURVE",
"285 -28 CURVE SMOOTH",
"306 -28 OFFCURVE",
"320 -13 OFFCURVE",
"320 5 CURVE SMOOTH",
"320 24 OFFCURVE",
"305 40 OFFCURVE",
"285 40 CURVE SMOOTH",
"266 40 OFFCURVE",
"251 26 OFFCURVE",
"251 7 CURVE SMOOTH"
);
},
{
closed = 1;
nodes = (
"590 622 LINE",
"-24 622 LINE",
"-25 620 LINE",
"-15 596 LINE",
"90 596 LINE",
"123 526 OFFCURVE",
"151 379 OFFCURVE",
"147 287 CURVE",
"111 237 OFFCURVE",
"77 165 OFFCURVE",
"77 125 CURVE SMOOTH",
"77 102 OFFCURVE",
"90 92 OFFCURVE",
"105 92 CURVE SMOOTH",
"144 92 OFFCURVE",
"172 195 OFFCURVE",
"176 271 CURVE",
"449 271 LINE",
"449 0 LINE",
"472 -15 LINE",
"475 -13 LINE",
"475 596 LINE",
"599 596 LINE",
"600 598 LINE"
);
},
{
closed = 1;
nodes = (
"176 297 LINE",
"176 375 OFFCURVE",
"153 508 OFFCURVE",
"118 596 CURVE",
"449 596 LINE",
"449 297 LINE"
);
}
);
width = 575;
},
{
anchors = (
{
name = _nukta;
position = "{331, 70}";
},
{
name = bottom;
position = "{616, -53}";
},
{
name = top;
position = "{527, 622}";
}
);
layerId = "E17BEC9D-CAAD-449F-91D9-03766E30097E";
paths = (
{
closed = 1;
nodes = (
"246 -72 OFFCURVE",
"281 -107 OFFCURVE",
"332 -107 CURVE SMOOTH",
"382 -107 OFFCURVE",
"414 -72 OFFCURVE",
"414 -24 CURVE SMOOTH",
"414 28 OFFCURVE",
"380 61 OFFCURVE",
"330 61 CURVE SMOOTH",
"279 61 OFFCURVE",
"246 25 OFFCURVE",
"246 -20 CURVE SMOOTH"
);
},
{
closed = 1;
nodes = (
"696 622 LINE",
"-40 622 LINE",
"-50 602 LINE",
"-10 494 LINE",
"113 494 LINE",
"132 434 OFFCURVE",
"139 358 OFFCURVE",
"134 295 CURVE",
"67 234 OFFCURVE",
"49 174 OFFCURVE",
"49 131 CURVE SMOOTH",
"49 63 OFFCURVE",
"93 24 OFFCURVE",
"149 24 CURVE SMOOTH",
"231 24 OFFCURVE",
"283 105 OFFCURVE",
"295 205 CURVE",
"449 205 LINE",
"449 20 LINE",
"596 -50 LINE",
"616 -40 LINE",
"616 494 LINE",
"726 494 LINE",
"736 514 LINE"
);
},
{
closed = 1;
nodes = (
"288 322 LINE",
"283 377 OFFCURVE",
"267 438 OFFCURVE",
"246 494 CURVE",
"449 494 LINE",
"449 322 LINE"
);
}
);
width = 686;
},
{
anchors = (
{
name = _nukta;
position = "{303, 52}";
},
{
name = bottom;
position = "{531, -21}";
},
{
name = top;
position = "{487, 622}";
}
);
layerId = "7DD510ED-E696-4B04-90C7-292E6BE56412";
paths = (
{
closed = 1;
nodes = (
"249 -36 OFFCURVE",
"272 -59 OFFCURVE",
"304 -59 CURVE SMOOTH",
"336 -59 OFFCURVE",
"357 -36 OFFCURVE",
"357 -7 CURVE SMOOTH",
"357 26 OFFCURVE",
"335 48 OFFCURVE",
"303 48 CURVE SMOOTH",
"271 48 OFFCURVE",
"249 26 OFFCURVE",
"249 -4 CURVE SMOOTH"
);
},
{
closed = 1;
nodes = (
"632 622 LINE",
"-30 622 LINE",
"-35 613 LINE",
"-13 555 LINE",
"99 555 LINE",
"127 489 OFFCURVE",
"146 371 OFFCURVE",
"142 290 CURVE",
"94 236 OFFCURVE",
"66 169 OFFCURVE",
"66 127 CURVE SMOOTH",
"66 86 OFFCURVE",
"91 65 OFFCURVE",
"122 65 CURVE SMOOTH",
"179 65 OFFCURVE",
"216 159 OFFCURVE",
"223 245 CURVE",
"449 245 LINE",
"449 8 LINE",
"521 -29 LINE",
"531 -24 LINE",
"531 555 LINE",
"649 555 LINE",
"654 565 LINE"
);
},
{
closed = 1;
nodes = (
"221 307 LINE",
"219 376 OFFCURVE",
"198 480 OFFCURVE",
"169 555 CURVE",
"449 555 LINE",
"449 307 LINE"
);
}
);
width = 619;
}
);
leftKerningGroup = maL;
rightKerningGroup = vert;
unicode = 0A36;
},
{
glyphname = saguru;
lastChange = "2020-02-26 20:16:57 +0000";
layers = (
{
anchors = (
{
name = bottom;
position = "{475, 0}";
},
{
name = top;
position = "{460, 622}";
}
);
layerId = "1D4F67F9-897D-45AD-B7F0-CA61A6862C03";
paths = (
{
closed = 1;
nodes = (
"590 622 LINE",
"-24 622 LINE",
"-25 620 LINE",
"-15 596 LINE",
"90 596 LINE",
"123 526 OFFCURVE",
"151 379 OFFCURVE",
"147 287 CURVE",
"111 237 OFFCURVE",
"77 165 OFFCURVE",
"77 125 CURVE SMOOTH",
"77 102 OFFCURVE",
"90 92 OFFCURVE",
"105 92 CURVE SMOOTH",
"144 92 OFFCURVE",
"172 195 OFFCURVE",
"176 271 CURVE",
"449 271 LINE",
"449 0 LINE",
"472 -15 LINE",
"475 -13 LINE",
"475 596 LINE",
"599 596 LINE",
"600 598 LINE"
);
},
{
closed = 1;
nodes = (
"176 297 LINE",
"176 375 OFFCURVE",
"153 508 OFFCURVE",
"118 596 CURVE",
"449 596 LINE",
"449 297 LINE"
);
}
);
width = 575;
},
{
anchors = (
{
name = bottom;
position = "{606, 0}";
},
{
name = top;
position = "{506, 622}";
}
);
layerId = "E17BEC9D-CAAD-449F-91D9-03766E30097E";
paths = (
{
closed = 1;
nodes = (
"686 622 LINE",
"-40 622 LINE",
"-50 602 LINE",
"-10 494 LINE",
"113 494 LINE",
"132 434 OFFCURVE",
"139 358 OFFCURVE",
"134 295 CURVE",
"67 234 OFFCURVE",
"49 174 OFFCURVE",
"49 131 CURVE SMOOTH",
"49 63 OFFCURVE",
"93 24 OFFCURVE",
"149 24 CURVE SMOOTH",
"231 24 OFFCURVE",
"283 105 OFFCURVE",
"295 205 CURVE",
"439 205 LINE",
"439 20 LINE",
"586 -50 LINE",
"606 -40 LINE",
"606 494 LINE",
"716 494 LINE",
"726 514 LINE"
);
},
{
closed = 1;
nodes = (
"288 322 LINE",
"283 377 OFFCURVE",
"267 438 OFFCURVE",
"246 494 CURVE",
"439 494 LINE",
"439 322 LINE"
);
}
);
width = 676;
},
{
anchors = (
{
name = bottom;
position = "{527, 0}";
},
{
name = top;
position = "{478, 622}";
}
);
layerId = "7DD510ED-E696-4B04-90C7-292E6BE56412";
paths = (
{
closed = 1;
nodes = (
"628 622 LINE",
"-30 622 LINE",
"-35 613 LINE",
"-13 555 LINE",
"99 555 LINE",
"127 489 OFFCURVE",
"146 371 OFFCURVE",
"142 290 CURVE",
"94 236 OFFCURVE",
"66 169 OFFCURVE",
"66 127 CURVE SMOOTH",
"66 86 OFFCURVE",
"91 65 OFFCURVE",
"122 65 CURVE SMOOTH",
"179 65 OFFCURVE",
"216 159 OFFCURVE",
"223 245 CURVE",
"445 245 LINE",
"445 8 LINE",
"517 -29 LINE",
"527 -24 LINE",
"527 555 LINE",
"646 555 LINE",
"650 565 LINE"
);
},
{
closed = 1;
nodes = (
"221 307 LINE",
"219 376 OFFCURVE",
"198 480 OFFCURVE",
"169 555 CURVE",
"445 555 LINE",
"445 307 LINE"
);
}
);
width = 615;
}
);
leftKerningGroup = maL;
rightKerningGroup = vert;
unicode = 0A38;
},
{
glyphname = haguru;
lastChange = "2020-02-26 20:16:57 +0000";
layers = (
{
anchors = (
{
name = bottom;
position = "{385, 0}";
},
{
name = top;
position = "{380, 622}";
}
);
layerId = "1D4F67F9-897D-45AD-B7F0-CA61A6862C03";
paths = (
{
closed = 1;
nodes = (
"510 622 LINE",
"-24 622 LINE",
"-25 620 LINE",
"-15 596 LINE",
"369 596 LINE",
"369 199 LINE SMOOTH",
"369 91 OFFCURVE",
"348 27 OFFCURVE",
"279 27 CURVE SMOOTH",
"181 27 OFFCURVE",
"59 159 OFFCURVE",
"59 262 CURVE SMOOTH",
"59 318 OFFCURVE",
"93 365 OFFCURVE",
"195 365 CURVE SMOOTH",
"259 365 LINE",
"260 367 LINE",
"250 391 LINE",
"187 391 LINE SMOOTH",
"67 391 OFFCURVE",
"31 326 OFFCURVE",
"31 265 CURVE SMOOTH",
"31 151 OFFCURVE",
"166 -1 OFFCURVE",
"284 -1 CURVE SMOOTH",
"347 -1 OFFCURVE",
"395 42 OFFCURVE",
"395 186 CURVE SMOOTH",
"395 596 LINE",
"519 596 LINE",
"520 598 LINE"
);
}
);
width = 495;
},
{
anchors = (
{
name = bottom;
position = "{505, 0}";
},
{
name = top;
position = "{415, 622}";
}
);
layerId = "E17BEC9D-CAAD-449F-91D9-03766E30097E";
paths = (
{
closed = 1;
nodes = (
"595 622 LINE",
"-40 622 LINE",
"-50 602 LINE",
"-10 494 LINE",
"348 494 LINE",
"348 161 LINE SMOOTH",
"348 93 OFFCURVE",
"332 61 OFFCURVE",
"289 61 CURVE SMOOTH",
"232 61 OFFCURVE",
"189 130 OFFCURVE",
"189 194 CURVE SMOOTH",
"189 253 OFFCURVE",
"225 269 OFFCURVE",
"275 269 CURVE SMOOTH",
"301 269 LINE",
"312 291 LINE",
"272 399 LINE",
"206 399 LINE SMOOTH",
"75 399 OFFCURVE",
"26 324 OFFCURVE",
"26 239 CURVE SMOOTH",
"26 112 OFFCURVE",
"173 -48 OFFCURVE",
"341 -48 CURVE SMOOTH",
"477 -48 OFFCURVE",
"515 41 OFFCURVE",
"515 179 CURVE SMOOTH",
"515 494 LINE",
"625 494 LINE",
"635 514 LINE"
);
}
);
width = 585;
},
{
anchors = (
{
name = bottom;
position = "{433, 0}";
},
{
name = top;
position = "{394, 622}";
}
);
layerId = "7DD510ED-E696-4B04-90C7-292E6BE56412";
paths = (
{
closed = 1;
nodes = (
"544 622 LINE",
"-30 622 LINE",
"-35 613 LINE",
"-13 555 LINE",
"361 555 LINE",
"361 184 LINE SMOOTH",
"361 92 OFFCURVE",
"342 41 OFFCURVE",
"283 41 CURVE SMOOTH",
"201 41 OFFCURVE",
"111 147 OFFCURVE",
"111 235 CURVE SMOOTH",
"111 292 OFFCURVE",
"145 327 OFFCURVE",
"227 327 CURVE SMOOTH",
"276 327 LINE",
"281 337 LINE",
"259 394 LINE",
"195 394 LINE SMOOTH",
"70 394 OFFCURVE",
"29 325 OFFCURVE",
"29 255 CURVE SMOOTH",
"29 135 OFFCURVE",
"169 -20 OFFCURVE",
"307 -20 CURVE SMOOTH",
"399 -20 OFFCURVE",
"443 42 OFFCURVE",
"443 183 CURVE SMOOTH",
"443 555 LINE",
"561 555 LINE",
"566 565 LINE"
);
}
);
width = 531;
}
);
leftKerningGroup = gaL;
rightKerningGroup = caR;
unicode = 0A39;
},
{
glyphname = nuktaguru;
lastChange = "2020-02-26 20:16:57 +0000";
layers = (
{
anchors = (
{
name = _nukta;
position = "{0, 0}";
}
);
layerId = "1D4F67F9-897D-45AD-B7F0-CA61A6862C03";
paths = (
{
closed = 1;
nodes = (
"-34 -53 OFFCURVE",
"-19 -68 OFFCURVE",
"0 -68 CURVE SMOOTH",
"21 -68 OFFCURVE",
"35 -53 OFFCURVE",
"35 -35 CURVE SMOOTH",
"35 -16 OFFCURVE",
"20 0 OFFCURVE",
"0 0 CURVE SMOOTH",
"-19 0 OFFCURVE",
"-34 -14 OFFCURVE",
"-34 -33 CURVE SMOOTH"
);
}
);
width = 0;
},
{
anchors = (
{
name = _nukta;
position = "{0, 0}";
}
);
layerId = "E17BEC9D-CAAD-449F-91D9-03766E30097E";
paths = (
{
closed = 1;
nodes = (
"-85 -142 OFFCURVE",
"-49 -178 OFFCURVE",
"2 -178 CURVE SMOOTH",
"51 -178 OFFCURVE",
"85 -142 OFFCURVE",
"85 -94 CURVE SMOOTH",
"85 -43 OFFCURVE",
"50 -8 OFFCURVE",
"0 -8 CURVE SMOOTH",
"-50 -8 OFFCURVE",
"-85 -45 OFFCURVE",
"-85 -90 CURVE SMOOTH"
);
}
);
width = 0;
},
{
anchors = (
{
name = _nukta;
position = "{0, 0}";
}
);
layerId = "7DD510ED-E696-4B04-90C7-292E6BE56412";
paths = (
{
closed = 1;
nodes = (
"-54 -88 OFFCURVE",
"-31 -112 OFFCURVE",
"1 -112 CURVE SMOOTH",
"33 -112 OFFCURVE",
"55 -88 OFFCURVE",
"55 -58 CURVE SMOOTH",
"55 -27 OFFCURVE",
"32 -3 OFFCURVE",
"0 -3 CURVE SMOOTH",
"-31 -3 OFFCURVE",
"-54 -26 OFFCURVE",
"-54 -56 CURVE SMOOTH"
);
}
);
width = 0;
}
);
unicode = 0A3C;
},
{
glyphname = aamatraguru;
production = uni0A3E;
lastChange = "2020-02-26 20:16:57 +0000";
layers = (
{
anchors = (
{
name = top;
position = "{101, 622}";
}
);
layerId = "1D4F67F9-897D-45AD-B7F0-CA61A6862C03";
paths = (
{
closed = 1;
nodes = (
"231 622 LINE",
"-24 622 LINE",
"-25 620 LINE",
"-15 596 LINE",
"90 596 LINE",
"90 220 LINE",
"113 205 LINE",
"116 207 LINE",
"116 596 LINE",
"240 596 LINE",
"241 598 LINE"
);
}
);
width = 216;
},
{
anchors = (
{
name = top;
position = "{131, 622}";
}
);
layerId = "E17BEC9D-CAAD-449F-91D9-03766E30097E";
paths = (
{
closed = 1;
nodes = (
"301 622 LINE",
"-40 622 LINE",
"-50 602 LINE",
"-10 494 LINE",
"54 494 LINE",
"54 190 LINE",
"201 120 LINE",
"221 130 LINE",
"221 494 LINE",
"331 494 LINE",
"341 514 LINE"
);
}
);
width = 291;
},
{
anchors = (
{
name = top;
position = "{113, 622}";
}
);
layerId = "7DD510ED-E696-4B04-90C7-292E6BE56412";
paths = (
{
closed = 1;
nodes = (
"259 622 LINE",
"-30 622 LINE",
"-35 613 LINE",
"-13 555 LINE",
"76 555 LINE",
"76 208 LINE",
"148 171 LINE",
"158 176 LINE",
"158 555 LINE",
"276 555 LINE",
"281 565 LINE"
);
}
);
width = 246;
}
);
leftKerningGroup = aamatraL;
rightKerningGroup = aamatraR;
unicode = 0A3E;
script = gurmukhi;
category = Letter;
subCategory = Matra;
},
{
glyphname = imatraguru;
production = uni0A3F;
lastChange = "2020-02-26 20:16:57 +0000";
layers = (
{
anchors = (
{
name = top;
position = "{585, 622}";
}
);
layerId = "1D4F67F9-897D-45AD-B7F0-CA61A6862C03";
paths = (
{
closed = 1;
nodes = (
"146 899 OFFCURVE",
"70 835 OFFCURVE",
"70 732 CURVE SMOOTH",
"70 699 OFFCURVE",
"78 670 OFFCURVE",
"97 622 CURVE",
"-24 622 LINE",
"-25 620 LINE",
"-15 596 LINE",
"100 596 LINE",
"100 0 LINE",
"123 -15 LINE",
"126 -13 LINE",
"126 596 LINE",
"250 596 LINE",
"251 598 LINE",
"241 622 LINE",
"123 622 LINE",
"107 661 OFFCURVE",
"96 691 OFFCURVE",
"96 729 CURVE SMOOTH",
"96 827 OFFCURVE",
"169 871 OFFCURVE",
"241 871 CURVE SMOOTH",
"349 871 OFFCURVE",
"408 772 OFFCURVE",
"445 659 CURVE",
"459 659 LINE",
"460 661 LINE",
"428 803 OFFCURVE",
"344 899 OFFCURVE",
"235 899 CURVE SMOOTH"
);
}
);
width = 222;
},
{
anchors = (
{
name = top;
position = "{735, 622}";
}
);
layerId = "E17BEC9D-CAAD-449F-91D9-03766E30097E";
paths = (
{
closed = 1;
nodes = (
"167 937 OFFCURVE",
"74 855 OFFCURVE",
"74 729 CURVE SMOOTH",
"74 693 OFFCURVE",
"82 658 OFFCURVE",
"102 622 CURVE",
"-40 622 LINE",
"-50 602 LINE",
"-10 494 LINE",
"84 494 LINE",
"84 20 LINE",
"231 -50 LINE",
"251 -40 LINE",
"251 494 LINE",
"371 494 LINE",
"381 514 LINE",
"341 622 LINE",
"231 622 LINE",
"222 642 OFFCURVE",
"217 663 OFFCURVE",
"217 683 CURVE SMOOTH",
"217 742 OFFCURVE",
"258 785 OFFCURVE",
"329 785 CURVE SMOOTH",
"399 785 OFFCURVE",
"441 743 OFFCURVE",
"482 650 CURVE",
"533 650 LINE",
"543 661 LINE",
"530 811 OFFCURVE",
"448 937 OFFCURVE",
"292 937 CURVE SMOOTH"
);
}
);
width = 312;
},
{
anchors = (
{
name = top;
position = "{645, 622}";
}
);
layerId = "7DD510ED-E696-4B04-90C7-292E6BE56412";
paths = (
{
closed = 1;
nodes = (
"154 914 OFFCURVE",
"72 843 OFFCURVE",
"72 731 CURVE SMOOTH",
"72 697 OFFCURVE",
"80 665 OFFCURVE",
"99 622 CURVE",
"-30 622 LINE",
"-35 613 LINE",
"-13 555 LINE",
"94 555 LINE",
"94 8 LINE",
"166 -29 LINE",
"176 -24 LINE",
"176 555 LINE",
"298 555 LINE",
"303 565 LINE",
"281 622 LINE",
"166 622 LINE",
"153 653 OFFCURVE",
"144 680 OFFCURVE",
"144 711 CURVE SMOOTH",
"144 793 OFFCURVE",
"204 837 OFFCURVE",
"276 837 CURVE SMOOTH",
"369 837 OFFCURVE",
"421 760 OFFCURVE",
"460 655 CURVE",
"488 655 LINE",
"493 661 LINE",
"469 806 OFFCURVE",
"385 914 OFFCURVE",
"258 914 CURVE SMOOTH"
);
}
);
width = 258;
}
);
leftKerningGroup = imatraL;
rightKerningGroup = imatraR;
unicode = 0A3F;
script = gurmukhi;
category = Letter;
subCategory = Matra;
},
{
glyphname = iimatraguru;
production = uni0A40;
lastChange = "2020-02-26 20:16:57 +0000";
layers = (
{
layerId = "1D4F67F9-897D-45AD-B7F0-CA61A6862C03";
paths = (
{
closed = 1;
nodes = (
"261 622 LINE",
"145 622 LINE",
"142 708 OFFCURVE",
"125 775 OFFCURVE",
"95 823 CURVE SMOOTH",
"61 878 OFFCURVE",
"6 903 OFFCURVE",
"-43 903 CURVE SMOOTH",
"-119 903 OFFCURVE",
"-182 850 OFFCURVE",
"-182 769 CURVE SMOOTH",
"-182 721 OFFCURVE",
"-160 681 OFFCURVE",
"-142 659 CURVE",
"-130 659 LINE",
"-129 661 LINE",
"-142 689 OFFCURVE",
"-156 725 OFFCURVE",
"-156 757 CURVE SMOOTH",
"-156 824 OFFCURVE",
"-112 874 OFFCURVE",
"-38 874 CURVE SMOOTH",
"7 874 OFFCURVE",
"53 849 OFFCURVE",
"78 804 CURVE SMOOTH",
"101 762 OFFCURVE",
"118 701 OFFCURVE",
"120 622 CURVE",
"-24 622 LINE",
"-25 620 LINE",
"-15 596 LINE",
"120 596 LINE",
"120 0 LINE",
"143 -15 LINE",
"146 -13 LINE",
"146 596 LINE",
"270 596 LINE",
"271 598 LINE"
);
}
);
width = 246;
},
{
layerId = "E17BEC9D-CAAD-449F-91D9-03766E30097E";
paths = (
{
closed = 1;
nodes = (
"329 622 LINE",
"229 622 LINE",
"218 698 OFFCURVE",
"194 769 OFFCURVE",
"148 831 CURVE SMOOTH",
"99 897 OFFCURVE",
"34 941 OFFCURVE",
"-52 941 CURVE SMOOTH",
"-166 941 OFFCURVE",
"-235 864 OFFCURVE",
"-235 787 CURVE SMOOTH",
"-235 734 OFFCURVE",
"-202 684 OFFCURVE",
"-148 650 CURVE",
"-105 650 LINE",
"-93 665 LINE",
"-101 683 OFFCURVE",
"-102 701 OFFCURVE",
"-102 711 CURVE SMOOTH",
"-102 764 OFFCURVE",
"-69 798 OFFCURVE",
"-23 798 CURVE SMOOTH",
"17 798 OFFCURVE",
"44 773 OFFCURVE",
"58 736 CURVE SMOOTH",
"70 706 OFFCURVE",
"71 665 OFFCURVE",
"72 622 CURVE",
"-42 622 LINE",
"-52 602 LINE",
"-12 494 LINE",
"72 494 LINE",
"72 20 LINE",
"219 -50 LINE",
"239 -40 LINE",
"239 494 LINE",
"359 494 LINE",
"369 514 LINE"
);
}
);
width = 319;
},
{
layerId = "7DD510ED-E696-4B04-90C7-292E6BE56412";
paths = (
{
closed = 1;
nodes = (
"288 622 LINE",
"178 622 LINE",
"172 704 OFFCURVE",
"152 773 OFFCURVE",
"116 826 CURVE SMOOTH",
"76 886 OFFCURVE",
"17 918 OFFCURVE",
"-47 918 CURVE SMOOTH",
"-138 918 OFFCURVE",
"-203 856 OFFCURVE",
"-203 776 CURVE SMOOTH",
"-203 726 OFFCURVE",
"-177 682 OFFCURVE",
"-144 655 CURVE",
"-120 655 LINE",
"-115 663 LINE",
"-126 687 OFFCURVE",
"-135 715 OFFCURVE",
"-135 739 CURVE SMOOTH",
"-135 800 OFFCURVE",
"-95 844 OFFCURVE",
"-32 844 CURVE SMOOTH",
"11 844 OFFCURVE",
"49 819 OFFCURVE",
"70 777 CURVE SMOOTH",
"89 740 OFFCURVE",
"99 687 OFFCURVE",
"101 622 CURVE",
"-31 622 LINE",
"-36 613 LINE",
"-14 555 LINE",
"101 555 LINE",
"101 8 LINE",
"173 -29 LINE",
"183 -24 LINE",
"183 555 LINE",
"305 555 LINE",
"310 565 LINE"
);
}
);
width = 275;
}
);
leftKerningGroup = iimatraL;
rightKerningGroup = vert;
unicode = 0A40;
script = gurmukhi;
category = Letter;
subCategory = Matra;
},
{
glyphname = umatraguru;
lastChange = "2020-02-26 20:16:57 +0000";
layers = (
{
anchors = (
{
name = _bottom;
position = "{-98, 0}";
}
);
layerId = "1D4F67F9-897D-45AD-B7F0-CA61A6862C03";
paths = (
{
closed = 1;
nodes = (
"-424 -89 LINE",
"-317 -174 OFFCURVE",
"-173 -167 OFFCURVE",
"-74 -89 CURVE",
"-88 -69 LINE",
"-176 -138 OFFCURVE",
"-307 -151 OFFCURVE",
"-412 -69 CURVE"
);
}
);
width = 0;
},
{
anchors = (
{
name = _bottom;
position = "{-74, 0}";
}
);
layerId = "E17BEC9D-CAAD-449F-91D9-03766E30097E";
paths = (
{
closed = 1;
nodes = (
"-501 -133 LINE",
"-397 -282 OFFCURVE",
"-186 -305 OFFCURVE",
"-64 -192 CURVE",
"-116 -72 LINE",
"-223 -152 OFFCURVE",
"-370 -150 OFFCURVE",
"-465 -72 CURVE"
);
}
);
width = 0;
},
{
anchors = (
{
name = _bottom;
position = "{-88, 0}";
}
);
layerId = "7DD510ED-E696-4B04-90C7-292E6BE56412";
paths = (
{
closed = 1;
nodes = (
"-455 -106 LINE",
"-349 -217 OFFCURVE",
"-178 -222 OFFCURVE",
"-70 -130 CURVE",
"-99 -70 LINE",
"-195 -144 OFFCURVE",
"-332 -151 OFFCURVE",
"-433 -70 CURVE"
);
}
);
width = 0;
}
);
unicode = 0A41;
},
{
glyphname = uumatraguru;
lastChange = "2020-02-26 20:16:57 +0000";
layers = (
{
anchors = (
{
name = _bottom;
position = "{-108, 0}";
}
);
layerId = "1D4F67F9-897D-45AD-B7F0-CA61A6862C03";
paths = (
{
closed = 1;
nodes = (
"-412 -89 LINE",
"-315 -161 OFFCURVE",
"-192 -153 OFFCURVE",
"-95 -90 CURVE",
"-106 -69 LINE",
"-192 -124 OFFCURVE",
"-303 -140 OFFCURVE",
"-401 -70 CURVE"
);
},
{
closed = 1;
nodes = (
"-437 -179 LINE",
"-322 -270 OFFCURVE",
"-165 -262 OFFCURVE",
"-66 -179 CURVE",
"-79 -159 LINE",
"-167 -233 OFFCURVE",
"-311 -248 OFFCURVE",
"-424 -160 CURVE"
);
}
);
width = 0;
},
{
anchors = (
{
name = _bottom;
position = "{-86, 0}";
}
);
layerId = "E17BEC9D-CAAD-449F-91D9-03766E30097E";
paths = (
{
closed = 1;
nodes = (
"-480 -122 LINE",
"-381 -253 OFFCURVE",
"-186 -254 OFFCURVE",
"-76 -162 CURVE",
"-125 -59 LINE",
"-222 -123 OFFCURVE",
"-349 -124 OFFCURVE",
"-446 -61 CURVE"
);
},
{
closed = 1;
nodes = (
"-497 -248 LINE",
"-401 -383 OFFCURVE",
"-174 -408 OFFCURVE",
"-46 -302 CURVE",
"-93 -205 LINE",
"-205 -281 OFFCURVE",
"-377 -262 OFFCURVE",
"-461 -186 CURVE"
);
}
);
width = 0;
},
{
anchors = (
{
name = _bottom;
position = "{-99, 0}";
}
);
layerId = "7DD510ED-E696-4B04-90C7-292E6BE56412";
paths = (
{
closed = 1;
nodes = (
"-439 -102 LINE",
"-341 -198 OFFCURVE",
"-190 -193 OFFCURVE",
"-87 -119 CURVE",
"-114 -65 LINE",
"-204 -124 OFFCURVE",
"-321 -134 OFFCURVE",
"-419 -66 CURVE"
);
},
{
closed = 1;
nodes = (
"-461 -206 LINE",
"-353 -315 OFFCURVE",
"-169 -320 OFFCURVE",
"-58 -228 CURVE",
"-85 -177 LINE",
"-182 -252 OFFCURVE",
"-337 -254 OFFCURVE",
"-439 -170 CURVE"
);
}
);
width = 0;
}
);
unicode = 0A42;
},
{
glyphname = eematraguru;
lastChange = "2020-02-26 20:16:57 +0000";
layers = (
{
anchors = (
{
name = _top;
position = "{-121, 622}";
}
);
layerId = "1D4F67F9-897D-45AD-B7F0-CA61A6862C03";
paths = (
{
closed = 1;
nodes = (
"-401 857 LINE",
"-350 857 LINE SMOOTH",
"-301 857 OFFCURVE",
"-280 851 OFFCURVE",
"-255 830 CURVE SMOOTH",
"-214 795 OFFCURVE",
"-185 744 OFFCURVE",
"-122 600 CURVE",
"-96 600 LINE",
"-108 626 OFFCURVE",
"-119 653 OFFCURVE",
"-131 679 CURVE SMOOTH",
"-164 753 OFFCURVE",
"-194 810 OFFCURVE",
"-229 844 CURVE SMOOTH",
"-266 880 OFFCURVE",
"-304 889 OFFCURVE",
"-352 889 CURVE SMOOTH",
"-404 889 LINE",
"-404 860 LINE"
);
}
);
width = 0;
},
{
anchors = (
{
name = _top;
position = "{-166, 622}";
}
);
layerId = "E17BEC9D-CAAD-449F-91D9-03766E30097E";
paths = (
{
closed = 1;
nodes = (
"-482 771 LINE",
"-376 771 LINE SMOOTH",
"-332 771 OFFCURVE",
"-288 763 OFFCURVE",
"-261 744 CURVE SMOOTH",
"-219 714 OFFCURVE",
"-190 656 OFFCURVE",
"-147 556 CURVE",
"-62 556 LINE",
"-85 611 OFFCURVE",
"-90 623 OFFCURVE",
"-109 666 CURVE SMOOTH",
"-140 736 OFFCURVE",
"-182 822 OFFCURVE",
"-221 858 CURVE SMOOTH",
"-264 898 OFFCURVE",
"-315 921 OFFCURVE",
"-392 921 CURVE SMOOTH",
"-502 921 LINE",
"-502 791 LINE"
);
}
);
width = 0;
},
{
anchors = (
{
name = _top;
position = "{-139, 622}";
}
);
layerId = "7DD510ED-E696-4B04-90C7-292E6BE56412";
paths = (
{
closed = 1;
nodes = (
"-433 823 LINE",
"-360 823 LINE SMOOTH",
"-313 823 OFFCURVE",
"-283 816 OFFCURVE",
"-257 796 CURVE SMOOTH",
"-215 764 OFFCURVE",
"-187 709 OFFCURVE",
"-132 583 CURVE",
"-82 583 LINE",
"-99 620 OFFCURVE",
"-114 656 OFFCURVE",
"-129 689 CURVE SMOOTH",
"-161 760 OFFCURVE",
"-190 815 OFFCURVE",
"-226 850 CURVE SMOOTH",
"-265 888 OFFCURVE",
"-308 902 OFFCURVE",
"-368 902 CURVE SMOOTH",
"-443 902 LINE",
"-443 833 LINE"
);
}
);
width = 0;
}
);
unicode = 0A47;
},
{
glyphname = aimatraguru;
lastChange = "2020-02-26 20:16:57 +0000";
layers = (
{
anchors = (
{
name = _top;
position = "{-118, 622}";
}
);
layerId = "1D4F67F9-897D-45AD-B7F0-CA61A6862C03";
paths = (
{
closed = 1;
nodes = (
"-264 914 OFFCURVE",
"-307 920 OFFCURVE",
"-356 920 CURVE SMOOTH",
"-418 920 LINE",
"-418 892 LINE",
"-415 889 LINE",
"-351 889 LINE SMOOTH",
"-308 889 OFFCURVE",
"-276 884 OFFCURVE",
"-248 870 CURVE SMOOTH",
"-190 840 OFFCURVE",
"-162 773 OFFCURVE",
"-124 645 CURVE",
"-155 696 OFFCURVE",
"-184 733 OFFCURVE",
"-222 755 CURVE SMOOTH",
"-252 773 OFFCURVE",
"-287 782 OFFCURVE",
"-334 782 CURVE SMOOTH",
"-413 782 LINE",
"-413 756 LINE",
"-410 753 LINE",
"-333 753 LINE SMOOTH",
"-291 753 OFFCURVE",
"-259 746 OFFCURVE",
"-232 732 CURVE SMOOTH",
"-190 711 OFFCURVE",
"-160 671 OFFCURVE",
"-122 612 CURVE",
"-98 612 LINE",
"-137 762 OFFCURVE",
"-167 850 OFFCURVE",
"-229 891 CURVE SMOOTH"
);
}
);
width = 0;
},
{
anchors = (
{
name = _top;
position = "{-180, 622}";
}
);
layerId = "E17BEC9D-CAAD-449F-91D9-03766E30097E";
paths = (
{
closed = 1;
nodes = (
"-249 972 OFFCURVE",
"-298 987 OFFCURVE",
"-377 987 CURVE SMOOTH",
"-488 987 LINE",
"-488 869 LINE",
"-468 849 LINE",
"-361 849 LINE SMOOTH",
"-300 849 OFFCURVE",
"-257 832 OFFCURVE",
"-225 796 CURVE SMOOTH",
"-195 763 OFFCURVE",
"-171 710 OFFCURVE",
"-140 618 CURVE",
"-175 691 OFFCURVE",
"-204 732 OFFCURVE",
"-236 763 CURVE SMOOTH",
"-276 801 OFFCURVE",
"-323 811 OFFCURVE",
"-374 811 CURVE SMOOTH",
"-493 811 LINE",
"-493 703 LINE",
"-473 683 LINE",
"-352 683 LINE SMOOTH",
"-307 683 OFFCURVE",
"-269 681 OFFCURVE",
"-237 659 CURVE SMOOTH",
"-210 641 OFFCURVE",
"-186 608 OFFCURVE",
"-163 550 CURVE",
"-60 550 LINE",
"-112 732 OFFCURVE",
"-159 851 OFFCURVE",
"-206 914 CURVE SMOOTH"
);
}
);
width = 0;
},
{
anchors = (
{
name = _top;
position = "{-143, 622}";
}
);
layerId = "7DD510ED-E696-4B04-90C7-292E6BE56412";
paths = (
{
closed = 1;
nodes = (
"-260 937 OFFCURVE",
"-303 947 OFFCURVE",
"-364 947 CURVE SMOOTH",
"-446 947 LINE",
"-446 883 LINE",
"-436 873 LINE",
"-355 873 LINE SMOOTH",
"-305 873 OFFCURVE",
"-268 862 OFFCURVE",
"-239 841 CURVE SMOOTH",
"-191 807 OFFCURVE",
"-166 748 OFFCURVE",
"-130 634 CURVE",
"-163 694 OFFCURVE",
"-192 733 OFFCURVE",
"-228 758 CURVE SMOOTH",
"-263 783 OFFCURVE",
"-301 794 OFFCURVE",
"-350 794 CURVE SMOOTH",
"-445 794 LINE",
"-445 735 LINE",
"-435 725 LINE",
"-341 725 LINE SMOOTH",
"-297 725 OFFCURVE",
"-263 720 OFFCURVE",
"-234 703 CURVE SMOOTH",
"-198 682 OFFCURVE",
"-170 646 OFFCURVE",
"-138 587 CURVE",
"-83 587 LINE",
"-127 750 OFFCURVE",
"-165 850 OFFCURVE",
"-220 900 CURVE SMOOTH"
);
}
);
width = 0;
}
);
unicode = 0A48;
},
{
glyphname = oomatraguru;
lastChange = "2020-02-26 20:16:57 +0000";
layers = (
{
anchors = (
{
name = _top;
position = "{-120, 622}";
}
);
layerId = "1D4F67F9-897D-45AD-B7F0-CA61A6862C03";
paths = (
{
closed = 1;
nodes = (
"-451 877 LINE",
"-455 866 OFFCURVE",
"-457 857 OFFCURVE",
"-457 844 CURVE SMOOTH",
"-457 792 OFFCURVE",
"-424 758 OFFCURVE",
"-355 758 CURVE SMOOTH",
"-315 758 OFFCURVE",
"-284 767 OFFCURVE",
"-248 767 CURVE SMOOTH",
"-175 767 OFFCURVE",
"-147 698 OFFCURVE",
"-121 605 CURVE",
"-100 605 LINE",
"-126 707 OFFCURVE",
"-160 794 OFFCURVE",
"-246 794 CURVE SMOOTH",
"-281 794 OFFCURVE",
"-324 785 OFFCURVE",
"-358 785 CURVE SMOOTH",
"-421 785 OFFCURVE",
"-443 825 OFFCURVE",
"-448 877 CURVE"
);
}
);
width = 0;
},
{
anchors = (
{
name = _top;
position = "{-166, 622}";
}
);
layerId = "E17BEC9D-CAAD-449F-91D9-03766E30097E";
paths = (
{
closed = 1;
nodes = (
"-513 959 LINE",
"-527 932 OFFCURVE",
"-534 900 OFFCURVE",
"-534 873 CURVE SMOOTH",
"-534 792 OFFCURVE",
"-474 721 OFFCURVE",
"-373 721 CURVE SMOOTH",
"-346 721 OFFCURVE",
"-321 726 OFFCURVE",
"-287 726 CURVE SMOOTH",
"-210 726 OFFCURVE",
"-194 701 OFFCURVE",
"-177 615 CURVE",
"-92 615 LINE",
"-135 798 OFFCURVE",
"-172 879 OFFCURVE",
"-294 879 CURVE SMOOTH",
"-332 879 OFFCURVE",
"-365 871 OFFCURVE",
"-394 871 CURVE SMOOTH",
"-448 871 OFFCURVE",
"-489 900 OFFCURVE",
"-506 959 CURVE"
);
}
);
width = 0;
},
{
anchors = (
{
name = _top;
position = "{-138, 622}";
}
);
layerId = "7DD510ED-E696-4B04-90C7-292E6BE56412";
paths = (
{
closed = 1;
nodes = (
"-476 910 LINE",
"-484 892 OFFCURVE",
"-488 874 OFFCURVE",
"-488 856 CURVE SMOOTH",
"-488 792 OFFCURVE",
"-444 743 OFFCURVE",
"-362 743 CURVE SMOOTH",
"-327 743 OFFCURVE",
"-299 751 OFFCURVE",
"-264 751 CURVE SMOOTH",
"-189 751 OFFCURVE",
"-166 699 OFFCURVE",
"-143 609 CURVE",
"-97 609 LINE",
"-130 743 OFFCURVE",
"-165 828 OFFCURVE",
"-265 828 CURVE SMOOTH",
"-301 828 OFFCURVE",
"-340 819 OFFCURVE",
"-372 819 CURVE SMOOTH",
"-432 819 OFFCURVE",
"-461 855 OFFCURVE",
"-471 910 CURVE"
);
}
);
width = 0;
}
);
unicode = 0A4B;
},
{
glyphname = aumatraguru;
lastChange = "2020-02-26 20:16:57 +0000";
layers = (
{
anchors = (
{
name = _top;
position = "{-85, 622}";
},
{
name = top;
position = "{36, 689}";
}
);
layerId = "1D4F67F9-897D-45AD-B7F0-CA61A6862C03";
paths = (
{
closed = 1;
nodes = (
"-179 849 OFFCURVE",
"-252 808 OFFCURVE",
"-314 808 CURVE SMOOTH",
"-359 808 OFFCURVE",
"-393 835 OFFCURVE",
"-398 900 CURVE",
"-401 900 LINE",
"-404 892 OFFCURVE",
"-407 882 OFFCURVE",
"-407 868 CURVE SMOOTH",
"-407 820 OFFCURVE",
"-372 783 OFFCURVE",
"-312 783 CURVE SMOOTH",
"-272 783 OFFCURVE",
"-240 794 OFFCURVE",
"-205 808 CURVE",
"-220 792 OFFCURVE",
"-227 771 OFFCURVE",
"-227 748 CURVE SMOOTH",
"-227 717 OFFCURVE",
"-213 686 OFFCURVE",
"-193 665 CURVE",
"-174 665 LINE",
"-192 689 OFFCURVE",
"-204 716 OFFCURVE",
"-204 745 CURVE SMOOTH",
"-204 793 OFFCURVE",
"-172 824 OFFCURVE",
"-118 824 CURVE SMOOTH",
"-57 824 OFFCURVE",
"-29 784 OFFCURVE",
"-29 742 CURVE SMOOTH",
"-29 707 OFFCURVE",
"-48 677 OFFCURVE",
"-56 665 CURVE",
"-37 665 LINE",
"-23 682 OFFCURVE",
"-7 711 OFFCURVE",
"-7 745 CURVE SMOOTH",
"-7 798 OFFCURVE",
"-45 849 OFFCURVE",
"-116 849 CURVE SMOOTH"
);
}
);
width = 0;
},
{
anchors = (
{
name = _top;
position = "{-130, 622}";
},
{
name = top;
position = "{43, 760}";
}
);
layerId = "E17BEC9D-CAAD-449F-91D9-03766E30097E";
paths = (
{
closed = 1;
nodes = (
"-236 916 OFFCURVE",
"-309 872 OFFCURVE",
"-381 872 CURVE SMOOTH",
"-430 872 OFFCURVE",
"-468 901 OFFCURVE",
"-486 959 CURVE",
"-493 959 LINE",
"-507 932 OFFCURVE",
"-514 898 OFFCURVE",
"-514 872 CURVE SMOOTH",
"-514 793 OFFCURVE",
"-451 732 OFFCURVE",
"-380 732 CURVE SMOOTH",
"-355 732 OFFCURVE",
"-329 738 OFFCURVE",
"-304 751 CURVE",
"-305 748 OFFCURVE",
"-306 741 OFFCURVE",
"-306 734 CURVE SMOOTH",
"-306 710 OFFCURVE",
"-293 677 OFFCURVE",
"-272 655 CURVE",
"-181 655 LINE",
"-197 680 OFFCURVE",
"-205 707 OFFCURVE",
"-205 729 CURVE SMOOTH",
"-205 761 OFFCURVE",
"-186 785 OFFCURVE",
"-152 785 CURVE SMOOTH",
"-120 785 OFFCURVE",
"-103 763 OFFCURVE",
"-103 733 CURVE SMOOTH",
"-103 711 OFFCURVE",
"-112 683 OFFCURVE",
"-130 655 CURVE",
"-35 655 LINE",
"-9 692 OFFCURVE",
"3 731 OFFCURVE",
"3 769 CURVE SMOOTH",
"3 851 OFFCURVE",
"-54 916 OFFCURVE",
"-154 916 CURVE SMOOTH"
);
}
);
width = 0;
},
{
anchors = (
{
name = _top;
position = "{-103, 622}";
},
{
name = top;
position = "{39, 721}";
}
);
layerId = "7DD510ED-E696-4B04-90C7-292E6BE56412";
paths = (
{
closed = 1;
nodes = (
"-202 876 OFFCURVE",
"-275 833 OFFCURVE",
"-341 833 CURVE SMOOTH",
"-387 833 OFFCURVE",
"-423 861 OFFCURVE",
"-433 923 CURVE",
"-438 923 LINE",
"-445 908 OFFCURVE",
"-450 888 OFFCURVE",
"-450 870 CURVE SMOOTH",
"-450 809 OFFCURVE",
"-403 763 OFFCURVE",
"-339 763 CURVE SMOOTH",
"-305 763 OFFCURVE",
"-275 772 OFFCURVE",
"-244 785 CURVE",
"-254 775 OFFCURVE",
"-258 759 OFFCURVE",
"-258 742 CURVE SMOOTH",
"-258 714 OFFCURVE",
"-245 682 OFFCURVE",
"-224 661 CURVE",
"-177 661 LINE",
"-194 685 OFFCURVE",
"-204 712 OFFCURVE",
"-204 739 CURVE SMOOTH",
"-204 780 OFFCURVE",
"-178 808 OFFCURVE",
"-132 808 CURVE SMOOTH",
"-82 808 OFFCURVE",
"-58 776 OFFCURVE",
"-58 738 CURVE SMOOTH",
"-58 709 OFFCURVE",
"-73 679 OFFCURVE",
"-85 661 CURVE",
"-36 661 LINE",
"-17 686 OFFCURVE",
"-3 719 OFFCURVE",
"-3 755 CURVE SMOOTH",
"-3 819 OFFCURVE",
"-49 876 OFFCURVE",
"-131 876 CURVE SMOOTH"
);
}
);
width = 0;
}
);
unicode = 0A4C;
},
{
glyphname = halantguru;
lastChange = "2020-02-26 20:16:57 +0000";
layers = (
{
anchors = (
{
name = _bottom;
position = "{-95, 0}";
}
);
layerId = "1D4F67F9-897D-45AD-B7F0-CA61A6862C03";
paths = (
{
closed = 1;
nodes = (
"-169 -76 OFFCURVE",
"-153 -75 OFFCURVE",
"-138 -75 CURVE SMOOTH",
"-66 -75 OFFCURVE",
"-33 -105 OFFCURVE",
"47 -232 CURVE",
"65 -220 LINE",
"-21 -86 OFFCURVE",
"-54 -46 OFFCURVE",
"-143 -46 CURVE SMOOTH",
"-160 -46 OFFCURVE",
"-178 -48 OFFCURVE",
"-199 -51 CURVE",
"-189 -79 LINE"
);
}
);
width = 0;
},
{
anchors = (
{
name = _bottom;
position = "{-66, 0}";
}
);
layerId = "E17BEC9D-CAAD-449F-91D9-03766E30097E";
paths = (
{
closed = 1;
nodes = (
"-214 -211 OFFCURVE",
"-196 -210 OFFCURVE",
"-170 -210 CURVE SMOOTH",
"-74 -210 OFFCURVE",
"-39 -220 OFFCURVE",
"31 -328 CURVE",
"86 -295 LINE",
"-30 -96 OFFCURVE",
"-57 -63 OFFCURVE",
"-192 -63 CURVE SMOOTH",
"-217 -63 OFFCURVE",
"-244 -65 OFFCURVE",
"-262 -67 CURVE",
"-233 -213 LINE"
);
}
);
width = 0;
},
{
anchors = (
{
name = _bottom;
position = "{-83, 0}";
}
);
layerId = "7DD510ED-E696-4B04-90C7-292E6BE56412";
paths = (
{
closed = 1;
nodes = (
"-187 -130 OFFCURVE",
"-170 -129 OFFCURVE",
"-151 -129 CURVE SMOOTH",
"-69 -129 OFFCURVE",
"-35 -151 OFFCURVE",
"41 -270 CURVE",
"73 -250 LINE",
"-25 -90 OFFCURVE",
"-55 -53 OFFCURVE",
"-162 -53 CURVE SMOOTH",
"-183 -53 OFFCURVE",
"-204 -55 OFFCURVE",
"-224 -57 CURVE",
"-206 -132 LINE"
);
}
);
width = 0;
}
);
unicode = 0A4D;
},
{
glyphname = udaatguru;
lastChange = "2020-02-26 20:16:57 +0000";
layers = (
{
anchors = (
{
name = _bottom;
position = "{-191, 0}";
}
);
layerId = "1D4F67F9-897D-45AD-B7F0-CA61A6862C03";
paths = (
{
closed = 1;
nodes = (
"25 -202 OFFCURVE",
"9 -203 OFFCURVE",
"-6 -203 CURVE SMOOTH",
"-88 -203 OFFCURVE",
"-121 -163 OFFCURVE",
"-191 -46 CURVE",
"-209 -58 LINE",
"-133 -182 OFFCURVE",
"-100 -232 OFFCURVE",
"-1 -232 CURVE SMOOTH",
"16 -232 OFFCURVE",
"34 -230 OFFCURVE",
"55 -227 CURVE",
"45 -199 LINE"
);
}
);
width = 0;
},
{
anchors = (
{
name = _bottom;
position = "{-67, 0}";
}
);
layerId = "E17BEC9D-CAAD-449F-91D9-03766E30097E";
paths = (
{
closed = 1;
nodes = (
"38 -180 OFFCURVE",
"20 -181 OFFCURVE",
"-6 -181 CURVE SMOOTH",
"-102 -181 OFFCURVE",
"-137 -151 OFFCURVE",
"-207 -63 CURVE",
"-262 -96 LINE",
"-156 -275 OFFCURVE",
"-109 -328 OFFCURVE",
"16 -328 CURVE SMOOTH",
"41 -328 OFFCURVE",
"68 -326 OFFCURVE",
"86 -324 CURVE",
"57 -178 LINE"
);
}
);
width = 0;
},
{
anchors = (
{
name = _bottom;
position = "{-142, 0}";
}
);
layerId = "7DD510ED-E696-4B04-90C7-292E6BE56412";
paths = (
{
closed = 1;
nodes = (
"30 -193 OFFCURVE",
"13 -194 OFFCURVE",
"-6 -194 CURVE SMOOTH",
"-94 -194 OFFCURVE",
"-127 -158 OFFCURVE",
"-197 -53 CURVE",
"-230 -73 LINE",
"-142 -219 OFFCURVE",
"-104 -270 OFFCURVE",
"6 -270 CURVE SMOOTH",
"26 -270 OFFCURVE",
"48 -268 OFFCURVE",
"67 -266 CURVE",
"50 -191 LINE"
);
}
);
width = 0;
}
);
unicode = 0A51;
},
{
glyphname = ganuktaguru;
lastChange = "2020-02-26 20:16:57 +0000";
layers = (
{
anchors = (
{
name = bottom;
position = "{627, 0}";
},
{
name = top;
position = "{612, 622}";
}
);
components = (
{
name = gaguru;
transform = "{1, 0, 0, 1, 20, 0}";
},
{
name = nuktaguru;
transform = "{1, 0, 0, 1, 83, 30}";
}
);
layerId = "1D4F67F9-897D-45AD-B7F0-CA61A6862C03";
paths = (
{
closed = 1;
nodes = (
"469 596 LINE",
"470 598 LINE",
"460 622 LINE",
"-24 622 LINE",
"-25 620 LINE",
"-15 596 LINE"
);
}
);
width = 727;
},
{
anchors = (
{
name = bottom;
position = "{773, 0}";
},
{
name = top;
position = "{674, 622}";
}
);
components = (
{
name = gaguru;
transform = "{1, 0, 0, 1, 40, 0}";
},
{
name = nuktaguru;
transform = "{1, 0, 0, 1, 89, 50}";
}
);
layerId = "E17BEC9D-CAAD-449F-91D9-03766E30097E";
paths = (
{
closed = 1;
nodes = (
"505 494 LINE",
"515 514 LINE",
"475 622 LINE",
"-40 622 LINE",
"-50 602 LINE",
"-10 494 LINE"
);
}
);
width = 843;
},
{
anchors = (
{
name = bottom;
position = "{685, 0}";
},
{
name = top;
position = "{637, 622}";
}
);
components = (
{
name = gaguru;
transform = "{1, 0, 0, 1, 28, 0}";
},
{
name = nuktaguru;
transform = "{1, 0, 0, 1, 85, 38}";
}
);
layerId = "7DD510ED-E696-4B04-90C7-292E6BE56412";
paths = (
{
closed = 1;
nodes = (
"483 555 LINE",
"488 565 LINE",
"466 622 LINE",
"-30 622 LINE",
"-35 613 LINE",
"-13 555 LINE"
);
}
);
width = 773;
}
);
rightKerningGroup = vert;
rightMetricsKey = gaguru;
unicode = 0A5A;
},
{
glyphname = januktaguru;
lastChange = "2020-02-26 20:16:57 +0000";
layers = (
{
anchors = (
{
name = _nukta;
position = "{293, 40}";
},
{
name = bottom;
position = "{480, 0}";
},
{
name = top;
position = "{465, 622}";
}
);
layerId = "1D4F67F9-897D-45AD-B7F0-CA61A6862C03";
paths = (
{
closed = 1;
nodes = (
"595 622 LINE",
"-24 622 LINE",
"-25 620 LINE",
"-15 596 LINE",
"454 596 LINE",
"454 344 LINE",
"159 344 LINE",
"159 371 LINE SMOOTH",
"159 397 OFFCURVE",
"150 407 OFFCURVE",
"138 407 CURVE SMOOTH",
"113 407 OFFCURVE",
"76 366 OFFCURVE",
"76 339 CURVE SMOOTH",
"76 326 OFFCURVE",
"84 315 OFFCURVE",
"111 315 CURVE SMOOTH",
"128 315 LINE",
"128 181 LINE SMOOTH",
"128 106 OFFCURVE",
"113 50 OFFCURVE",
"63 9 CURVE",
"63 6 LINE",
"83 -13 LINE",
"130 29 OFFCURVE",
"154 79 OFFCURVE",
"154 178 CURVE SMOOTH",
"154 318 LINE",
"454 318 LINE",
"454 0 LINE",
"477 -15 LINE",
"480 -13 LINE",
"480 596 LINE",
"604 596 LINE",
"605 598 LINE"
);
},
{
closed = 1;
nodes = (
"259 -13 OFFCURVE",
"274 -28 OFFCURVE",
"293 -28 CURVE SMOOTH",
"314 -28 OFFCURVE",
"328 -13 OFFCURVE",
"328 5 CURVE SMOOTH",
"328 24 OFFCURVE",
"313 40 OFFCURVE",
"293 40 CURVE SMOOTH",
"274 40 OFFCURVE",
"259 26 OFFCURVE",
"259 7 CURVE SMOOTH"
);
}
);
width = 580;
},
{
anchors = (
{
name = _nukta;
position = "{343, 40}";
},
{
name = bottom;
position = "{601, -78}";
},
{
name = top;
position = "{501, 622}";
}
);
layerId = "E17BEC9D-CAAD-449F-91D9-03766E30097E";
paths = (
{
closed = 1;
nodes = (
"681 622 LINE",
"-40 622 LINE",
"-50 602 LINE",
"-10 494 LINE",
"434 494 LINE",
"434 352 LINE",
"278 352 LINE",
"278 374 LINE SMOOTH",
"278 413 OFFCURVE",
"261 443 OFFCURVE",
"224 443 CURVE SMOOTH",
"153 443 OFFCURVE",
"37 344 OFFCURVE",
"37 276 CURVE SMOOTH",
"37 241 OFFCURVE",
"69 223 OFFCURVE",
"107 223 CURVE SMOOTH",
"126 223 LINE",
"126 186 LINE SMOOTH",
"126 128 OFFCURVE",
"103 84 OFFCURVE",
"49 50 CURVE",
"49 30 LINE",
"161 -56 LINE",
"235 -15 OFFCURVE",
"276 56 OFFCURVE",
"276 161 CURVE SMOOTH",
"276 235 LINE",
"434 235 LINE",
"434 20 LINE",
"581 -50 LINE",
"601 -40 LINE",
"601 494 LINE",
"711 494 LINE",
"721 514 LINE"
);
},
{
closed = 1;
nodes = (
"259 -102 OFFCURVE",
"294 -137 OFFCURVE",
"345 -137 CURVE SMOOTH",
"395 -137 OFFCURVE",
"427 -102 OFFCURVE",
"427 -54 CURVE SMOOTH",
"427 -2 OFFCURVE",
"393 31 OFFCURVE",
"343 31 CURVE SMOOTH",
"292 31 OFFCURVE",
"259 -5 OFFCURVE",
"259 -50 CURVE SMOOTH"
);
}
);
width = 671;
},
{
anchors = (
{
name = _nukta;
position = "{313, 40}";
},
{
name = bottom;
position = "{528, -31}";
},
{
name = top;
position = "{479, 622}";
}
);
layerId = "7DD510ED-E696-4B04-90C7-292E6BE56412";
paths = (
{
closed = 1;
nodes = (
"629 622 LINE",
"-30 622 LINE",
"-35 613 LINE",
"-13 555 LINE",
"446 555 LINE",
"446 347 LINE",
"206 347 LINE",
"206 372 LINE SMOOTH",
"206 403 OFFCURVE",
"194 421 OFFCURVE",
"172 421 CURVE SMOOTH",
"129 421 OFFCURVE",
"60 357 OFFCURVE",
"60 314 CURVE SMOOTH",
"60 292 OFFCURVE",
"78 278 OFFCURVE",
"109 278 CURVE SMOOTH",
"127 278 LINE",
"127 183 LINE SMOOTH",
"127 115 OFFCURVE",
"109 64 OFFCURVE",
"57 25 CURVE",
"57 16 LINE",
"114 -30 LINE",
"172 12 OFFCURVE",
"203 70 OFFCURVE",
"203 171 CURVE SMOOTH",
"203 285 LINE",
"446 285 LINE",
"446 8 LINE",
"518 -29 LINE",
"528 -24 LINE",
"528 555 LINE",
"647 555 LINE",
"651 565 LINE"
);
},
{
closed = 1;
nodes = (
"259 -48 OFFCURVE",
"282 -71 OFFCURVE",
"314 -71 CURVE SMOOTH",
"346 -71 OFFCURVE",
"367 -48 OFFCURVE",
"367 -18 CURVE SMOOTH",
"367 14 OFFCURVE",
"345 36 OFFCURVE",
"313 36 CURVE SMOOTH",
"281 36 OFFCURVE",
"259 14 OFFCURVE",
"259 -16 CURVE SMOOTH"
);
}
);
width = 616;
}
);
leftKerningGroup = jaL;
rightKerningGroup = vert;
unicode = 0A5B;
},
{
glyphname = rraguru;
lastChange = "2020-02-26 20:16:57 +0000";
layers = (
{
anchors = (
{
name = bottom;
position = "{467, 0}";
},
{
name = top;
position = "{443, 622}";
}
);
layerId = "1D4F67F9-897D-45AD-B7F0-CA61A6862C03";
paths = (
{
closed = 1;
nodes = (
"624 596 LINE",
"625 598 LINE",
"615 622 LINE",
"-24 622 LINE",
"-25 620 LINE",
"-15 596 LINE",
"433 596 LINE",
"440 576 OFFCURVE",
"444 556 OFFCURVE",
"444 537 CURVE SMOOTH",
"444 473 OFFCURVE",
"405 417 OFFCURVE",
"362 398 CURVE",
"326 412 OFFCURVE",
"275 419 OFFCURVE",
"223 419 CURVE SMOOTH",
"170 419 OFFCURVE",
"124 408 OFFCURVE",
"124 384 CURVE SMOOTH",
"124 361 OFFCURVE",
"165 350 OFFCURVE",
"217 350 CURVE SMOOTH",
"265 350 OFFCURVE",
"312 356 OFFCURVE",
"358 372 CURVE",
"440 347 OFFCURVE",
"470 291 OFFCURVE",
"470 244 CURVE SMOOTH",
"470 168 OFFCURVE",
"406 120 OFFCURVE",
"303 120 CURVE SMOOTH",
"244 120 OFFCURVE",
"136 141 OFFCURVE",
"69 193 CURVE",
"56 180 LINE",
"186 -11 LINE",
"219 -11 LINE",
"220 -9 LINE",
"102 150 LINE",
"167 110 OFFCURVE",
"253 94 OFFCURVE",
"308 94 CURVE SMOOTH",
"333 94 OFFCURVE",
"356 97 OFFCURVE",
"377 103 CURVE",
"466 -11 LINE",
"499 -11 LINE",
"500 -9 LINE",
"400 110 LINE",
"459 133 OFFCURVE",
"496 181 OFFCURVE",
"496 243 CURVE SMOOTH",
"496 304 OFFCURVE",
"453 359 OFFCURVE",
"386 388 CURVE",
"439 419 OFFCURVE",
"469 472 OFFCURVE",
"469 536 CURVE SMOOTH",
"469 556 OFFCURVE",
"466 575 OFFCURVE",
"461 596 CURVE"
);
}
);
width = 600;
},
{
anchors = (
{
name = bottom;
position = "{581, -28}";
},
{
name = top;
position = "{455, 622}";
}
);
layerId = "E17BEC9D-CAAD-449F-91D9-03766E30097E";
paths = (
{
closed = 1;
nodes = (
"671 494 LINE",
"681 514 LINE",
"641 622 LINE",
"-40 622 LINE",
"-50 602 LINE",
"-10 494 LINE",
"400 494 LINE",
"404 479 OFFCURVE",
"406 464 OFFCURVE",
"406 449 CURVE SMOOTH",
"406 425 OFFCURVE",
"400 402 OFFCURVE",
"383 385 CURVE",
"339 408 OFFCURVE",
"274 421 OFFCURVE",
"219 421 CURVE SMOOTH",
"146 421 OFFCURVE",
"89 398 OFFCURVE",
"89 342 CURVE SMOOTH",
"89 281 OFFCURVE",
"157 252 OFFCURVE",
"236 252 CURVE SMOOTH",
"282 252 OFFCURVE",
"347 262 OFFCURVE",
"396 281 CURVE",
"413 267 OFFCURVE",
"421 251 OFFCURVE",
"421 234 CURVE SMOOTH",
"421 183 OFFCURVE",
"349 161 OFFCURVE",
"275 161 CURVE SMOOTH",
"191 161 OFFCURVE",
"109 190 OFFCURVE",
"54 223 CURVE",
"20 189 LINE",
"156 -68 LINE",
"292 -68 LINE",
"306 -53 LINE",
"213 52 LINE",
"259 36 OFFCURVE",
"304 28 OFFCURVE",
"349 28 CURVE SMOOTH",
"365 28 OFFCURVE",
"380 29 OFFCURVE",
"390 30 CURVE",
"460 -68 LINE",
"593 -68 LINE",
"604 -54 LINE",
"500 69 LINE",
"541 98 OFFCURVE",
"568 144 OFFCURVE",
"568 200 CURVE SMOOTH",
"568 266 OFFCURVE",
"531 310 OFFCURVE",
"477 342 CURVE",
"526 370 OFFCURVE",
"559 423 OFFCURVE",
"559 474 CURVE SMOOTH",
"559 483 OFFCURVE",
"558 489 OFFCURVE",
"557 494 CURVE"
);
}
);
width = 631;
},
{
anchors = (
{
name = bottom;
position = "{512, -11}";
},
{
name = top;
position = "{448, 622}";
}
);
layerId = "7DD510ED-E696-4B04-90C7-292E6BE56412";
paths = (
{
closed = 1;
nodes = (
"643 555 LINE",
"647 565 LINE",
"625 622 LINE",
"-30 622 LINE",
"-35 613 LINE",
"-13 555 LINE",
"420 555 LINE",
"426 537 OFFCURVE",
"429 519 OFFCURVE",
"429 502 CURVE SMOOTH",
"429 454 OFFCURVE",
"403 411 OFFCURVE",
"370 393 CURVE",
"331 410 OFFCURVE",
"275 420 OFFCURVE",
"221 420 CURVE SMOOTH",
"160 420 OFFCURVE",
"110 404 OFFCURVE",
"110 367 CURVE SMOOTH",
"110 329 OFFCURVE",
"162 311 OFFCURVE",
"225 311 CURVE SMOOTH",
"272 311 OFFCURVE",
"326 319 OFFCURVE",
"373 336 CURVE",
"429 315 OFFCURVE",
"451 275 OFFCURVE",
"451 240 CURVE SMOOTH",
"451 174 OFFCURVE",
"383 136 OFFCURVE",
"292 136 CURVE SMOOTH",
"223 136 OFFCURVE",
"125 160 OFFCURVE",
"63 205 CURVE",
"42 184 LINE",
"174 -34 LINE",
"248 -34 LINE",
"254 -26 LINE",
"146 111 LINE",
"204 81 OFFCURVE",
"273 68 OFFCURVE",
"324 68 CURVE SMOOTH",
"346 68 OFFCURVE",
"366 70 OFFCURVE",
"382 74 CURVE",
"464 -34 LINE",
"536 -34 LINE",
"541 -27 LINE",
"440 94 LINE",
"492 119 OFFCURVE",
"525 166 OFFCURVE",
"525 226 CURVE SMOOTH",
"525 289 OFFCURVE",
"484 340 OFFCURVE",
"422 370 CURVE",
"474 400 OFFCURVE",
"505 453 OFFCURVE",
"505 511 CURVE SMOOTH",
"505 527 OFFCURVE",
"503 541 OFFCURVE",
"499 555 CURVE"
);
}
);
width = 612;
}
);
leftKerningGroup = rraL;
rightKerningGroup = rraR;
unicode = 0A5C;
},
{
glyphname = phanuktaguru;
lastChange = "2020-02-26 20:16:57 +0000";
layers = (
{
anchors = (
{
name = bottom;
position = "{460, 0}";
},
{
name = top;
position = "{456, 622}";
}
);
components = (
{
name = phaguru;
transform = "{1, 0, 0, 1, 20, 0}";
},
{
name = nuktaguru;
transform = "{1, 0, 0, 1, 106, 30}";
}
);
layerId = "1D4F67F9-897D-45AD-B7F0-CA61A6862C03";
paths = (
{
closed = 1;
nodes = (
"309 596 LINE",
"310 598 LINE",
"300 622 LINE",
"-24 622 LINE",
"-25 620 LINE",
"-15 596 LINE"
);
}
);
width = 595;
},
{
anchors = (
{
name = bottom;
position = "{527, -20}";
},
{
name = top;
position = "{451, 622}";
}
);
components = (
{
name = phaguru;
transform = "{1, 0, 0, 1, 20, 0}";
},
{
name = nuktaguru;
transform = "{1, 0, 0, 1, 89, 20}";
}
);
layerId = "E17BEC9D-CAAD-449F-91D9-03766E30097E";
paths = (
{
closed = 1;
nodes = (
"465 494 LINE",
"475 514 LINE",
"435 622 LINE",
"-50 622 LINE",
"-60 602 LINE",
"-20 494 LINE"
);
}
);
width = 641;
},
{
anchors = (
{
name = bottom;
position = "{487, -8}";
},
{
name = top;
position = "{454, 622}";
}
);
components = (
{
name = phaguru;
transform = "{1, 0, 0, 1, 20, 0}";
},
{
name = nuktaguru;
transform = "{1, 0, 0, 1, 99, 26}";
}
);
layerId = "7DD510ED-E696-4B04-90C7-292E6BE56412";
paths = (
{
closed = 1;
nodes = (
"371 555 LINE",
"376 565 LINE",
"354 622 LINE",
"-34 622 LINE",
"-39 613 LINE",
"-17 555 LINE"
);
}
);
width = 613;
}
);
rightKerningGroup = ddhaR;
rightMetricsKey = phaguru;
unicode = 0A5E;
},
{
glyphname = zeroguru;
lastChange = "2020-02-26 20:16:57 +0000";
layers = (
{
layerId = "1D4F67F9-897D-45AD-B7F0-CA61A6862C03";
paths = (
{
closed = 1;
nodes = (
"338 99 OFFCURVE",
"416 185 OFFCURVE",
"416 312 CURVE SMOOTH",
"416 419 OFFCURVE",
"353 535 OFFCURVE",
"232 535 CURVE SMOOTH",
"113 535 OFFCURVE",
"40 440 OFFCURVE",
"40 320 CURVE SMOOTH",
"40 204 OFFCURVE",
"111 99 OFFCURVE",
"233 99 CURVE SMOOTH"
);
},
{
closed = 1;
nodes = (
"108 125 OFFCURVE",
"66 235 OFFCURVE",
"66 315 CURVE SMOOTH",
"66 411 OFFCURVE",
"125 510 OFFCURVE",
"238 510 CURVE SMOOTH",
"349 510 OFFCURVE",
"390 398 OFFCURVE",
"390 318 CURVE SMOOTH",
"390 213 OFFCURVE",
"327 125 OFFCURVE",
"226 125 CURVE SMOOTH"
);
}
);
width = 456;
},
{
layerId = "E17BEC9D-CAAD-449F-91D9-03766E30097E";
paths = (
{
closed = 1;
nodes = (
"444 23 OFFCURVE",
"524 118 OFFCURVE",
"524 258 CURVE SMOOTH",
"524 404 OFFCURVE",
"416 542 OFFCURVE",
"257 542 CURVE SMOOTH",
"105 542 OFFCURVE",
"20 432 OFFCURVE",
"20 300 CURVE SMOOTH",
"20 152 OFFCURVE",
"147 23 OFFCURVE",
"300 23 CURVE SMOOTH"
);
},
{
closed = 1;
nodes = (
"218 126 OFFCURVE",
"193 191 OFFCURVE",
"193 258 CURVE SMOOTH",
"193 330 OFFCURVE",
"225 427 OFFCURVE",
"285 427 CURVE SMOOTH",
"334 427 OFFCURVE",
"354 372 OFFCURVE",
"354 297 CURVE SMOOTH",
"354 224 OFFCURVE",
"329 126 OFFCURVE",
"268 126 CURVE SMOOTH"
);
}
);
width = 544;
},
{
layerId = "7DD510ED-E696-4B04-90C7-292E6BE56412";
paths = (
{
closed = 1;
nodes = (
"380 69 OFFCURVE",
"459 158 OFFCURVE",
"459 291 CURVE SMOOTH",
"459 413 OFFCURVE",
"378 538 OFFCURVE",
"242 538 CURVE SMOOTH",
"110 538 OFFCURVE",
"32 437 OFFCURVE",
"32 312 CURVE SMOOTH",
"32 183 OFFCURVE",
"125 69 OFFCURVE",
"260 69 CURVE SMOOTH"
);
},
{
closed = 1;
nodes = (
"152 125 OFFCURVE",
"116 218 OFFCURVE",
"116 292 CURVE SMOOTH",
"116 379 OFFCURVE",
"165 477 OFFCURVE",
"257 477 CURVE SMOOTH",
"343 477 OFFCURVE",
"376 388 OFFCURVE",
"376 310 CURVE SMOOTH",
"376 217 OFFCURVE",
"328 125 OFFCURVE",
"243 125 CURVE SMOOTH"
);
}
);
width = 491;
}
);
unicode = 0A66;
},
{
glyphname = oneguru;
lastChange = "2020-02-26 20:16:57 +0000";
layers = (
{
layerId = "1D4F67F9-897D-45AD-B7F0-CA61A6862C03";
paths = (
{
closed = 1;
nodes = (
"99 622 OFFCURVE",
"30 536 OFFCURVE",
"30 440 CURVE SMOOTH",
"30 327 OFFCURVE",
"113 262 OFFCURVE",
"208 262 CURVE SMOOTH",
"246 262 OFFCURVE",
"286 270 OFFCURVE",
"321 289 CURVE",
"321 0 LINE",
"344 -15 LINE",
"347 -13 LINE",
"347 361 LINE SMOOTH",
"347 468 OFFCURVE",
"338 622 OFFCURVE",
"190 622 CURVE SMOOTH"
);
},
{
closed = 1;
nodes = (
"120 289 OFFCURVE",
"55 337 OFFCURVE",
"55 435 CURVE SMOOTH",
"55 518 OFFCURVE",
"120 599 OFFCURVE",
"192 599 CURVE SMOOTH",
"316 599 OFFCURVE",
"325 473 OFFCURVE",
"320 319 CURVE",
"283 299 OFFCURVE",
"239 289 OFFCURVE",
"199 289 CURVE SMOOTH"
);
}
);
width = 427;
},
{
layerId = "E17BEC9D-CAAD-449F-91D9-03766E30097E";
paths = (
{
closed = 1;
nodes = (
"81 622 OFFCURVE",
"10 536 OFFCURVE",
"10 440 CURVE SMOOTH",
"10 324 OFFCURVE",
"132 202 OFFCURVE",
"251 202 CURVE SMOOTH",
"260 202 OFFCURVE",
"270 203 OFFCURVE",
"280 204 CURVE",
"280 20 LINE",
"427 -50 LINE",
"447 -40 LINE",
"447 321 LINE SMOOTH",
"447 470 OFFCURVE",
"361 622 OFFCURVE",
"210 622 CURVE SMOOTH"
);
},
{
closed = 1;
nodes = (
"171 345 OFFCURVE",
"148 357 OFFCURVE",
"148 384 CURVE SMOOTH",
"148 433 OFFCURVE",
"208 470 OFFCURVE",
"242 470 CURVE SMOOTH",
"287 470 OFFCURVE",
"303 432 OFFCURVE",
"295 359 CURVE",
"267 351 OFFCURVE",
"235 345 OFFCURVE",
"205 345 CURVE SMOOTH"
);
}
);
width = 507;
},
{
layerId = "7DD510ED-E696-4B04-90C7-292E6BE56412";
paths = (
{
closed = 1;
nodes = (
"92 622 OFFCURVE",
"22 536 OFFCURVE",
"22 440 CURVE SMOOTH",
"22 326 OFFCURVE",
"121 238 OFFCURVE",
"225 238 CURVE SMOOTH",
"252 238 OFFCURVE",
"280 243 OFFCURVE",
"305 255 CURVE",
"305 8 LINE",
"377 -29 LINE",
"387 -24 LINE",
"387 345 LINE SMOOTH",
"387 469 OFFCURVE",
"347 622 OFFCURVE",
"198 622 CURVE SMOOTH"
);
},
{
closed = 1;
nodes = (
"140 311 OFFCURVE",
"92 345 OFFCURVE",
"92 415 CURVE SMOOTH",
"92 484 OFFCURVE",
"155 548 OFFCURVE",
"212 548 CURVE SMOOTH",
"304 548 OFFCURVE",
"316 457 OFFCURVE",
"310 335 CURVE",
"277 320 OFFCURVE",
"237 311 OFFCURVE",
"201 311 CURVE SMOOTH"
);
}
);
width = 459;
}
);
unicode = 0A67;
},
{
glyphname = twoguru;
lastChange = "2020-02-26 20:16:57 +0000";
layers = (
{
layerId = "1D4F67F9-897D-45AD-B7F0-CA61A6862C03";
paths = (
{
closed = 1;
nodes = (
"343 272 OFFCURVE",
"404 336 OFFCURVE",
"404 427 CURVE SMOOTH",
"404 537 OFFCURVE",
"315 622 OFFCURVE",
"193 622 CURVE SMOOTH",
"152 622 OFFCURVE",
"96 612 OFFCURVE",
"50 589 CURVE",
"61 565 LINE",
"105 586 OFFCURVE",
"153 596 OFFCURVE",
"196 596 CURVE SMOOTH",
"305 596 OFFCURVE",
"378 533 OFFCURVE",
"378 433 CURVE SMOOTH",
"378 340 OFFCURVE",
"312 287 OFFCURVE",
"240 261 CURVE",
"207 280 OFFCURVE",
"168 291 OFFCURVE",
"133 291 CURVE SMOOTH",
"98 291 OFFCURVE",
"68 280 OFFCURVE",
"68 259 CURVE SMOOTH",
"68 234 OFFCURVE",
"93 220 OFFCURVE",
"147 220 CURVE SMOOTH",
"174 220 OFFCURVE",
"209 223 OFFCURVE",
"234 232 CURVE",
"298 186 OFFCURVE",
"366 71 OFFCURVE",
"382 -4 CURVE",
"408 -13 LINE",
"411 -11 LINE",
"392 73 OFFCURVE",
"322 192 OFFCURVE",
"260 240 CURVE"
);
}
);
width = 471;
},
{
layerId = "E17BEC9D-CAAD-449F-91D9-03766E30097E";
paths = (
{
closed = 1;
nodes = (
"454 206 OFFCURVE",
"505 267 OFFCURVE",
"505 361 CURVE SMOOTH",
"505 501 OFFCURVE",
"392 622 OFFCURVE",
"227 622 CURVE SMOOTH",
"171 622 OFFCURVE",
"101 608 OFFCURVE",
"35 577 CURVE",
"78 423 LINE",
"133 442 OFFCURVE",
"213 463 OFFCURVE",
"267 463 CURVE SMOOTH",
"347 463 OFFCURVE",
"375 428 OFFCURVE",
"375 394 CURVE SMOOTH",
"375 354 OFFCURVE",
"330 313 OFFCURVE",
"255 297 CURVE",
"220 316 OFFCURVE",
"184 326 OFFCURVE",
"149 326 CURVE SMOOTH",
"87 326 OFFCURVE",
"38 296 OFFCURVE",
"38 237 CURVE SMOOTH",
"38 165 OFFCURVE",
"113 132 OFFCURVE",
"202 132 CURVE SMOOTH",
"227 132 OFFCURVE",
"251 135 OFFCURVE",
"274 140 CURVE",
"305 100 OFFCURVE",
"311 28 OFFCURVE",
"310 -15 CURVE",
"498 -60 LINE",
"517 -43 LINE",
"495 54 OFFCURVE",
"448 128 OFFCURVE",
"383 175 CURVE"
);
}
);
width = 552;
},
{
layerId = "7DD510ED-E696-4B04-90C7-292E6BE56412";
paths = (
{
closed = 1;
nodes = (
"387 246 OFFCURVE",
"444 309 OFFCURVE",
"444 401 CURVE SMOOTH",
"444 523 OFFCURVE",
"346 622 OFFCURVE",
"207 622 CURVE SMOOTH",
"160 622 OFFCURVE",
"98 610 OFFCURVE",
"44 584 CURVE",
"68 509 LINE",
"116 529 OFFCURVE",
"177 543 OFFCURVE",
"224 543 CURVE SMOOTH",
"322 543 OFFCURVE",
"377 491 OFFCURVE",
"377 417 CURVE SMOOTH",
"377 346 OFFCURVE",
"319 297 OFFCURVE",
"246 275 CURVE",
"212 294 OFFCURVE",
"174 305 OFFCURVE",
"139 305 CURVE SMOOTH",
"94 305 OFFCURVE",
"56 286 OFFCURVE",
"56 250 CURVE SMOOTH",
"56 207 OFFCURVE",
"101 185 OFFCURVE",
"169 185 CURVE SMOOTH",
"195 185 OFFCURVE",
"226 188 OFFCURVE",
"250 195 CURVE",
"301 152 OFFCURVE",
"344 54 OFFCURVE",
"353 -8 CURVE",
"444 -32 LINE",
"453 -24 LINE",
"433 65 OFFCURVE",
"372 167 OFFCURVE",
"309 214 CURVE"
);
}
);
width = 503;
}
);
unicode = 0A68;
},
{
glyphname = threeguru;
lastChange = "2020-02-26 20:16:57 +0000";
layers = (
{
layerId = "1D4F67F9-897D-45AD-B7F0-CA61A6862C03";
paths = (
{
closed = 1;
nodes = (
"387 35 OFFCURVE",
"437 95 OFFCURVE",
"437 162 CURVE SMOOTH",
"437 231 OFFCURVE",
"387 294 OFFCURVE",
"322 320 CURVE",
"379 348 OFFCURVE",
"414 399 OFFCURVE",
"414 459 CURVE SMOOTH",
"414 551 OFFCURVE",
"333 622 OFFCURVE",
"212 622 CURVE SMOOTH",
"167 622 OFFCURVE",
"106 612 OFFCURVE",
"60 589 CURVE",
"71 565 LINE",
"117 586 OFFCURVE",
"168 596 OFFCURVE",
"216 596 CURVE SMOOTH",
"325 596 OFFCURVE",
"389 545 OFFCURVE",
"389 464 CURVE SMOOTH",
"389 400 OFFCURVE",
"350 356 OFFCURVE",
"293 335 CURVE",
"256 351 OFFCURVE",
"208 358 OFFCURVE",
"175 358 CURVE SMOOTH",
"133 358 OFFCURVE",
"101 347 OFFCURVE",
"101 325 CURVE SMOOTH",
"101 302 OFFCURVE",
"131 290 OFFCURVE",
"188 290 CURVE SMOOTH",
"224 290 OFFCURVE",
"267 295 OFFCURVE",
"298 306 CURVE",
"367 283 OFFCURVE",
"413 228 OFFCURVE",
"413 169 CURVE SMOOTH",
"413 107 OFFCURVE",
"362 50 OFFCURVE",
"265 37 CURVE",
"225 66 OFFCURVE",
"160 90 OFFCURVE",
"119 90 CURVE SMOOTH",
"91 90 OFFCURVE",
"70 79 OFFCURVE",
"70 60 CURVE SMOOTH",
"70 26 OFFCURVE",
"143 6 OFFCURVE",
"207 6 CURVE SMOOTH",
"221 6 OFFCURVE",
"239 7 OFFCURVE",
"256 9 CURVE",
"302 -19 OFFCURVE",
"356 -66 OFFCURVE",
"397 -112 CURVE",
"412 -98 LINE",
"377 -60 OFFCURVE",
"327 -13 OFFCURVE",
"288 15 CURVE"
);
}
);
width = 492;
},
{
layerId = "E17BEC9D-CAAD-449F-91D9-03766E30097E";
paths = (
{
closed = 1;
nodes = (
"474 13 OFFCURVE",
"516 64 OFFCURVE",
"516 123 CURVE SMOOTH",
"516 179 OFFCURVE",
"483 232 OFFCURVE",
"428 260 CURVE",
"466 291 OFFCURVE",
"491 333 OFFCURVE",
"491 384 CURVE SMOOTH",
"491 532 OFFCURVE",
"368 622 OFFCURVE",
"243 622 CURVE SMOOTH",
"175 622 OFFCURVE",
"113 606 OFFCURVE",
"50 579 CURVE",
"93 425 LINE",
"148 444 OFFCURVE",
"217 464 OFFCURVE",
"283 464 CURVE SMOOTH",
"332 464 OFFCURVE",
"370 450 OFFCURVE",
"370 420 CURVE SMOOTH",
"370 389 OFFCURVE",
"336 367 OFFCURVE",
"287 354 CURVE",
"253 368 OFFCURVE",
"215 376 OFFCURVE",
"179 376 CURVE SMOOTH",
"118 376 OFFCURVE",
"67 352 OFFCURVE",
"67 296 CURVE SMOOTH",
"67 230 OFFCURVE",
"139 205 OFFCURVE",
"215 205 CURVE SMOOTH",
"258 205 OFFCURVE",
"296 211 OFFCURVE",
"327 221 CURVE",
"348 210 OFFCURVE",
"362 193 OFFCURVE",
"362 169 CURVE SMOOTH",
"362 132 OFFCURVE",
"330 112 OFFCURVE",
"284 106 CURVE",
"240 135 OFFCURVE",
"191 150 OFFCURVE",
"149 150 CURVE SMOOTH",
"94 150 OFFCURVE",
"52 123 OFFCURVE",
"52 66 CURVE SMOOTH",
"52 -1 OFFCURVE",
"140 -41 OFFCURVE",
"226 -41 CURVE SMOOTH",
"243 -41 OFFCURVE",
"258 -41 OFFCURVE",
"272 -40 CURVE",
"322 -69 OFFCURVE",
"389 -134 OFFCURVE",
"431 -183 CURVE",
"504 -120 LINE",
"475 -81 OFFCURVE",
"440 -45 OFFCURVE",
"403 -14 CURVE"
);
}
);
width = 556;
},
{
layerId = "7DD510ED-E696-4B04-90C7-292E6BE56412";
paths = (
{
closed = 1;
nodes = (
"422 26 OFFCURVE",
"468 83 OFFCURVE",
"468 146 CURVE SMOOTH",
"468 210 OFFCURVE",
"425 269 OFFCURVE",
"364 296 CURVE",
"414 325 OFFCURVE",
"445 373 OFFCURVE",
"445 429 CURVE SMOOTH",
"445 543 OFFCURVE",
"347 622 OFFCURVE",
"224 622 CURVE SMOOTH",
"170 622 OFFCURVE",
"109 610 OFFCURVE",
"56 585 CURVE",
"80 509 LINE",
"129 530 OFFCURVE",
"187 544 OFFCURVE",
"243 544 CURVE SMOOTH",
"328 544 OFFCURVE",
"381 507 OFFCURVE",
"381 447 CURVE SMOOTH",
"381 396 OFFCURVE",
"344 360 OFFCURVE",
"291 343 CURVE",
"255 358 OFFCURVE",
"211 365 OFFCURVE",
"177 365 CURVE SMOOTH",
"127 365 OFFCURVE",
"87 349 OFFCURVE",
"87 313 CURVE SMOOTH",
"87 273 OFFCURVE",
"134 256 OFFCURVE",
"199 256 CURVE SMOOTH",
"238 256 OFFCURVE",
"279 262 OFFCURVE",
"310 272 CURVE",
"359 254 OFFCURVE",
"393 214 OFFCURVE",
"393 169 CURVE SMOOTH",
"393 117 OFFCURVE",
"349 75 OFFCURVE",
"273 64 CURVE",
"231 93 OFFCURVE",
"172 114 OFFCURVE",
"131 114 CURVE SMOOTH",
"92 114 OFFCURVE",
"63 96 OFFCURVE",
"63 62 CURVE SMOOTH",
"63 15 OFFCURVE",
"142 -13 OFFCURVE",
"215 -13 CURVE SMOOTH",
"230 -13 OFFCURVE",
"247 -12 OFFCURVE",
"262 -10 CURVE",
"310 -39 OFFCURVE",
"369 -93 OFFCURVE",
"411 -140 CURVE",
"449 -107 LINE",
"416 -68 OFFCURVE",
"372 -26 OFFCURVE",
"334 3 CURVE"
);
}
);
width = 517;
}
);
unicode = 0A69;
},
{
glyphname = fourguru;
lastChange = "2020-02-26 20:16:57 +0000";
layers = (
{
layerId = "1D4F67F9-897D-45AD-B7F0-CA61A6862C03";
paths = (
{
closed = 1;
nodes = (
"394 357 OFFCURVE",
"468 409 OFFCURVE",
"468 486 CURVE SMOOTH",
"468 551 OFFCURVE",
"414 603 OFFCURVE",
"348 615 CURVE",
"345 606 LINE",
"399 586 OFFCURVE",
"441 545 OFFCURVE",
"441 492 CURVE SMOOTH",
"441 416 OFFCURVE",
"355 367 OFFCURVE",
"264 326 CURVE",
"154 365 OFFCURVE",
"92 414 OFFCURVE",
"92 482 CURVE SMOOTH",
"92 531 OFFCURVE",
"124 594 OFFCURVE",
"214 602 CURVE",
"210 612 OFFCURVE",
"203 617 OFFCURVE",
"190 617 CURVE SMOOTH",
"129 617 OFFCURVE",
"65 565 OFFCURVE",
"65 485 CURVE SMOOTH",
"65 410 OFFCURVE",
"123 358 OFFCURVE",
"236 314 CURVE",
"143 274 OFFCURVE",
"81 217 OFFCURVE",
"81 143 CURVE SMOOTH",
"81 53 OFFCURVE",
"173 -11 OFFCURVE",
"283 -11 CURVE SMOOTH",
"402 -11 OFFCURVE",
"469 65 OFFCURVE",
"469 142 CURVE SMOOTH",
"469 229 OFFCURVE",
"386 285 OFFCURVE",
"300 314 CURVE"
);
},
{
closed = 1;
nodes = (
"191 12 OFFCURVE",
"108 57 OFFCURVE",
"108 137 CURVE SMOOTH",
"108 205 OFFCURVE",
"166 260 OFFCURVE",
"272 302 CURVE",
"376 267 OFFCURVE",
"441 218 OFFCURVE",
"441 144 CURVE SMOOTH",
"441 61 OFFCURVE",
"359 12 OFFCURVE",
"273 12 CURVE SMOOTH"
);
}
);
width = 536;
},
{
layerId = "E17BEC9D-CAAD-449F-91D9-03766E30097E";
paths = (
{
closed = 1;
nodes = (
"488 330 OFFCURVE",
"534 379 OFFCURVE",
"534 450 CURVE SMOOTH",
"534 539 OFFCURVE",
"461 611 OFFCURVE",
"354 611 CURVE",
"342 586 LINE",
"371 564 OFFCURVE",
"383 534 OFFCURVE",
"383 511 CURVE SMOOTH",
"383 467 OFFCURVE",
"339 418 OFFCURVE",
"261 376 CURVE",
"221 396 OFFCURVE",
"197 431 OFFCURVE",
"197 461 CURVE SMOOTH",
"197 487 OFFCURVE",
"214 518 OFFCURVE",
"256 520 CURVE",
"251 588 OFFCURVE",
"200 622 OFFCURVE",
"147 622 CURVE SMOOTH",
"84 622 OFFCURVE",
"30 576 OFFCURVE",
"30 503 CURVE SMOOTH",
"30 426 OFFCURVE",
"94 366 OFFCURVE",
"167 329 CURVE",
"103 294 OFFCURVE",
"51 233 OFFCURVE",
"51 161 CURVE SMOOTH",
"51 49 OFFCURVE",
"175 -43 OFFCURVE",
"327 -43 CURVE SMOOTH",
"440 -43 OFFCURVE",
"538 8 OFFCURVE",
"538 114 CURVE SMOOTH",
"538 193 OFFCURVE",
"484 248 OFFCURVE",
"418 283 CURVE"
);
},
{
closed = 1;
nodes = (
"247 73 OFFCURVE",
"214 95 OFFCURVE",
"214 130 CURVE SMOOTH",
"214 171 OFFCURVE",
"257 207 OFFCURVE",
"315 232 CURVE",
"359 206 OFFCURVE",
"378 176 OFFCURVE",
"378 146 CURVE SMOOTH",
"378 100 OFFCURVE",
"329 73 OFFCURVE",
"286 73 CURVE SMOOTH"
);
}
);
width = 573;
},
{
layerId = "7DD510ED-E696-4B04-90C7-292E6BE56412";
paths = (
{
closed = 1;
nodes = (
"431 346 OFFCURVE",
"494 397 OFFCURVE",
"494 472 CURVE SMOOTH",
"494 546 OFFCURVE",
"433 606 OFFCURVE",
"350 613 CURVE",
"344 598 LINE",
"388 577 OFFCURVE",
"418 541 OFFCURVE",
"418 500 CURVE SMOOTH",
"418 436 OFFCURVE",
"349 387 OFFCURVE",
"263 346 CURVE",
"181 377 OFFCURVE",
"134 421 OFFCURVE",
"134 474 CURVE SMOOTH",
"134 514 OFFCURVE",
"160 564 OFFCURVE",
"231 569 CURVE",
"226 602 OFFCURVE",
"202 619 OFFCURVE",
"173 619 CURVE SMOOTH",
"111 619 OFFCURVE",
"51 569 OFFCURVE",
"51 492 CURVE SMOOTH",
"51 416 OFFCURVE",
"111 361 OFFCURVE",
"209 320 CURVE",
"127 282 OFFCURVE",
"69 223 OFFCURVE",
"69 150 CURVE SMOOTH",
"69 51 OFFCURVE",
"174 -24 OFFCURVE",
"300 -24 CURVE SMOOTH",
"417 -24 OFFCURVE",
"496 42 OFFCURVE",
"496 131 CURVE SMOOTH",
"496 215 OFFCURVE",
"425 270 OFFCURVE",
"347 302 CURVE"
);
},
{
closed = 1;
nodes = (
"213 36 OFFCURVE",
"150 72 OFFCURVE",
"150 134 CURVE SMOOTH",
"150 191 OFFCURVE",
"202 239 OFFCURVE",
"289 274 CURVE",
"369 243 OFFCURVE",
"416 201 OFFCURVE",
"416 145 CURVE SMOOTH",
"416 77 OFFCURVE",
"347 36 OFFCURVE",
"278 36 CURVE SMOOTH"
);
}
);
width = 551;
}
);
unicode = 0A6A;
},
{
glyphname = fiveguru;
lastChange = "2020-02-26 20:16:57 +0000";
layers = (
{
layerId = "1D4F67F9-897D-45AD-B7F0-CA61A6862C03";
paths = (
{
closed = 1;
nodes = (
"397 610 LINE",
"397 235 LINE",
"361 183 OFFCURVE",
"303 160 OFFCURVE",
"246 160 CURVE SMOOTH",
"154 160 OFFCURVE",
"88 221 OFFCURVE",
"61 277 CURVE",
"110 332 OFFCURVE",
"139 405 OFFCURVE",
"139 465 CURVE SMOOTH",
"139 512 OFFCURVE",
"121 561 OFFCURVE",
"81 610 CURVE",
"72 602 LINE",
"99 563 OFFCURVE",
"112 515 OFFCURVE",
"112 474 CURVE SMOOTH",
"112 403 OFFCURVE",
"72 331 OFFCURVE",
"31 286 CURVE",
"71 204 OFFCURVE",
"145 131 OFFCURVE",
"248 131 CURVE SMOOTH",
"301 131 OFFCURVE",
"358 150 OFFCURVE",
"397 191 CURVE",
"397 0 LINE",
"420 -15 LINE",
"423 -13 LINE",
"423 597 LINE",
"400 612 LINE"
);
}
);
width = 503;
},
{
layerId = "E17BEC9D-CAAD-449F-91D9-03766E30097E";
paths = (
{
closed = 1;
nodes = (
"390 612 LINE",
"390 248 LINE",
"363 222 OFFCURVE",
"323 207 OFFCURVE",
"282 207 CURVE SMOOTH",
"246 207 OFFCURVE",
"219 215 OFFCURVE",
"196 232 CURVE",
"245 281 OFFCURVE",
"271 336 OFFCURVE",
"271 390 CURVE SMOOTH",
"271 469 OFFCURVE",
"227 552 OFFCURVE",
"145 622 CURVE",
"69 580 LINE",
"106 527 OFFCURVE",
"117 491 OFFCURVE",
"117 456 CURVE SMOOTH",
"117 403 OFFCURVE",
"85 354 OFFCURVE",
"25 306 CURVE",
"69 187 OFFCURVE",
"202 67 OFFCURVE",
"327 67 CURVE SMOOTH",
"352 67 OFFCURVE",
"372 71 OFFCURVE",
"390 77 CURVE",
"390 20 LINE",
"537 -50 LINE",
"557 -40 LINE",
"557 552 LINE",
"410 622 LINE"
);
}
);
width = 617;
},
{
layerId = "7DD510ED-E696-4B04-90C7-292E6BE56412";
paths = (
{
closed = 1;
nodes = (
"394 611 LINE",
"394 240 LINE",
"362 199 OFFCURVE",
"311 179 OFFCURVE",
"260 179 CURVE SMOOTH",
"191 179 OFFCURVE",
"140 219 OFFCURVE",
"115 259 CURVE",
"164 312 OFFCURVE",
"191 378 OFFCURVE",
"191 435 CURVE SMOOTH",
"191 495 OFFCURVE",
"163 557 OFFCURVE",
"106 615 CURVE",
"71 593 LINE",
"102 549 OFFCURVE",
"114 505 OFFCURVE",
"114 467 CURVE SMOOTH",
"114 403 OFFCURVE",
"77 340 OFFCURVE",
"29 294 CURVE",
"70 197 OFFCURVE",
"168 106 OFFCURVE",
"279 106 CURVE SMOOTH",
"321 106 OFFCURVE",
"364 119 OFFCURVE",
"394 146 CURVE",
"394 8 LINE",
"467 -29 LINE",
"476 -24 LINE",
"476 579 LINE",
"404 616 LINE"
);
}
);
width = 548;
}
);
unicode = 0A6B;
},
{
glyphname = sixguru;
lastChange = "2020-02-26 20:16:57 +0000";
layers = (
{
layerId = "1D4F67F9-897D-45AD-B7F0-CA61A6862C03";
paths = (
{
closed = 1;
nodes = (
"404 29 OFFCURVE",
"344 14 OFFCURVE",
"292 14 CURVE SMOOTH",
"168 14 OFFCURVE",
"99 75 OFFCURVE",
"99 159 CURVE SMOOTH",
"99 224 OFFCURVE",
"140 274 OFFCURVE",
"201 292 CURVE",
"240 278 OFFCURVE",
"285 273 OFFCURVE",
"319 273 CURVE SMOOTH",
"374 273 OFFCURVE",
"410 287 OFFCURVE",
"410 306 CURVE SMOOTH",
"410 324 OFFCURVE",
"380 341 OFFCURVE",
"324 341 CURVE SMOOTH",
"280 341 OFFCURVE",
"226 331 OFFCURVE",
"193 319 CURVE",
"135 340 OFFCURVE",
"91 385 OFFCURVE",
"91 444 CURVE SMOOTH",
"91 507 OFFCURVE",
"141 568 OFFCURVE",
"257 575 CURVE",
"290 544 OFFCURVE",
"350 530 OFFCURVE",
"388 530 CURVE SMOOTH",
"417 530 OFFCURVE",
"436 539 OFFCURVE",
"436 553 CURVE SMOOTH",
"436 590 OFFCURVE",
"333 606 OFFCURVE",
"261 602 CURVE",
"254 612 OFFCURVE",
"249 626 OFFCURVE",
"249 644 CURVE SMOOTH",
"249 691 OFFCURVE",
"293 714 OFFCURVE",
"345 714 CURVE SMOOTH",
"371 714 OFFCURVE",
"389 711 OFFCURVE",
"409 704 CURVE",
"412 726 OFFCURVE",
"377 736 OFFCURVE",
"343 736 CURVE SMOOTH",
"279 736 OFFCURVE",
"229 705 OFFCURVE",
"229 647 CURVE SMOOTH",
"229 631 OFFCURVE",
"234 613 OFFCURVE",
"242 600 CURVE",
"120 586 OFFCURVE",
"65 521 OFFCURVE",
"65 449 CURVE SMOOTH",
"65 383 OFFCURVE",
"111 333 OFFCURVE",
"171 308 CURVE",
"103 278 OFFCURVE",
"73 218 OFFCURVE",
"73 162 CURVE SMOOTH",
"73 66 OFFCURVE",
"160 -12 OFFCURVE",
"298 -12 CURVE SMOOTH",
"352 -12 OFFCURVE",
"413 2 OFFCURVE",
"463 26 CURVE",
"452 51 LINE"
);
}
);
width = 475;
},
{
layerId = "E17BEC9D-CAAD-449F-91D9-03766E30097E";
paths = (
{
closed = 1;
nodes = (
"409 121 OFFCURVE",
"347 113 OFFCURVE",
"299 113 CURVE SMOOTH",
"224 113 OFFCURVE",
"190 133 OFFCURVE",
"190 166 CURVE SMOOTH",
"190 199 OFFCURVE",
"222 219 OFFCURVE",
"273 226 CURVE",
"308 214 OFFCURVE",
"345 208 OFFCURVE",
"377 208 CURVE SMOOTH",
"448 208 OFFCURVE",
"490 237 OFFCURVE",
"490 285 CURVE SMOOTH",
"490 352 OFFCURVE",
"407 377 OFFCURVE",
"327 377 CURVE SMOOTH",
"288 377 OFFCURVE",
"252 371 OFFCURVE",
"221 363 CURVE",
"205 374 OFFCURVE",
"195 392 OFFCURVE",
"195 414 CURVE SMOOTH",
"195 454 OFFCURVE",
"229 475 OFFCURVE",
"282 474 CURVE",
"321 453 OFFCURVE",
"365 439 OFFCURVE",
"405 439 CURVE SMOOTH",
"463 439 OFFCURVE",
"489 468 OFFCURVE",
"489 505 CURVE SMOOTH",
"489 562 OFFCURVE",
"427 609 OFFCURVE",
"324 614 CURVE",
"323 616 OFFCURVE",
"322 620 OFFCURVE",
"322 625 CURVE SMOOTH",
"322 654 OFFCURVE",
"355 671 OFFCURVE",
"391 671 CURVE SMOOTH",
"411 671 OFFCURVE",
"441 666 OFFCURVE",
"463 655 CURVE",
"491 712 OFFCURVE",
"464 788 OFFCURVE",
"367 788 CURVE SMOOTH",
"275 788 OFFCURVE",
"220 718 OFFCURVE",
"220 643 CURVE SMOOTH",
"220 629 OFFCURVE",
"222 617 OFFCURVE",
"223 613 CURVE",
"115 599 OFFCURVE",
"40 540 OFFCURVE",
"40 457 CURVE SMOOTH",
"40 408 OFFCURVE",
"66 359 OFFCURVE",
"120 329 CURVE",
"74 300 OFFCURVE",
"51 250 OFFCURVE",
"51 199 CURVE SMOOTH",
"51 95 OFFCURVE",
"144 -39 OFFCURVE",
"340 -43 CURVE SMOOTH",
"411 -45 OFFCURVE",
"468 -28 OFFCURVE",
"509 -9 CURVE",
"466 145 LINE"
);
}
);
width = 529;
},
{
layerId = "7DD510ED-E696-4B04-90C7-292E6BE56412";
paths = (
{
closed = 1;
nodes = (
"406 66 OFFCURVE",
"345 53 OFFCURVE",
"295 53 CURVE SMOOTH",
"190 53 OFFCURVE",
"135 98 OFFCURVE",
"135 162 CURVE SMOOTH",
"135 214 OFFCURVE",
"173 252 OFFCURVE",
"230 266 CURVE",
"267 253 OFFCURVE",
"309 247 OFFCURVE",
"342 247 CURVE SMOOTH",
"403 247 OFFCURVE",
"442 267 OFFCURVE",
"442 298 CURVE SMOOTH",
"442 335 OFFCURVE",
"391 355 OFFCURVE",
"325 355 CURVE SMOOTH",
"283 355 OFFCURVE",
"236 347 OFFCURVE",
"204 336 CURVE",
"163 354 OFFCURVE",
"132 388 OFFCURVE",
"132 432 CURVE SMOOTH",
"132 486 OFFCURVE",
"176 531 OFFCURVE",
"267 535 CURVE",
"302 508 OFFCURVE",
"356 494 OFFCURVE",
"395 494 CURVE SMOOTH",
"435 494 OFFCURVE",
"457 511 OFFCURVE",
"457 534 CURVE SMOOTH",
"457 579 OFFCURVE",
"370 607 OFFCURVE",
"286 607 CURVE",
"281 614 OFFCURVE",
"278 624 OFFCURVE",
"278 636 CURVE SMOOTH",
"278 676 OFFCURVE",
"318 697 OFFCURVE",
"363 697 CURVE SMOOTH",
"387 697 OFFCURVE",
"410 693 OFFCURVE",
"430 685 CURVE",
"443 720 OFFCURVE",
"412 757 OFFCURVE",
"353 757 CURVE SMOOTH",
"277 757 OFFCURVE",
"225 710 OFFCURVE",
"225 645 CURVE SMOOTH",
"225 630 OFFCURVE",
"229 615 OFFCURVE",
"234 605 CURVE",
"118 591 OFFCURVE",
"55 529 OFFCURVE",
"55 452 CURVE SMOOTH",
"55 393 OFFCURVE",
"93 343 OFFCURVE",
"151 316 CURVE",
"91 287 OFFCURVE",
"64 231 OFFCURVE",
"64 177 CURVE SMOOTH",
"64 78 OFFCURVE",
"155 -24 OFFCURVE",
"315 -24 CURVE SMOOTH",
"378 -24 OFFCURVE",
"435 -10 OFFCURVE",
"481 12 CURVE",
"458 88 LINE"
);
}
);
width = 496;
}
);
unicode = 0A6C;
},
{
glyphname = sevenguru;
lastChange = "2020-02-26 20:16:57 +0000";
layers = (
{
layerId = "1D4F67F9-897D-45AD-B7F0-CA61A6862C03";
paths = (
{
closed = 1;
nodes = (
"343 597 OFFCURVE",
"414 520 OFFCURVE",
"414 385 CURVE SMOOTH",
"414 204 OFFCURVE",
"293 64 OFFCURVE",
"54 25 CURVE",
"63 -1 LINE",
"328 45 OFFCURVE",
"441 209 OFFCURVE",
"441 377 CURVE SMOOTH",
"441 504 OFFCURVE",
"373 622 OFFCURVE",
"249 622 CURVE SMOOTH",
"146 622 OFFCURVE",
"84 546 OFFCURVE",
"84 455 CURVE SMOOTH",
"84 352 OFFCURVE",
"165 291 OFFCURVE",
"212 291 CURVE SMOOTH",
"222 291 OFFCURVE",
"230 293 OFFCURVE",
"235 300 CURVE",
"137 328 OFFCURVE",
"113 401 OFFCURVE",
"113 451 CURVE SMOOTH",
"113 529 OFFCURVE",
"167 597 OFFCURVE",
"252 597 CURVE SMOOTH"
);
}
);
width = 488;
},
{
layerId = "E17BEC9D-CAAD-449F-91D9-03766E30097E";
paths = (
{
closed = 1;
nodes = (
"320 497 OFFCURVE",
"341 448 OFFCURVE",
"341 386 CURVE SMOOTH",
"341 255 OFFCURVE",
"250 139 OFFCURVE",
"15 108 CURVE",
"70 -43 LINE",
"348 3 OFFCURVE",
"486 142 OFFCURVE",
"486 333 CURVE SMOOTH",
"486 491 OFFCURVE",
"382 622 OFFCURVE",
"230 622 CURVE SMOOTH",
"99 622 OFFCURVE",
"31 516 OFFCURVE",
"31 428 CURVE SMOOTH",
"31 333 OFFCURVE",
"86 274 OFFCURVE",
"160 274 CURVE SMOOTH",
"188 274 OFFCURVE",
"212 281 OFFCURVE",
"230 293 CURVE",
"209 324 OFFCURVE",
"200 359 OFFCURVE",
"200 392 CURVE SMOOTH",
"200 449 OFFCURVE",
"228 497 OFFCURVE",
"274 497 CURVE SMOOTH"
);
}
);
width = 521;
},
{
layerId = "7DD510ED-E696-4B04-90C7-292E6BE56412";
paths = (
{
closed = 1;
nodes = (
"334 557 OFFCURVE",
"385 491 OFFCURVE",
"385 385 CURVE SMOOTH",
"385 224 OFFCURVE",
"276 94 OFFCURVE",
"38 58 CURVE",
"66 -18 LINE",
"336 28 OFFCURVE",
"459 182 OFFCURVE",
"459 360 CURVE SMOOTH",
"459 499 OFFCURVE",
"377 622 OFFCURVE",
"241 622 CURVE SMOOTH",
"127 622 OFFCURVE",
"63 534 OFFCURVE",
"63 444 CURVE SMOOTH",
"63 344 OFFCURVE",
"134 284 OFFCURVE",
"191 284 CURVE SMOOTH",
"208 284 OFFCURVE",
"223 288 OFFCURVE",
"233 297 CURVE",
"166 326 OFFCURVE",
"148 384 OFFCURVE",
"148 428 CURVE SMOOTH",
"148 497 OFFCURVE",
"191 557 OFFCURVE",
"261 557 CURVE SMOOTH"
);
}
);
width = 501;
}
);
unicode = 0A6D;
},
{
glyphname = eightguru;
lastChange = "2020-02-26 20:16:57 +0000";
layers = (
{
layerId = "1D4F67F9-897D-45AD-B7F0-CA61A6862C03";
paths = (
{
closed = 1;
nodes = (
"439 91 OFFCURVE",
"411 26 OFFCURVE",
"319 26 CURVE SMOOTH",
"257 26 OFFCURVE",
"205 55 OFFCURVE",
"169 121 CURVE SMOOTH",
"120 211 OFFCURVE",
"110 357 OFFCURVE",
"118 481 CURVE",
"458 481 LINE",
"459 483 LINE",
"449 507 LINE",
"123 507 LINE",
"123 516 LINE",
"125 556 OFFCURVE",
"116 570 OFFCURVE",
"102 570 CURVE SMOOTH",
"77 570 OFFCURVE",
"40 529 OFFCURVE",
"40 502 CURVE SMOOTH",
"40 489 OFFCURVE",
"48 478 OFFCURVE",
"75 478 CURVE SMOOTH",
"91 478 LINE",
"81 353 OFFCURVE",
"94 205 OFFCURVE",
"148 109 CURVE SMOOTH",
"186 41 OFFCURVE",
"243 0 OFFCURVE",
"320 0 CURVE SMOOTH",
"430 0 OFFCURVE",
"468 85 OFFCURVE",
"484 161 CURVE",
"458 168 LINE"
);
}
);
width = 514;
},
{
layerId = "E17BEC9D-CAAD-449F-91D9-03766E30097E";
paths = (
{
closed = 1;
nodes = (
"423 113 OFFCURVE",
"390 65 OFFCURVE",
"336 65 CURVE SMOOTH",
"302 65 OFFCURVE",
"280 84 OFFCURVE",
"265 118 CURVE SMOOTH",
"241 172 OFFCURVE",
"238 275 OFFCURVE",
"242 375 CURVE",
"529 375 LINE",
"539 395 LINE",
"499 513 LINE",
"235 513 LINE",
"235 521 LINE SMOOTH",
"235 579 OFFCURVE",
"222 602 OFFCURVE",
"191 602 CURVE SMOOTH",
"123 602 OFFCURVE",
"0 495 OFFCURVE",
"0 427 CURVE SMOOTH",
"0 397 OFFCURVE",
"27 380 OFFCURVE",
"71 380 CURVE SMOOTH",
"77 380 LINE",
"72 236 OFFCURVE",
"87 126 OFFCURVE",
"174 40 CURVE SMOOTH",
"233 -18 OFFCURVE",
"301 -43 OFFCURVE",
"373 -43 CURVE SMOOTH",
"493 -43 OFFCURVE",
"575 23 OFFCURVE",
"594 154 CURVE",
"434 184 LINE"
);
}
);
width = 594;
},
{
layerId = "7DD510ED-E696-4B04-90C7-292E6BE56412";
paths = (
{
closed = 1;
nodes = (
"433 100 OFFCURVE",
"403 42 OFFCURVE",
"326 42 CURVE SMOOTH",
"275 42 OFFCURVE",
"235 67 OFFCURVE",
"207 120 CURVE SMOOTH",
"168 195 OFFCURVE",
"161 324 OFFCURVE",
"167 439 CURVE",
"486 439 LINE",
"491 448 LINE",
"469 509 LINE",
"168 509 LINE",
"168 518 LINE SMOOTH",
"169 565 OFFCURVE",
"158 583 OFFCURVE",
"137 583 CURVE SMOOTH",
"95 583 OFFCURVE",
"24 515 OFFCURVE",
"24 472 CURVE SMOOTH",
"24 452 OFFCURVE",
"40 439 OFFCURVE",
"73 439 CURVE SMOOTH",
"85 439 LINE",
"77 306 OFFCURVE",
"91 174 OFFCURVE",
"158 82 CURVE SMOOTH",
"205 18 OFFCURVE",
"266 -17 OFFCURVE",
"341 -17 CURVE SMOOTH",
"455 -17 OFFCURVE",
"511 60 OFFCURVE",
"528 158 CURVE",
"448 174 LINE"
);
}
);
width = 546;
}
);
unicode = 0A6E;
},
{
glyphname = nineguru;
lastChange = "2020-02-26 20:16:57 +0000";
layers = (
{
layerId = "1D4F67F9-897D-45AD-B7F0-CA61A6862C03";
paths = (
{
closed = 1;
nodes = (
"440 91 OFFCURVE",
"412 26 OFFCURVE",
"320 26 CURVE SMOOTH",
"258 26 OFFCURVE",
"206 55 OFFCURVE",
"170 121 CURVE SMOOTH",
"129 196 OFFCURVE",
"114 315 OFFCURVE",
"118 419 CURVE",
"416 419 LINE",
"420 431 LINE",
"372 486 OFFCURVE",
"338 533 OFFCURVE",
"338 592 CURVE SMOOTH",
"338 659 OFFCURVE",
"384 693 OFFCURVE",
"438 693 CURVE SMOOTH",
"454 693 OFFCURVE",
"467 690 OFFCURVE",
"481 685 CURVE",
"486 701 OFFCURVE",
"461 717 OFFCURVE",
"431 717 CURVE SMOOTH",
"367 717 OFFCURVE",
"314 674 OFFCURVE",
"314 597 CURVE SMOOTH",
"314 541 OFFCURVE",
"343 492 OFFCURVE",
"386 445 CURVE",
"122 445 LINE",
"123 456 LINE",
"125 496 OFFCURVE",
"116 510 OFFCURVE",
"102 510 CURVE SMOOTH",
"77 510 OFFCURVE",
"40 469 OFFCURVE",
"40 442 CURVE SMOOTH",
"40 429 OFFCURVE",
"48 418 OFFCURVE",
"75 418 CURVE SMOOTH",
"89 418 LINE",
"85 313 OFFCURVE",
"105 188 OFFCURVE",
"149 109 CURVE SMOOTH",
"187 41 OFFCURVE",
"244 0 OFFCURVE",
"321 0 CURVE SMOOTH",
"431 0 OFFCURVE",
"469 85 OFFCURVE",
"485 161 CURVE",
"459 168 LINE"
);
}
);
width = 515;
},
{
layerId = "E17BEC9D-CAAD-449F-91D9-03766E30097E";
paths = (
{
closed = 1;
nodes = (
"423 113 OFFCURVE",
"390 65 OFFCURVE",
"336 65 CURVE SMOOTH",
"302 65 OFFCURVE",
"280 84 OFFCURVE",
"265 118 CURVE SMOOTH",
"244 166 OFFCURVE",
"239 250 OFFCURVE",
"242 327 CURVE",
"509 327 LINE",
"519 347 LINE",
"481 408 OFFCURVE",
"455 464 OFFCURVE",
"455 510 CURVE SMOOTH",
"455 575 OFFCURVE",
"489 615 OFFCURVE",
"546 615 CURVE SMOOTH",
"557 615 OFFCURVE",
"569 613 OFFCURVE",
"582 610 CURVE",
"596 703 OFFCURVE",
"546 759 OFFCURVE",
"465 759 CURVE SMOOTH",
"382 759 OFFCURVE",
"315 704 OFFCURVE",
"315 604 CURVE SMOOTH",
"315 561 OFFCURVE",
"336 512 OFFCURVE",
"377 465 CURVE",
"235 465 LINE",
"235 481 LINE SMOOTH",
"235 539 OFFCURVE",
"222 562 OFFCURVE",
"191 562 CURVE SMOOTH",
"123 562 OFFCURVE",
"0 455 OFFCURVE",
"0 387 CURVE SMOOTH",
"0 357 OFFCURVE",
"26 340 OFFCURVE",
"72 340 CURVE SMOOTH",
"77 340 LINE",
"74 216 OFFCURVE",
"93 121 OFFCURVE",
"174 40 CURVE SMOOTH",
"230 -16 OFFCURVE",
"299 -43 OFFCURVE",
"374 -43 CURVE SMOOTH",
"491 -43 OFFCURVE",
"575 22 OFFCURVE",
"594 154 CURVE",
"434 184 LINE"
);
}
);
width = 605;
},
{
layerId = "7DD510ED-E696-4B04-90C7-292E6BE56412";
paths = (
{
closed = 1;
nodes = (
"433 100 OFFCURVE",
"403 42 OFFCURVE",
"326 42 CURVE SMOOTH",
"275 42 OFFCURVE",
"235 67 OFFCURVE",
"208 120 CURVE SMOOTH",
"175 184 OFFCURVE",
"164 289 OFFCURVE",
"167 382 CURVE",
"453 382 LINE",
"459 398 LINE",
"415 455 OFFCURVE",
"385 506 OFFCURVE",
"385 559 CURVE SMOOTH",
"385 626 OFFCURVE",
"426 662 OFFCURVE",
"481 662 CURVE SMOOTH",
"495 662 OFFCURVE",
"508 659 OFFCURVE",
"521 655 CURVE",
"530 702 OFFCURVE",
"495 734 OFFCURVE",
"445 734 CURVE SMOOTH",
"373 734 OFFCURVE",
"314 686 OFFCURVE",
"314 600 CURVE SMOOTH",
"314 549 OFFCURVE",
"340 500 OFFCURVE",
"382 453 CURVE",
"167 453 LINE",
"168 466 LINE SMOOTH",
"172 513 OFFCURVE",
"158 531 OFFCURVE",
"137 531 CURVE SMOOTH",
"95 531 OFFCURVE",
"24 463 OFFCURVE",
"24 420 CURVE SMOOTH",
"24 400 OFFCURVE",
"39 387 OFFCURVE",
"74 387 CURVE SMOOTH",
"84 387 LINE",
"81 274 OFFCURVE",
"99 164 OFFCURVE",
"159 82 CURVE SMOOTH",
"207 16 OFFCURVE",
"266 -17 OFFCURVE",
"342 -17 CURVE SMOOTH",
"455 -17 OFFCURVE",
"511 60 OFFCURVE",
"528 158 CURVE",
"449 174 LINE"
);
}
);
width = 551;
}
);
unicode = 0A6F;
},
{
glyphname = tippiguru;
lastChange = "2020-02-26 20:16:57 +0000";
layers = (
{
anchors = (
{
name = _top;
position = "{-90, 622}";
},
{
name = top;
position = "{71, 622}";
}
);
layerId = "1D4F67F9-897D-45AD-B7F0-CA61A6862C03";
paths = (
{
closed = 1;
nodes = (
"-194 843 OFFCURVE",
"-236 790 OFFCURVE",
"-236 741 CURVE SMOOTH",
"-236 712 OFFCURVE",
"-225 681 OFFCURVE",
"-198 659 CURVE",
"-179 659 LINE",
"-201 680 OFFCURVE",
"-212 706 OFFCURVE",
"-212 731 CURVE SMOOTH",
"-212 777 OFFCURVE",
"-176 816 OFFCURVE",
"-114 816 CURVE SMOOTH",
"-45 816 OFFCURVE",
"-16 775 OFFCURVE",
"-16 739 CURVE SMOOTH",
"-16 713 OFFCURVE",
"-26 682 OFFCURVE",
"-48 659 CURVE",
"-29 659 LINE",
"-4 684 OFFCURVE",
"7 714 OFFCURVE",
"7 743 CURVE SMOOTH",
"7 792 OFFCURVE",
"-31 843 OFFCURVE",
"-114 843 CURVE SMOOTH"
);
}
);
width = 0;
},
{
anchors = (
{
name = _top;
position = "{-120, 622}";
},
{
name = top;
position = "{111, 622}";
}
);
layerId = "E17BEC9D-CAAD-449F-91D9-03766E30097E";
paths = (
{
closed = 1;
nodes = (
"-239 894 OFFCURVE",
"-295 826 OFFCURVE",
"-295 755 CURVE SMOOTH",
"-295 716 OFFCURVE",
"-280 679 OFFCURVE",
"-248 650 CURVE",
"-161 650 LINE",
"-181 674 OFFCURVE",
"-190 698 OFFCURVE",
"-190 718 CURVE SMOOTH",
"-190 755 OFFCURVE",
"-168 777 OFFCURVE",
"-132 777 CURVE SMOOTH",
"-99 777 OFFCURVE",
"-80 757 OFFCURVE",
"-80 721 CURVE SMOOTH",
"-80 701 OFFCURVE",
"-89 676 OFFCURVE",
"-110 650 CURVE",
"-19 650 LINE",
"8 679 OFFCURVE",
"22 716 OFFCURVE",
"22 749 CURVE SMOOTH",
"22 822 OFFCURVE",
"-36 894 OFFCURVE",
"-135 894 CURVE SMOOTH"
);
}
);
width = 0;
},
{
anchors = (
{
name = _top;
position = "{-102, 622}";
},
{
name = top;
position = "{87, 622}";
}
);
layerId = "7DD510ED-E696-4B04-90C7-292E6BE56412";
paths = (
{
closed = 1;
nodes = (
"-212 863 OFFCURVE",
"-259 804 OFFCURVE",
"-259 747 CURVE SMOOTH",
"-259 714 OFFCURVE",
"-247 680 OFFCURVE",
"-218 655 CURVE",
"-172 655 LINE",
"-193 678 OFFCURVE",
"-203 703 OFFCURVE",
"-203 726 CURVE SMOOTH",
"-203 768 OFFCURVE",
"-173 800 OFFCURVE",
"-121 800 CURVE SMOOTH",
"-66 800 OFFCURVE",
"-41 768 OFFCURVE",
"-41 732 CURVE SMOOTH",
"-41 708 OFFCURVE",
"-51 680 OFFCURVE",
"-73 655 CURVE",
"-25 655 LINE",
"1 682 OFFCURVE",
"13 715 OFFCURVE",
"13 745 CURVE SMOOTH",
"13 804 OFFCURVE",
"-33 863 OFFCURVE",
"-122 863 CURVE SMOOTH"
);
}
);
width = 0;
}
);
unicode = 0A70;
},
{
glyphname = addakguru;
lastChange = "2020-02-26 20:16:57 +0000";
layers = (
{
anchors = (
{
name = _top;
position = "{-116, 622}";
},
{
name = top;
position = "{81, 622}";
}
);
layerId = "1D4F67F9-897D-45AD-B7F0-CA61A6862C03";
paths = (
{
closed = 1;
nodes = (
"-4 842 LINE",
"-5 757 OFFCURVE",
"-67 717 OFFCURVE",
"-117 717 CURVE SMOOTH",
"-165 717 OFFCURVE",
"-227 753 OFFCURVE",
"-231 839 CURVE",
"-236 839 LINE",
"-256 765 OFFCURVE",
"-204 689 OFFCURVE",
"-116 689 CURVE SMOOTH",
"-25 689 OFFCURVE",
"25 773 OFFCURVE",
"1 842 CURVE"
);
}
);
width = 0;
},
{
anchors = (
{
name = _top;
position = "{-156, 622}";
},
{
name = top;
position = "{111, 622}";
}
);
layerId = "E17BEC9D-CAAD-449F-91D9-03766E30097E";
paths = (
{
closed = 1;
nodes = (
"-27 883 LINE",
"-54 821 OFFCURVE",
"-106 786 OFFCURVE",
"-165 786 CURVE SMOOTH",
"-223 786 OFFCURVE",
"-272 821 OFFCURVE",
"-292 880 CURVE",
"-313 880 LINE",
"-334 761 OFFCURVE",
"-278 660 OFFCURVE",
"-156 660 CURVE SMOOTH",
"-27 660 OFFCURVE",
"15 773 OFFCURVE",
"-6 883 CURVE"
);
}
);
width = 0;
},
{
anchors = (
{
name = _top;
position = "{-132, 622}";
},
{
name = top;
position = "{93, 622}";
}
);
layerId = "7DD510ED-E696-4B04-90C7-292E6BE56412";
paths = (
{
closed = 1;
nodes = (
"-13 858 LINE",
"-24 782 OFFCURVE",
"-83 744 OFFCURVE",
"-136 744 CURVE SMOOTH",
"-188 744 OFFCURVE",
"-245 780 OFFCURVE",
"-255 855 CURVE",
"-267 855 LINE",
"-287 763 OFFCURVE",
"-233 677 OFFCURVE",
"-132 677 CURVE SMOOTH",
"-26 677 OFFCURVE",
"21 773 OFFCURVE",
"-2 858 CURVE"
);
}
);
width = 0;
}
);
unicode = 0A71;
},
